<?xml version="1.0" encoding="UTF-8" standalone="no"?>
<!-- Generator: Adobe Illustrator 13.0.2, SVG Export Plug-In . SVG Version: 6.00 Build 14948)  -->

<svg
   xmlns:dc="http://purl.org/dc/elements/1.1/"
   xmlns:cc="http://creativecommons.org/ns#"
   xmlns:rdf="http://www.w3.org/1999/02/22-rdf-syntax-ns#"
   xmlns:svg="http://www.w3.org/2000/svg"
   xmlns="http://www.w3.org/2000/svg"
   xmlns:sodipodi="http://sodipodi.sourceforge.net/DTD/sodipodi-0.dtd"
   xmlns:inkscape="http://www.inkscape.org/namespaces/inkscape"
   version="1.1"
   id="Layer_1"
   x="0px"
   y="0px"
   width="462"
   height="450"
   viewBox="-19.686 -22.411 462 450"
   enable-background="new -19.686 -22.411 470 490"
   xml:space="preserve"
   inkscape:version="0.48.4 r9939"
   sodipodi:docname="Circuit_Yas-Island.svg"><metadata
   id="metadata473"><rdf:RDF><cc:Work
       rdf:about=""><dc:format>image/svg+xml</dc:format><dc:type
         rdf:resource="http://purl.org/dc/dcmitype/StillImage" /></cc:Work></rdf:RDF></metadata><defs
   id="defs471" /><sodipodi:namedview
   pagecolor="#ffffff"
   bordercolor="#666666"
   borderopacity="1"
   objecttolerance="10"
   gridtolerance="10"
   guidetolerance="10"
   inkscape:pageopacity="0"
   inkscape:pageshadow="2"
   inkscape:window-width="1440"
   inkscape:window-height="838"
   id="namedview469"
   showgrid="false"
   inkscape:zoom="0.9632653"
   inkscape:cx="251.57508"
   inkscape:cy="225.77572"
   inkscape:window-x="-8"
   inkscape:window-y="-8"
   inkscape:window-maximized="1"
   inkscape:current-layer="Layer_1" />
<path
   style="fill:none;stroke:#8c8c8c;stroke-width:2.5;stroke-linecap:butt;stroke-linejoin:round;stroke-miterlimit:4;stroke-opacity:1;stroke-dasharray:none"
   d="m 54.822381,164.42393 -18.718854,51.01805 1.835181,21.65515 -0.734072,32.66623 c 0,0 -1.028266,26.11171 0.496803,43.06921 1.525069,16.9575 9.175909,50.221 9.175909,50.221 0,0 1.091953,3.73188 4.144903,6.36939 3.05295,2.63751 8.527074,1.19016 8.527074,1.19016"
   id="path4232"
   inkscape:connector-curvature="0"
   sodipodi:nodetypes="cccczczc" /><path
   style="fill:none;stroke:#aaaaaa;stroke-width:7;stroke-linecap:round;stroke-linejoin:round;stroke-miterlimit:4;stroke-opacity:1;stroke-dasharray:none"
   d="m 84.001765,161.48764 -3.67036,-16.33312 -18.535333,10.82757"
   id="path4230"
   inkscape:connector-curvature="0"
   sodipodi:nodetypes="ccc" /><path
   style="fill:none;stroke:#aaaaaa;stroke-width:7;stroke-linecap:round;stroke-linejoin:miter;stroke-miterlimit:4;stroke-opacity:1;stroke-dasharray:none"
   d="m 85.286395,121.48068 28.078275,-6.9737"
   id="path4228"
   inkscape:connector-curvature="0"
   sodipodi:nodetypes="cc" /><path
   style="fill:none;stroke:#aaaaaa;stroke-width:7;stroke-linecap:butt;stroke-linejoin:round;stroke-miterlimit:4;stroke-opacity:1;stroke-dasharray:none"
   d="m 304.4071,49.908584 27.16069,-7.157207 -2.20221,-8.441837"
   id="path4226"
   inkscape:connector-curvature="0"
   sodipodi:nodetypes="ccc" /><path
   style="fill:none;stroke:#aaaaaa;stroke-width:6;stroke-linecap:round;stroke-linejoin:miter;stroke-miterlimit:4;stroke-opacity:1;stroke-dasharray:none"
   d="m 299.81915,99.27498 c 0,0 3.84731,-5.08397 5.18438,-8.25833 1.33708,-3.17435 1.63203,-6.9463 2.98218,-10.09349 1.35015,-3.14719 3.8978,-6.90898 6.69841,-8.80887 2.80061,-1.89989 5.61573,-2.18101 8.90063,-2.4775 3.2849,-0.29649 6.72778,1.09925 10.50642,0.96347 3.77864,-0.13578 11.97456,-1.97281 11.97456,-1.97281"
   id="path4222"
   inkscape:connector-curvature="0"
   sodipodi:nodetypes="czzzzzc" /><path
   style="fill:none;stroke:#aaaaaa;stroke-width:6;stroke-linecap:butt;stroke-linejoin:round;stroke-miterlimit:4;stroke-opacity:1;stroke-dasharray:none"
   d="m 320.37318,69.54504 -2.20221,-9.17592 -20.37052,5.32203 -2.9363,-12.846273 9.54295,-2.569254 -2.56925,-9.175909 -0.36704,0"
   id="path4224"
   inkscape:connector-curvature="0"
   sodipodi:nodetypes="ccccccc" /><path
   style="fill:none;stroke:#aaaaaa;stroke-width:7;stroke-linecap:round;stroke-linejoin:round;stroke-miterlimit:4;stroke-opacity:1;stroke-dasharray:none"
   d="m 278.71455,106.43218 c 0,0 6.48076,-7.54079 7.15721,-10.64405 0.67645,-3.10326 -1.00935,-6.14786 -1.00935,-6.14786 l -7.616,-15.69081 c 0,0 7.40466,-15.54248 6.23962,-18.53533 -1.16504,-2.992846 -23.49033,-4.404435 -23.49033,-4.404435"
   id="path4220"
   inkscape:connector-curvature="0"
   sodipodi:nodetypes="czcczc" /><path
   style="fill:none;stroke:#aaaaaa;stroke-width:6;stroke-linecap:round;stroke-linejoin:miter;stroke-miterlimit:4;stroke-opacity:1;stroke-dasharray:none"
   d="m 253.75608,52.47784 c 0,0 -5.54481,4.261916 -7.4037,7.5112 -1.85889,3.249284 -4.38268,9.376293 -6.75869,12.112206 -2.37601,2.735913 -4.28497,4.953294 -8.59387,6.069134 -4.3089,1.11584 -8.01505,0.84229 -12.06767,-0.43 -4.05262,-1.27229 -8.10885,-4.477767 -12.8908,-5.809609 -4.78195,-1.331842 -14.31442,-2.20222 -14.31442,-2.20222"
   id="path4234"
   inkscape:connector-curvature="0"
   sodipodi:nodetypes="czzzzzc" /><path
   style="fill:#4d4d4d;stroke:#aaaaaa;stroke-width:7;stroke-linecap:round;stroke-linejoin:miter;stroke-miterlimit:4;stroke-opacity:1;stroke-dasharray:none"
   d="M 364.41755,51.560249 393.2299,27.33585"
   id="path4218"
   inkscape:connector-curvature="0"
   sodipodi:nodetypes="cc" /><path
   d="m 101.42996,131.74467 c 0,0 11.49204,-15.82311 22.24504,-3.53311 l 73.9307,81.91201 7.86415,11.44103 c 0,0 8.2222,7.43307 13.16372,-3.27247"
   id="path3"
   style="fill:none;stroke:#000000;stroke-width:2.70000005;stroke-linecap:round;stroke-linejoin:round;stroke-miterlimit:4;stroke-dasharray:none"
   inkscape:connector-curvature="0"
   sodipodi:nodetypes="ccccc" />
<path
   d="m 257.82479,131.20099 c 0,0 -3.07994,17.06861 -2.46894,28.00861 0.609,10.94 2.25507,18.7536 -13.54593,33.9476 -22.80942,20.12414 -22.91582,23.83826 -22.91582,23.83826"
   id="path5"
   inkscape:connector-curvature="0"
   style="fill:none;stroke:#000000;stroke-width:3;stroke-linecap:round;stroke-linejoin:round;stroke-miterlimit:4;stroke-dasharray:none"
   sodipodi:nodetypes="cccc" />
<polyline
   points="206.122,232.905 217.178,221.849 217.178,211.044 "
   id="polyline7"
   style="fill:none;stroke:#000000;stroke-width:1.04700005"
   transform="translate(-1.4681454,-23.8504)" />
<polyline
   points="119.185,137.901 141.671,131.434 173.342,131.156 "
   id="polyline9"
   style="fill:none;stroke:#000000;stroke-width:1.04700005"
   transform="translate(-1.4681454,-23.8504)" />
<polyline
   points="136.003,254.803 150.6,263.734 150.6,287.167 "
   id="polyline11"
   style="fill:none;stroke:#000000;stroke-width:1.04700005"
   transform="translate(-1.4681454,-23.8504)" />
<polyline
   points="63.404,310.719 84.029,310.719 109.124,317.527 "
   id="polyline13"
   style="fill:none;stroke:#000000;stroke-width:1.04700005"
   transform="translate(-1.4681454,-23.8504)" />
<polyline
   points="114.395,373.479 131.113,377.049 155.892,377.559 "
   id="polyline15"
   style="fill:none;stroke:#000000;stroke-width:1.04700005"
   transform="translate(-1.4681454,-23.8504)" />
<polyline
   points="85.459,396.316 93.572,412.98 93.572,437.939 "
   id="polyline17"
   style="fill:none;stroke:#000000;stroke-width:1.04700005"
   transform="translate(-1.4681454,-23.8504)" />
<line
   x1="47.625854"
   y1="333.46561"
   x2="33.664852"
   y2="333.46561"
   id="line19"
   style="fill:none;stroke:#000000;stroke-width:1.04700005" />
<line
   x1="42.041851"
   y1="269.2496"
   x2="26.510855"
   y2="269.2496"
   id="line21"
   style="fill:none;stroke:#000000;stroke-width:1.04700005" />
<polyline
   points="73.356,130.007 60.998,112.35 59.564,96.256 "
   id="polyline23"
   style="fill:none;stroke:#000000;stroke-width:1.04700005"
   transform="translate(-1.4681454,-23.8504)" />
<path
   d="m 69.982855,364.8136 c 3.814,-1.552 8.24,2.811 10.911,6.118 1.479,1.83 4.105,2.191 6.603,0.478 6.563,-4.511 18.733995,-12.955 20.661995,-14.885 2.662,-2.661 7.986,-6.211 2.952,-11.566 -5.524,-5.875 -42.634995,-48.188 -44.362995,-50.455 -1.728,-2.267 -4.714,-6.369 -4.917,-8.795 -0.202,-2.427 -0.448,-21.449 -0.541,-27.397 -0.094,-5.949 0.449,-7.87 2.44,-9.675 1.991,-1.807 15.384,-14.603 19.057,-17.115 3.673,-2.518 6.897,2.839 14.512,11.509 7.616995,8.67 9.297995,7.962 12.034995,6.66 2.737,-1.299 16.528,-11.314 21.178,-14.146 4.651,-2.832 4.759,-6.354 3.854,-8.388 -0.906,-2.034 -7.478,-15.442 -7.478,-15.442 0,0 -33.642995,-37.059 -37.725995,-41.469 -4.082,-4.415 -5.422,-8.05 -3.669,-11.109 1.753,-3.058 15.536995,-30.845 15.536995,-30.845 0,0 1.516,-4.31 6.005,-8.667 7.262,-6.829 11.137,-6.918 14.75,-2.935 3.612,3.982 81.617,91.496 88.251,98.407 6.633,6.912 11.21,6.429 14.567,2.938 3.358,-3.492 25.771,-24.103 33.66,-31.051 7.891,-6.949 8.895,-12.587 7.98,-16.695 -0.91,-4.106 -4.746,-18.815 -6.246,-23.978 -1.502,-5.163 -0.91466,-18.66369 2.753,-24.394 8.34127,-14.29293 13.507,-14.245 33.962,-20.601 11.108,-3.451 25.999,-11.303 32.055,-16.994 6.052,-5.692 38.09074,-35.052271 38.09074,-35.052271 0,0 -2.50074,-4.928729 -3.60874,-9.388729 -1.104,-4.458 2.53,-5.799 2.53,-5.799 l 24.523,-6.092 c 0,0 7.864,-1.625 6.32,-7.688 -1.541,-6.062 -8.671,-3.108 -8.671,-3.108 l -223.581,58.352 -31.86052,11.59973 -54.439475,14.92627 c -3.825,1.401 -8.141,3.208 -5.472,6.333 2.669,3.125 5.81,6.678 7.265,8.866 1.454,2.188 5.06,4.096 1.195,8.334 -3.865,4.237 -12.460109,14.82629 -18.185109,25.64429 -7.561182,13.38526 -17.308964,42.16213 -19.186746,92.58955 -1.14,15.727 -0.937775,45.49945 -0.833109,60.78949 0.104667,15.29004 7.746964,51.80967 10.996964,61.13767 2.082,5.978 10.915,1.173 16.133,-0.952 z"
   id="path25"
   inkscape:connector-curvature="0"
   style="fill:none;stroke:#000000;stroke-width:7.30000019;stroke-linecap:round;stroke-linejoin:round;stroke-miterlimit:4;stroke-dasharray:none"
   sodipodi:nodetypes="cccccscccccccccccccscscccccccccccccccscccczcc" />
<polygon
   points="159.067,168.036 174.496,178.485 165.884,161.959 "
   id="polygon27"
   transform="translate(-13.666238,-33.712688)"
   style="fill:#d2232a" />
<polygon
   points="223.004,73.281 241.456,70.696 238.018,62.24 "
   id="polygon29"
   style="fill:#d2232a"
   transform="translate(-1.4681454,-23.8504)" />
<polygon
   points="98.255,336.764 108.095,352.586 114.432,346.016 "
   id="polygon31"
   style="fill:#d2232a"
   transform="translate(-1.4681454,-23.8504)" />
<path
   d="m 360.96585,34.8226 c -0.44,1.558 0.467,3.178 2.021,3.618 1.561,0.44 3.181,-0.464 3.619,-2.023 0.44,-1.556 -0.463,-3.176 -2.022,-3.617 -1.556,-0.441 -3.178,0.465 -3.618,2.022 z"
   id="path33"
   inkscape:connector-curvature="0"
   style="fill:#ffffff" />
<circle
   cx="366.28799"
   cy="75.175003"
   r="2.9319999"
   id="circle35"
   sodipodi:cx="366.28799"
   sodipodi:cy="75.175003"
   sodipodi:rx="2.9319999"
   sodipodi:ry="2.9319999"
   style="fill:#ffffff"
   transform="translate(-1.4681454,-23.8504)" />
<circle
   cx="264.509"
   cy="145.347"
   r="2.931"
   id="circle37"
   sodipodi:cx="264.509"
   sodipodi:cy="145.347"
   sodipodi:rx="2.931"
   sodipodi:ry="2.931"
   style="fill:#ffffff"
   transform="translate(-1.4681454,-23.8504)" />
<circle
   cx="304.27301"
   cy="123.009"
   r="2.931"
   id="circle39"
   sodipodi:cx="304.27301"
   sodipodi:cy="123.009"
   sodipodi:rx="2.931"
   sodipodi:ry="2.931"
   style="fill:#ffffff"
   transform="translate(-1.4681454,-23.8504)" />
<circle
   cx="119.185"
   cy="137.901"
   r="2.931"
   id="circle41"
   sodipodi:cx="119.185"
   sodipodi:cy="137.901"
   sodipodi:rx="2.931"
   sodipodi:ry="2.931"
   style="fill:#ffffff"
   transform="translate(-1.4681454,-23.8504)" />
<circle
   cx="86.155998"
   cy="186.55701"
   r="2.931"
   id="circle43"
   sodipodi:cx="86.155998"
   sodipodi:cy="186.55701"
   sodipodi:rx="2.931"
   sodipodi:ry="2.931"
   style="fill:#ffffff"
   transform="translate(-1.4681454,-23.8504)" />
<circle
   cx="83.986"
   cy="146.196"
   r="2.9319999"
   id="circle45"
   sodipodi:cx="83.986"
   sodipodi:cy="146.196"
   sodipodi:rx="2.9319999"
   sodipodi:ry="2.9319999"
   style="fill:#ffffff"
   transform="translate(-1.4681454,-23.8504)" />
<circle
   cx="63.618999"
   cy="175.539"
   r="2.931"
   id="circle47"
   sodipodi:cx="63.618999"
   sodipodi:cy="175.539"
   sodipodi:rx="2.931"
   sodipodi:ry="2.931"
   style="fill:#ffffff"
   transform="translate(-1.4681454,-23.8504)" />
<circle
   cx="43.509998"
   cy="293.09799"
   r="2.9319999"
   id="circle49"
   sodipodi:cx="43.509998"
   sodipodi:cy="293.09799"
   sodipodi:rx="2.9319999"
   sodipodi:ry="2.9319999"
   style="fill:#ffffff"
   transform="translate(-1.4681454,-23.8504)" />
<circle
   cx="7.2129998"
   cy="333.58301"
   r="2.9330001"
   id="circle51"
   sodipodi:cx="7.2129998"
   sodipodi:cy="333.58301"
   sodipodi:rx="2.9330001"
   sodipodi:ry="2.9330001"
   style="fill:#ffffff"
   transform="translate(-1.4681454,-23.8504)" />
<circle
   cx="49.094002"
   cy="357.315"
   r="2.9319999"
   id="circle53"
   sodipodi:cx="49.094002"
   sodipodi:cy="357.315"
   sodipodi:rx="2.9319999"
   sodipodi:ry="2.9319999"
   style="fill:#ffffff"
   transform="translate(-1.4681454,-23.8504)" />
<circle
   cx="57.803001"
   cy="392.375"
   r="2.9319999"
   id="circle55"
   sodipodi:cx="57.803001"
   sodipodi:cy="392.375"
   sodipodi:rx="2.9319999"
   sodipodi:ry="2.9319999"
   style="fill:#ffffff"
   transform="translate(-1.4681454,-23.8504)" />
<circle
   cx="73.487"
   cy="388.224"
   r="2.9319999"
   id="circle57"
   sodipodi:cx="73.487"
   sodipodi:cy="388.224"
   sodipodi:rx="2.9319999"
   sodipodi:ry="2.9319999"
   style="fill:#ffffff"
   transform="translate(-1.4681454,-23.8504)" />
<circle
   cx="114.395"
   cy="373.478"
   r="2.9319999"
   id="circle59"
   sodipodi:cx="114.395"
   sodipodi:cy="373.478"
   sodipodi:rx="2.9319999"
   sodipodi:ry="2.9319999"
   style="fill:#ffffff"
   transform="translate(-1.4681454,-23.8504)" />
<circle
   cx="85.459999"
   cy="396.31601"
   r="2.9319999"
   id="circle61"
   sodipodi:cx="85.459999"
   sodipodi:cy="396.31601"
   sodipodi:rx="2.9319999"
   sodipodi:ry="2.9319999"
   style="fill:#ffffff"
   transform="translate(-1.4681454,-23.8504)" />
<circle
   cx="73.357002"
   cy="130.007"
   r="2.9319999"
   id="circle63"
   sodipodi:cx="73.357002"
   sodipodi:cy="130.007"
   sodipodi:rx="2.9319999"
   sodipodi:ry="2.9319999"
   style="fill:#ffffff"
   transform="translate(-1.4681454,-23.8504)" />
<circle
   cx="136.002"
   cy="254.802"
   r="2.931"
   id="circle65"
   sodipodi:cx="136.002"
   sodipodi:cy="254.802"
   sodipodi:rx="2.931"
   sodipodi:ry="2.931"
   style="fill:#ffffff"
   transform="translate(-1.4681454,-23.8504)" />
<circle
   cx="107.321"
   cy="274.47101"
   r="2.931"
   id="circle67"
   sodipodi:cx="107.321"
   sodipodi:cy="274.47101"
   sodipodi:rx="2.931"
   sodipodi:ry="2.931"
   style="fill:#ffffff"
   transform="translate(-1.4681454,-23.8504)" />
<circle
   cx="86.148003"
   cy="254.692"
   r="2.931"
   id="circle69"
   sodipodi:cx="86.148003"
   sodipodi:cy="254.692"
   sodipodi:rx="2.931"
   sodipodi:ry="2.931"
   style="fill:#ffffff"
   transform="translate(-1.4681454,-23.8504)" />
<circle
   cx="63.417"
   cy="274.827"
   r="2.9319999"
   id="circle71"
   sodipodi:cx="63.417"
   sodipodi:cy="274.827"
   sodipodi:rx="2.9319999"
   sodipodi:ry="2.9319999"
   style="fill:#ffffff"
   transform="translate(-1.4681454,-23.8504)" />
<circle
   cx="63.403999"
   cy="310.71799"
   r="2.9319999"
   id="circle73"
   sodipodi:cx="63.403999"
   sodipodi:cy="310.71799"
   sodipodi:rx="2.9319999"
   sodipodi:ry="2.9319999"
   style="fill:#ffffff"
   transform="translate(-1.4681454,-23.8504)" />
<rect
   x="-25.805984"
   y="-221.42242"
   transform="matrix(-0.75053494,0.66083077,-0.66083077,-0.75053494,0,0)"
   width="2.8518672"
   height="2.8458674"
   id="rect75"
   style="fill:#ffffff" />
<rect
   x="-23.082291"
   y="-221.41995"
   transform="matrix(-0.75100109,0.66030096,-0.66030096,-0.75100109,0,0)"
   width="2.8529959"
   height="2.850996"
   id="rect77" />
<rect
   x="-20.08815"
   y="-221.42557"
   transform="matrix(-0.75067186,0.66067523,-0.66067523,-0.75067186,0,0)"
   width="2.8471067"
   height="2.8501067"
   id="rect79"
   style="fill:#ffffff" />
<polygon
   points="169.779,186.475 167.889,184.337 165.753,186.221 167.637,188.36 "
   id="polygon81"
   transform="translate(-10.551832,-31.636417)" />
<polygon
   points="167.62,188.372 165.733,186.23 163.594,188.118 165.477,190.254 "
   id="polygon83"
   transform="translate(-10.551832,-31.636417)"
   style="fill:#ffffff" />
<rect
   x="-11.619779"
   y="-221.42253"
   transform="matrix(-0.75109427,0.66019497,-0.66019497,-0.75109427,0,0)"
   width="2.8530216"
   height="2.8510218"
   id="rect85" />
<rect
   x="-8.4222126"
   y="-221.42328"
   transform="matrix(-0.75015584,0.66126108,-0.66126108,-0.75015584,0,0)"
   width="2.8501678"
   height="2.8511679"
   id="rect87"
   style="fill:#ffffff" />
<polygon
   points="161.147,194.075 159.261,191.932 157.123,193.817 159.004,195.953 "
   id="polygon89"
   transform="translate(-10.551832,-31.636417)" />
<rect
   x="-25.694761"
   y="-224.30475"
   transform="matrix(-0.75024916,0.6611552,-0.6611552,-0.75024916,0,0)"
   width="2.8551934"
   height="2.8491931"
   id="rect91" />
<polygon
   points="175.986,184.834 174.104,182.693 171.967,184.578 173.847,186.719 "
   id="polygon93"
   transform="translate(-10.551832,-31.636417)"
   style="fill:#ffffff" />
<rect
   x="-20.215059"
   y="-224.26671"
   transform="matrix(-0.75100109,0.66030096,-0.66030096,-0.75100109,0,0)"
   width="2.8499959"
   height="2.8499959"
   id="rect95" />
<rect
   x="-17.216187"
   y="-224.31065"
   transform="matrix(-0.75062821,0.66072483,-0.66072483,-0.75062821,0,0)"
   width="2.850893"
   height="2.8518929"
   id="rect97"
   style="fill:#ffffff" />
<rect
   x="-14.465262"
   y="-224.29861"
   transform="matrix(-0.75100109,0.66030096,-0.66030096,-0.75100109,0,0)"
   width="2.8529959"
   height="2.854996"
   id="rect99" />
<polygon
   points="167.356,192.431 165.479,190.29 163.337,192.174 165.22,194.313 "
   id="polygon101"
   transform="translate(-10.551832,-31.636417)"
   style="fill:#ffffff" />
<rect
   x="-8.3786259"
   y="-224.3219"
   transform="matrix(-0.75001877,0.66141655,-0.66141655,-0.75001877,0,0)"
   width="2.8529286"
   height="2.8529286"
   id="rect103" />
<rect
   x="-5.4231215"
   y="-224.30412"
   transform="matrix(-0.74978241,0.66168447,-0.66168447,-0.74978241,0,0)"
   width="2.8530669"
   height="2.8490667"
   id="rect105"
   style="fill:#ffffff" />
<polygon
   points="180.043,185.092 178.164,182.95 176.017,184.834 177.906,186.975 "
   id="polygon107"
   transform="translate(-10.551832,-31.636417)"
   style="fill:#ffffff" />
<rect
   x="-28.56963"
   y="-221.45177"
   transform="matrix(-0.75029876,0.66109891,-0.66109891,-0.75029876,0,0)"
   width="2.8500047"
   height="2.8500047"
   id="rect109" />
<rect
   x="-28.464706"
   y="-224.31938"
   transform="matrix(-0.74996916,0.6614728,-0.6614728,-0.74996916,0,0)"
   width="2.8481171"
   height="2.8471169"
   id="rect111"
   style="fill:#ffffff" />
<rect
   x="-28.875753"
   y="-227.1503"
   transform="matrix(-0.75118744,0.66008896,-0.66008896,-0.75118744,0,0)"
   width="2.8510478"
   height="2.8510478"
   id="rect113" />
<rect
   x="-23.058186"
   y="-227.17238"
   transform="matrix(-0.75081468,0.66051292,-0.66051292,-0.75081468,0,0)"
   width="2.8459444"
   height="2.8509443"
   id="rect115" />
<rect
   x="-19.904295"
   y="-227.19998"
   transform="matrix(-0.75011211,0.66131068,-0.66131068,-0.75011211,0,0)"
   width="2.851954"
   height="2.847954"
   id="rect117"
   style="fill:#ffffff" />
<rect
   x="-17.188101"
   y="-227.17404"
   transform="matrix(-0.75057861,0.66078117,-0.66078117,-0.75057861,0,0)"
   width="2.8540814"
   height="2.8490813"
   id="rect119" />
<rect
   x="-14.231667"
   y="-227.17628"
   transform="matrix(-0.75029876,0.66109891,-0.66109891,-0.75029876,0,0)"
   width="2.8480048"
   height="2.8490047"
   id="rect121"
   style="fill:#ffffff" />
<rect
   x="-11.291002"
   y="-227.17133"
   transform="matrix(-0.75015584,0.66126108,-0.66126108,-0.75015584,0,0)"
   width="2.8501678"
   height="2.8471675"
   id="rect123" />
<polygon
   points="167.099,196.486 165.216,194.346 163.081,196.23 164.96,198.37 "
   id="polygon125"
   transform="translate(-10.551832,-31.636417)"
   style="fill:#ffffff" />
<rect
   x="-5.9392967"
   y="-227.16341"
   transform="matrix(-0.75128058,0.65998294,-0.65998294,-0.75128058,0,0)"
   width="2.8510737"
   height="2.8510737"
   id="rect127" />
<polyline
   points="218.719,244.133 218.719,263.809 240.062,263.809 "
   id="polyline129"
   style="fill:none;stroke:#000000;stroke-width:1.04700005"
   transform="translate(-1.4681454,-23.8504)" />
<circle
   cx="218.71899"
   cy="244.132"
   r="2.9319999"
   id="circle131"
   sodipodi:cx="218.71899"
   sodipodi:cy="244.132"
   sodipodi:rx="2.9319999"
   sodipodi:ry="2.9319999"
   style="fill:#ffffff"
   transform="translate(-1.4681454,-23.8504)" />
<circle
   cx="206.12199"
   cy="232.905"
   r="2.931"
   id="circle133"
   sodipodi:cx="206.12199"
   sodipodi:cy="232.905"
   sodipodi:rx="2.931"
   sodipodi:ry="2.931"
   style="fill:#ffffff"
   transform="translate(-1.4681454,-23.8504)" />
<circle
   cx="218.783"
   cy="263.80899"
   r="10.172"
   id="circle135"
   sodipodi:cx="218.783"
   sodipodi:cy="263.80899"
   sodipodi:rx="10.172"
   sodipodi:ry="10.172"
   style="fill:#ffffff;stroke:#000000;stroke-width:1.04700005"
   transform="translate(-1.4681454,-23.8504)" />
<path
   d="m 214.82385,243.0016 h 1.538 v -6.778 c -0.612,0 -1.198,0.04 -1.715,0.108 v -1.156 c 0.898,-0.178 1.674,-0.437 2.314,-0.803 h 1.129 v 8.629 h 1.538 v 1.389 h -4.805 l 0.001,-1.389 0,0 z"
   id="path137"
   inkscape:connector-curvature="0" />
<rect
   x="232.36887"
   y="231.3896"
   width="32.444"
   height="17.791"
   id="rect139"
   style="fill:#636467" />
<rect
   x="253.45586"
   y="231.3896"
   width="11.357"
   height="17.791"
   id="rect141"
   style="fill:#bcbec0" />
<path
   d="m 234.89285,242.5686 h 1.183 v -5.213 c -0.471,0 -0.921,0.029 -1.319,0.083 v -0.892 c 0.691,-0.135 1.289,-0.334 1.779,-0.616 h 0.869 v 6.638 h 1.184 v 1.066 h -3.695 v -1.066 l -10e-4,0 z"
   id="path143"
   inkscape:connector-curvature="0"
   style="fill:#ffffff" />
<path
   d="m 240.41085,242.2646 c 0.471,-0.773 1.193,-1.36 2.031,-2.01 1.025,-0.797 1.675,-1.299 1.675,-2.146 0,-0.628 -0.418,-1.017 -1.088,-1.017 -0.69,0 -1.192,0.461 -1.276,1.185 l -1.299,-0.241 c 0.251,-1.317 1.225,-2.104 2.627,-2.104 1.465,0 2.418,0.933 2.418,2.239 0,1.078 -0.67,1.812 -1.884,2.711 -0.911,0.683 -1.591,1.09 -1.821,1.55 h 3.664 v 1.204 h -5.045 v -1.371 h -0.002 z"
   id="path145"
   inkscape:connector-curvature="0"
   style="fill:#ffffff" />
<path
   d="m 250.34585,237.2926 h -3.561 v -1.244 h 5.141 v 0.836 l -3.024,6.814 h -1.486 l 2.93,-6.406 z"
   id="path147"
   inkscape:connector-curvature="0"
   style="fill:#ffffff" />
<path
   d="m 257.03885,241.5946 c 0.429,0.67 0.921,0.994 1.55,0.994 0.773,0 1.31,-0.514 1.31,-1.184 0,-0.826 -0.66,-1.234 -2,-1.234 -0.083,0 -0.167,0 -0.253,0 v -1.142 c 0.104,0.011 0.212,0.011 0.314,0.011 1.141,0 1.727,-0.388 1.727,-1.067 0,-0.544 -0.418,-0.933 -1.098,-0.933 -0.564,0 -1.048,0.252 -1.402,0.754 l -0.932,-0.73 c 0.512,-0.725 1.359,-1.132 2.406,-1.132 1.455,0 2.355,0.797 2.355,1.927 0,0.785 -0.377,1.351 -1.11,1.687 0.869,0.25 1.351,0.933 1.351,1.926 0,1.412 -0.981,2.293 -2.596,2.293 -1.246,0 -2.156,-0.504 -2.711,-1.497 l 1.089,-0.673 z"
   id="path149"
   inkscape:connector-curvature="0" />
<rect
   x="38.537056"
   y="-4.8166785"
   width="32.444"
   height="17.791"
   id="rect151"
   style="fill:#636467" />
<rect
   x="59.624054"
   y="-4.8166785"
   width="11.358"
   height="17.791"
   id="rect153"
   style="fill:#bcbec0" />
<path
   d="m 41.060057,6.362322 h 1.182 V 1.1503217 c -0.471,0 -0.92,0.032 -1.318,0.083 V 0.34532191 c 0.69,-0.137 1.287,-0.334 1.779,-0.617 h 0.868 V 6.362322 h 1.184 v 1.067 h -3.694 l -10e-4,-1.067 0,0 z"
   id="path155"
   inkscape:connector-curvature="0"
   style="fill:#ffffff" />
<path
   d="m 46.579057,6.058322 c 0.47,-0.774 1.192,-1.3600003 2.029,-2.0090003 1.025,-0.797 1.675,-1.298 1.675,-2.146 0,-0.627 -0.419,-1.01399979 -1.089,-1.01399979 -0.69,0 -1.192,0.45999979 -1.276,1.18199979 l -1.298,-0.241 c 0.251,-1.31699979 1.224,-2.10299979 2.627,-2.10299979 1.464,0 2.417,0.931 2.417,2.23899979 0,1.077 -0.67,1.81 -1.885,2.709 -0.91,0.6810003 -1.59,1.0890003 -1.82,1.5500003 h 3.663 v 1.203 h -5.043 v -1.37 z"
   id="path157"
   inkscape:connector-curvature="0"
   style="fill:#ffffff" />
<path
   d="m 56.513057,1.0883217 h -3.558 v -1.24599979 h 5.138 v 0.838 l -3.025,6.81200009 h -1.485 l 2.93,-6.4040003 z"
   id="path159"
   inkscape:connector-curvature="0"
   style="fill:#ffffff" />
<path
   d="m 63.207057,5.389322 c 0.429,0.67 0.921,0.995 1.549,0.995 0.774,0 1.308,-0.514 1.308,-1.184 0,-0.8260003 -0.66,-1.2360003 -1.999,-1.2360003 -0.084,0 -0.168,0 -0.252,0 v -1.14 c 0.105,0.01 0.21,0.01 0.315,0.01 1.14,0 1.726,-0.387 1.726,-1.066 0,-0.544 -0.418,-0.93299979 -1.099,-0.93299979 -0.565,0 -1.046,0.25099979 -1.402,0.75399979 l -0.932,-0.73099979 c 0.513,-0.722 1.361,-1.13 2.408,-1.13 1.454,0 2.354,0.794 2.354,1.92599979 0,0.784 -0.376,1.349 -1.109,1.684 0.869,0.251 1.349,0.932 1.349,1.9260003 0,1.414 -0.983,2.292 -2.594,2.292 -1.247,0 -2.156,-0.502 -2.711,-1.497 l 1.089,-0.67 z"
   id="path161"
   inkscape:connector-curvature="0" />
<path
   d="m 86.262057,6.634322 c -0.481,0.628 -1.119,0.921 -2.009,0.921 -1.79,0 -2.898,-1.466 -2.898,-4.0090003 0,-2.428 1.184,-3.81799979 3.15,-3.81799979 1.36,0 2.302,0.68 2.679,1.92599979 l -1.297,0.324 c -0.304,-0.711 -0.754,-1.05899979 -1.414,-1.05899979 -1.088,0 -1.664,0.92199979 -1.664,2.71099979 0,1.7470003 0.596,2.6700003 1.622,2.6700003 0.806,0 1.381,-0.565 1.507,-1.5390003 h -1.423 v -1.193 h 2.836 V 7.429322 h -1.015 l -0.074,-0.795 z"
   id="path163"
   inkscape:connector-curvature="0" />
<path
   d="m 88.861057,-0.17767809 h 4.94 V 1.0563217 h -3.517 v 1.8 h 2.564 v 1.214 h -2.564 V 6.131322 h 3.673 v 1.298 h -5.096 v -7.60700009 z"
   id="path165"
   inkscape:connector-curvature="0" />
<path
   d="m 96.608057,-0.17767809 h 1.79 L 100.69006,7.429322 h -1.434003 l -0.472,-1.664 h -2.625 l -0.481,1.664 h -1.361 l 2.291,-7.60700009 z m 1.832,4.73099979 -0.974,-3.402 -0.962,3.402 h 1.936 z"
   id="path167"
   inkscape:connector-curvature="0" />
<path
   d="m 101.58206,-0.17767809 h 2.575 c 1.915,0 2.856,0.722 2.856,2.27099979 0,0.994 -0.502,1.675 -1.402,1.926 l 1.684,3.4110003 h -1.538 l -1.465,-3.0870003 h -1.308 V 7.430322 h -1.403 l 0.001,-7.60800009 0,0 z m 2.648,3.31699979 c 0.91,0 1.339,-0.324 1.339,-1.059 0,-0.742 -0.44,-1.056 -1.339,-1.056 h -1.246 v 2.113 l 1.246,0.002 0,0 z"
   id="path169"
   inkscape:connector-curvature="0" />
<path
   d="m -1.1049436,5.138322 c 0.39699999,0.806 0.87000049,1.162 1.54900049,1.162 0.77400001,0 1.23500001,-0.388 1.23500001,-0.964 0,-0.512 -0.345,-0.7730003 -1.13000001,-1.0670003 -0.68,-0.25 -1.3080005,-0.459 -1.81000049,-0.784 -0.576,-0.367 -0.889999,-0.953 -0.889999,-1.675 0,-1.20399979 0.973999,-2.07199979 2.47999949,-2.07199979 1.29800001,0 2.16600001,0.564 2.56300001,1.66399979 l -1.296,0.471 c -0.314,-0.67 -0.72100001,-0.97399979 -1.37100001,-0.97399979 -0.628,0 -1.0040005,0.31299979 -1.0040005,0.80599979 0,0.711 0.7430005,0.837 1.94500051,1.351 1.268,0.533 1.896,1.024 1.896,2.2190003 0,1.382 -0.953,2.26 -2.58500001,2.26 -1.4030005,0 -2.38600049,-0.628 -2.87799949,-1.82 l 1.295999,-0.577 z"
   id="path171"
   inkscape:connector-curvature="0" />
<path
   d="m 4.3000569,-0.17767809 h 2.7209999 c 1.778,0 2.658,0.731 2.658,2.25899979 0,1.477 -0.868,2.271 -2.521,2.271 H 5.7440569 V 7.428322 h -1.444 v -7.60600009 z m 2.51,3.32699979 c 0.9739999,0 1.4339999,-0.25 1.4339999,-1.068 0,-0.826 -0.45,-1.078 -1.4339999,-1.078 h -1.066 v 2.146 h 1.066 z"
   id="path173"
   inkscape:connector-curvature="0" />
<path
   d="m 10.979057,-0.17767809 h 4.939 V 1.0563217 h -3.517 v 1.8 h 2.564 v 1.214 h -2.564 V 6.131322 h 3.674 v 1.298 h -5.096 v -7.60700009 z"
   id="path175"
   inkscape:connector-curvature="0" />
<path
   d="m 17.282057,-0.17767809 h 4.939 V 1.0563217 h -3.516 v 1.8 h 2.563 v 1.214 h -2.563 V 6.131322 h 3.673 v 1.298 h -5.096 v -7.60700009 z"
   id="path177"
   inkscape:connector-curvature="0" />
<path
   d="m 23.554057,-0.17767809 h 2.323 c 2.354,0 3.569,1.28599979 3.569,3.77699979 0,2.5420003 -1.215,3.8300003 -3.621,3.8300003 h -2.271 v -7.60700009 z m 2.218,6.35200009 c 1.569,0 2.218,-0.765 2.218,-2.5740003 0,-1.727 -0.702,-2.513 -2.239,-2.513 h -0.763 V 6.174322 h 0.784 z"
   id="path179"
   inkscape:connector-curvature="0" />
<rect
   x="155.65286"
   y="98.409599"
   width="32.444"
   height="17.792"
   id="rect181"
   style="fill:#636467" />
<rect
   x="176.73985"
   y="98.409599"
   width="11.357"
   height="17.792"
   id="rect183"
   style="fill:#bcbec0" />
<path
   d="m 158.17685,109.5876 h 1.183 v -5.212 c -0.471,0 -0.921,0.031 -1.319,0.083 v -0.89 c 0.691,-0.137 1.288,-0.335 1.779,-0.618 h 0.869 v 6.636 h 1.183 v 1.068 h -3.695 v -1.067 z"
   id="path185"
   inkscape:connector-curvature="0"
   style="fill:#ffffff" />
<path
   d="m 163.69385,109.2846 c 0.471,-0.775 1.193,-1.361 2.031,-2.01 1.026,-0.796 1.675,-1.298 1.675,-2.146 0,-0.628 -0.418,-1.015 -1.088,-1.015 -0.691,0 -1.193,0.46 -1.277,1.183 l -1.298,-0.241 c 0.251,-1.318 1.225,-2.104 2.627,-2.104 1.465,0 2.418,0.932 2.418,2.24 0,1.078 -0.67,1.811 -1.884,2.711 -0.911,0.68 -1.591,1.088 -1.821,1.549 h 3.664 v 1.204 h -5.045 v -1.371 h -0.002 z"
   id="path187"
   inkscape:connector-curvature="0"
   style="fill:#ffffff" />
<path
   d="m 171.19085,108.7716 c 0.283,0.555 0.743,0.848 1.34,0.848 0.764,0 1.351,-0.628 1.351,-1.602 0,-0.816 -0.513,-1.352 -1.277,-1.352 -0.502,0 -0.911,0.241 -1.151,0.681 l -1.078,-0.251 0.314,-4.029 h 4.062 v 1.214 h -3.046 l -0.084,1.695 c 0.293,-0.282 0.702,-0.43 1.288,-0.43 1.382,0 2.355,1.005 2.355,2.533 0,1.654 -1.037,2.701 -2.711,2.701 -1.183,0 -2.052,-0.502 -2.543,-1.435 l 1.18,-0.573 z"
   id="path189"
   inkscape:connector-curvature="0"
   style="fill:#ffffff" />
<path
   d="m 180.32385,108.6146 c 0.429,0.67 0.921,0.994 1.549,0.994 0.774,0 1.309,-0.514 1.309,-1.184 0,-0.827 -0.66,-1.234 -2,-1.234 -0.084,0 -0.167,0 -0.251,0 v -1.141 c 0.104,0.011 0.209,0.011 0.314,0.011 1.141,0 1.727,-0.388 1.727,-1.068 0,-0.544 -0.419,-0.932 -1.099,-0.932 -0.565,0 -1.047,0.251 -1.403,0.754 l -0.932,-0.733 c 0.513,-0.722 1.361,-1.13 2.408,-1.13 1.455,0 2.355,0.795 2.355,1.926 0,0.785 -0.376,1.352 -1.109,1.687 0.869,0.251 1.35,0.932 1.35,1.926 0,1.413 -0.984,2.292 -2.596,2.292 -1.246,0 -2.156,-0.502 -2.711,-1.497 l 1.089,-0.671 z"
   id="path191"
   inkscape:connector-curvature="0" />
<rect
   x="199.46886"
   y="175.3606"
   width="32.445"
   height="17.792"
   id="rect193"
   style="fill:#636467" />
<rect
   x="220.55486"
   y="175.3606"
   width="11.358"
   height="17.792"
   id="rect195"
   style="fill:#bcbec0" />
<path
   d="m 201.16585,186.2346 c 0.471,-0.774 1.193,-1.361 2.031,-2.01 1.026,-0.797 1.675,-1.299 1.675,-2.146 0,-0.629 -0.418,-1.016 -1.088,-1.016 -0.691,0 -1.193,0.46 -1.277,1.183 l -1.298,-0.241 c 0.251,-1.317 1.225,-2.104 2.627,-2.104 1.465,0 2.418,0.932 2.418,2.24 0,1.077 -0.67,1.811 -1.884,2.711 -0.911,0.681 -1.591,1.089 -1.821,1.549 h 3.664 v 1.204 h -5.045 v -1.37 h -0.002 z"
   id="path197"
   inkscape:connector-curvature="0"
   style="fill:#ffffff" />
<path
   d="m 209.65685,184.8836 c -1.34,0 -2.303,-0.994 -2.303,-2.396 0,-1.623 0.994,-2.586 2.638,-2.586 1.685,0 2.68,1.246 2.68,3.518 0,2.721 -1.256,4.312 -3.161,4.312 -0.775,0 -1.434,-0.199 -1.947,-0.576 l 0.565,-1.025 c 0.481,0.304 0.9,0.472 1.392,0.472 0.932,0 1.696,-0.858 1.78,-2.313 -0.483,0.395 -1.017,0.594 -1.644,0.594 z m 0.292,-3.851 c -0.732,0 -1.267,0.555 -1.267,1.34 0,0.868 0.523,1.402 1.277,1.402 0.649,0 1.193,-0.377 1.381,-0.942 -0.051,-1.162 -0.574,-1.8 -1.391,-1.8 z"
   id="path199"
   inkscape:connector-curvature="0"
   style="fill:#ffffff" />
<path
   d="m 216.47285,179.9016 c 1.79,0 2.732,1.329 2.732,3.915 0,2.585 -0.942,3.915 -2.732,3.915 -1.79,0 -2.732,-1.33 -2.732,-3.915 -0.001,-2.586 0.942,-3.915 2.732,-3.915 z m 0,6.657 c 0.9,0 1.371,-0.922 1.371,-2.742 0,-1.821 -0.471,-2.753 -1.371,-2.753 -0.89,0 -1.382,0.932 -1.382,2.753 0,1.821 0.492,2.742 1.382,2.742 z"
   id="path201"
   inkscape:connector-curvature="0"
   style="fill:#ffffff" />
<path
   d="m 226.35985,182.7386 c 1.34,0 2.303,1.005 2.303,2.407 0,1.623 -0.994,2.586 -2.638,2.586 -1.717,0 -2.68,-1.235 -2.68,-3.519 0,-2.722 1.256,-4.312 3.161,-4.312 0.743,0 1.413,0.178 1.958,0.576 l -0.576,1.024 c -0.481,-0.304 -0.9,-0.471 -1.392,-0.471 -0.932,0 -1.696,0.848 -1.78,2.303 0.482,-0.396 1.016,-0.594 1.644,-0.594 z m -0.293,3.851 c 0.732,0 1.267,-0.544 1.267,-1.329 0,-0.868 -0.523,-1.401 -1.277,-1.401 -0.649,0 -1.193,0.366 -1.382,0.932 0.052,1.16 0.575,1.798 1.392,1.798 z"
   id="path203"
   inkscape:connector-curvature="0" />
<line
   x1="266.66785"
   y1="175.5126"
   x2="306.01486"
   y2="175.5126"
   id="line205"
   style="fill:none;stroke:#000000;stroke-width:1.04700005" />
<circle
   cx="286.203"
   cy="199.364"
   r="10.172"
   id="circle207"
   sodipodi:cx="286.203"
   sodipodi:cy="199.364"
   sodipodi:rx="10.172"
   sodipodi:ry="10.172"
   style="fill:#ffffff;stroke:#000000;stroke-width:1.04700005"
   transform="translate(-1.4681454,-23.8504)" />
<path
   d="m 281.16885,178.1626 c 0.612,-1.007 1.553,-1.77 2.641,-2.613 1.334,-1.034 2.18,-1.688 2.18,-2.79 0,-0.815 -0.545,-1.319 -1.416,-1.319 -0.896,0 -1.553,0.599 -1.66,1.538 l -1.688,-0.313 c 0.328,-1.715 1.594,-2.735 3.418,-2.735 1.904,0 3.144,1.211 3.144,2.913 0,1.401 -0.871,2.354 -2.448,3.524 -1.186,0.885 -2.07,1.416 -2.369,2.015 h 4.766 v 1.565 h -6.562 v -1.784 h -0.006 z"
   id="path209"
   inkscape:connector-curvature="0" />
<circle
   cx="247.162"
   cy="138.138"
   r="10.172"
   id="circle211"
   sodipodi:cx="247.162"
   sodipodi:cy="138.138"
   sodipodi:rx="10.172"
   sodipodi:ry="10.172"
   style="fill:#ffffff;stroke:#000000;stroke-width:1.04700005"
   transform="translate(-1.4681454,-23.8504)" />
<path
   d="m 243.12085,116.0656 c 0.558,0.871 1.198,1.293 2.015,1.293 1.008,0 1.701,-0.667 1.701,-1.538 0,-1.076 -0.855,-1.606 -2.6,-1.606 -0.109,0 -0.219,0 -0.327,0 v -1.482 c 0.136,0.014 0.272,0.014 0.408,0.014 1.483,0 2.246,-0.503 2.246,-1.388 0,-0.708 -0.544,-1.211 -1.429,-1.211 -0.735,0 -1.361,0.326 -1.824,0.979 l -1.211,-0.953 c 0.666,-0.938 1.769,-1.47 3.13,-1.47 1.892,0 3.062,1.034 3.062,2.504 0,1.021 -0.49,1.756 -1.443,2.191 1.132,0.327 1.758,1.211 1.758,2.504 0,1.837 -1.279,2.979 -3.375,2.979 -1.62,0 -2.805,-0.652 -3.525,-1.945 l 1.414,-0.871 z"
   id="path213"
   inkscape:connector-curvature="0" />
<circle
   cx="311.38199"
   cy="139.476"
   r="10.172"
   id="circle215"
   sodipodi:cx="311.38199"
   sodipodi:cy="139.476"
   sodipodi:rx="10.172"
   sodipodi:ry="10.172"
   style="fill:#ffffff;stroke:#000000;stroke-width:1.04700005"
   transform="translate(-1.4681454,-23.8504)" />
<path
   d="m 310.30885,117.7996 h -4.409 v -1.77 l 4.219,-5.866 h 1.838 v 6.207 h 1.415 v 1.429 h -1.415 v 2.341 h -1.646 l -0.002,-2.341 0,0 z m 0.027,-1.416 v -4.288 l -3.089,4.288 h 3.089 z"
   id="path217"
   inkscape:connector-curvature="0" />
<circle
   cx="382.28101"
   cy="70.688004"
   r="10.172"
   id="circle219"
   sodipodi:cx="382.28101"
   sodipodi:cy="70.688004"
   sodipodi:rx="10.172"
   sodipodi:ry="10.172"
   transform="translate(-33.422302,-27.730366)"
   style="fill:#ffffff;stroke:#000000;stroke-width:1.04700005" />
<circle
   cx="372.479"
   cy="92.494003"
   r="10.172"
   id="circle221"
   sodipodi:cx="372.479"
   sodipodi:cy="92.494003"
   sodipodi:rx="10.172"
   sodipodi:ry="10.172"
   transform="translate(5.0179644,-30.349552)"
   style="fill:#ffffff;stroke:#000000;stroke-width:1.04700005" />
<path
   d="m 349.14574,41.642136 c 1.742,0 2.994,1.307 2.994,3.13 0,2.11 -1.293,3.362 -3.43,3.362 -2.232,0 -3.484,-1.606 -3.484,-4.573 0,-3.539 1.633,-5.607 4.11,-5.607 0.967,0 1.838,0.23 2.545,0.749 l -0.748,1.334 c -0.626,-0.396 -1.171,-0.612 -1.812,-0.612 -1.211,0 -2.205,1.102 -2.312,2.994 0.627,-0.519 1.321,-0.777 2.137,-0.777 z m -0.38,5.008 c 0.952,0 1.646,-0.708 1.646,-1.729 0,-1.13 -0.681,-1.824 -1.658,-1.824 -0.846,0 -1.554,0.476 -1.799,1.211 0.068,1.512 0.748,2.342 1.811,2.342 z"
   id="path223"
   inkscape:connector-curvature="0" />
<circle
   cx="60.998001"
   cy="112.351"
   r="10.172"
   id="circle225"
   sodipodi:cx="60.998001"
   sodipodi:cy="112.351"
   sodipodi:rx="10.172"
   sodipodi:ry="10.172"
   style="fill:#ffffff;stroke:#000000;stroke-width:1.04700005"
   transform="translate(-1.4681454,-23.8504)" />
<path
   d="m 56.140855,85.3656 c 0,-1.484 1.184,-2.45 3.212,-2.45 2.069,0 3.226,0.98 3.226,2.545 0,0.98 -0.504,1.742 -1.498,2.205 1.28,0.667 1.851,1.47 1.851,2.654 0,1.701 -1.307,2.775 -3.688,2.775 -2.218,0 -3.498,-1.062 -3.498,-2.734 0,-1.186 0.626,-2.028 1.919,-2.654 -1.061,-0.599 -1.524,-1.293 -1.524,-2.341 z m 1.402,4.927 c 0,0.79 0.667,1.348 1.742,1.348 1.198,0 1.892,-0.53 1.892,-1.36 0,-0.721 -0.64,-1.32 -1.919,-1.796 -1.13,0.378 -1.715,1.019 -1.715,1.808 z m 3.334,-4.859 c 0,-0.694 -0.544,-1.131 -1.47,-1.131 -0.98,0 -1.538,0.409 -1.538,1.062 0,0.762 0.531,1.293 1.552,1.538 0.993,-0.313 1.456,-0.763 1.456,-1.469 z"
   id="path227"
   inkscape:connector-curvature="0" />
<circle
   cx="61.785"
   cy="146.453"
   r="10.172"
   id="circle229"
   sodipodi:cx="61.785"
   sodipodi:cy="146.453"
   sodipodi:rx="10.172"
   sodipodi:ry="10.172"
   style="fill:#ffffff;stroke:#000000;stroke-width:1.04700005"
   transform="translate(-1.4681454,-23.8504)" />
<path
   d="m 59.540855,123.4956 c -1.742,0 -2.995,-1.293 -2.995,-3.117 0,-2.109 1.293,-3.361 3.43,-3.361 2.191,0 3.484,1.619 3.484,4.572 0,3.539 -1.633,5.607 -4.111,5.607 -1.007,0 -1.864,-0.258 -2.531,-0.749 l 0.735,-1.333 c 0.626,0.395 1.17,0.612 1.81,0.612 1.211,0 2.205,-1.116 2.314,-3.009 -0.625,0.519 -1.32,0.778 -2.136,0.778 z m 0.381,-5.009 c -0.953,0 -1.647,0.722 -1.647,1.742 0,1.13 0.681,1.823 1.661,1.823 0.844,0 1.552,-0.489 1.797,-1.225 -0.069,-1.51 -0.749,-2.34 -1.811,-2.34 z"
   id="path231"
   inkscape:connector-curvature="0" />
<circle
   cx="45.257999"
   cy="174.783"
   r="10.172"
   id="circle233"
   sodipodi:cx="45.257999"
   sodipodi:cy="174.783"
   sodipodi:rx="10.172"
   sodipodi:ry="10.172"
   style="fill:#ffffff;stroke:#000000;stroke-width:1.04700005"
   transform="translate(-1.4681454,-23.8504)" />
<path
   d="m 37.515855,153.9776 h 1.538 v -6.778 c -0.612,0 -1.198,0.041 -1.715,0.109 v -1.157 c 0.898,-0.177 1.674,-0.437 2.314,-0.804 h 1.13 v 8.63 h 1.538 v 1.388 h -4.804 l -10e-4,-1.388 0,0 z"
   id="path235"
   inkscape:connector-curvature="0" />
<path
   d="m 47.410855,145.3476 c 2.328,0 3.552,1.729 3.552,5.091 0,3.36 -1.225,5.09 -3.552,5.09 -2.327,0 -3.552,-1.729 -3.552,-5.09 0,-3.362 1.224,-5.091 3.552,-5.091 z m 0,8.656 c 1.17,0 1.783,-1.197 1.783,-3.565 0,-2.368 -0.613,-3.58 -1.783,-3.58 -1.157,0 -1.796,1.211 -1.796,3.58 0,2.367 0.639,3.565 1.796,3.565 z"
   id="path237"
   inkscape:connector-curvature="0" />
<circle
   cx="43.313"
   cy="404.306"
   r="10.172"
   id="circle239"
   sodipodi:cx="43.313"
   sodipodi:cy="404.306"
   sodipodi:rx="10.172"
   sodipodi:ry="10.172"
   style="fill:#ffffff;stroke:#000000;stroke-width:1.04700005"
   transform="translate(-1.4681454,-23.8504)" />
<path
   d="m 35.569855,383.4986 h 1.538 v -6.777 c -0.612,0 -1.198,0.041 -1.715,0.108 v -1.156 c 0.898,-0.178 1.674,-0.437 2.314,-0.804 h 1.13 v 8.629 h 1.538 v 1.39 h -4.804 l -0.001,-1.39 0,0 z"
   id="path241"
   inkscape:connector-curvature="0" />
<path
   d="m 43.136855,383.4986 h 1.538 v -6.777 c -0.612,0 -1.198,0.041 -1.715,0.108 v -1.156 c 0.898,-0.178 1.674,-0.437 2.314,-0.804 h 1.129 v 8.629 h 1.538 v 1.39 h -4.805 l 10e-4,-1.39 0,0 z"
   id="path243"
   inkscape:connector-curvature="0" />
<circle
   cx="73.727997"
   cy="370.61301"
   r="10.172"
   id="circle245"
   sodipodi:cx="73.727997"
   sodipodi:cy="370.61301"
   sodipodi:rx="10.172"
   sodipodi:ry="10.172"
   style="fill:#ffffff;stroke:#000000;stroke-width:1.04700005"
   transform="translate(-1.4681454,-23.8504)" />
<path
   d="m 65.985855,349.8036 h 1.538 v -6.776 c -0.612,0 -1.198,0.041 -1.715,0.108 v -1.156 c 0.898,-0.178 1.674,-0.438 2.314,-0.805 h 1.13 v 8.629 h 1.538 v 1.391 h -4.804 l -0.001,-1.391 0,0 z"
   id="path247"
   inkscape:connector-curvature="0" />
<path
   d="m 72.477855,349.4106 c 0.613,-1.007 1.552,-1.77 2.641,-2.612 1.334,-1.035 2.178,-1.688 2.178,-2.791 0,-0.814 -0.544,-1.318 -1.416,-1.318 -0.898,0 -1.552,0.599 -1.661,1.538 l -1.688,-0.316 c 0.327,-1.715 1.592,-2.734 3.416,-2.734 1.906,0 3.145,1.211 3.145,2.912 0,1.401 -0.871,2.354 -2.45,3.524 -1.184,0.886 -2.069,1.416 -2.368,2.015 h 4.764 v 1.565 h -6.561 v -1.783 z"
   id="path249"
   inkscape:connector-curvature="0" />
<circle
   cx="84.028999"
   cy="309.95901"
   r="10.172"
   id="circle251"
   sodipodi:cx="84.028999"
   sodipodi:cy="309.95901"
   sodipodi:rx="10.172"
   sodipodi:ry="10.172"
   style="fill:#ffffff;stroke:#000000;stroke-width:1.04700005"
   transform="translate(-1.4681454,-23.8504)" />
<path
   d="m 76.285855,289.1526 h 1.538 v -6.778 c -0.612,0 -1.198,0.041 -1.715,0.109 v -1.157 c 0.898,-0.177 1.674,-0.437 2.314,-0.803 h 1.13 v 8.629 h 1.538 v 1.39 h -4.804 l -0.001,-1.39 0,0 z"
   id="path253"
   inkscape:connector-curvature="0" />
<path
   d="m 84.275855,288.0906 c 0.367,0.723 0.966,1.104 1.742,1.104 0.994,0 1.755,-0.815 1.755,-2.082 0,-1.062 -0.667,-1.756 -1.66,-1.756 -0.653,0 -1.184,0.312 -1.497,0.885 l -1.402,-0.327 0.409,-5.24 h 5.281 v 1.58 h -3.961 l -0.108,2.205 c 0.381,-0.367 0.912,-0.559 1.674,-0.559 1.797,0 3.062,1.307 3.062,3.293 0,2.149 -1.348,3.512 -3.525,3.512 -1.538,0 -2.667,-0.652 -3.307,-1.863 l 1.537,-0.752 z"
   id="path255"
   inkscape:connector-curvature="0" />
<circle
   cx="86.513"
   cy="237.25101"
   r="10.172"
   id="circle257"
   sodipodi:cx="86.513"
   sodipodi:cy="237.25101"
   sodipodi:rx="10.172"
   sodipodi:ry="10.172"
   style="fill:#ffffff;stroke:#000000;stroke-width:1.04700005"
   transform="translate(-1.4681454,-23.8504)" />
<path
   d="m 78.769855,216.4446 h 1.538 v -6.777 c -0.612,0 -1.198,0.04 -1.715,0.108 v -1.157 c 0.898,-0.177 1.674,-0.436 2.314,-0.803 h 1.129 v 8.629 h 1.538 v 1.389 h -4.805 l 0.001,-1.389 0,0 z"
   id="path259"
   inkscape:connector-curvature="0" />
<path
   d="m 89.930855,209.5856 h -4.627 v -1.62 h 6.683 v 1.089 l -3.934,8.861 h -1.933 l 3.811,-8.33 z"
   id="path261"
   inkscape:connector-curvature="0" />
<circle
   cx="80.018997"
   cy="282.70401"
   r="10.172"
   id="circle263"
   sodipodi:cx="80.018997"
   sodipodi:cy="282.70401"
   sodipodi:rx="10.172"
   sodipodi:ry="10.172"
   style="fill:#ffffff;stroke:#000000;stroke-width:1.04700005"
   transform="translate(-1.4681454,-23.8504)" />
<path
   d="m 72.275855,261.8966 h 1.538 v -6.778 c -0.612,0 -1.198,0.041 -1.715,0.109 v -1.157 c 0.898,-0.177 1.674,-0.438 2.314,-0.803 h 1.129 v 8.629 h 1.538 v 1.389 h -4.805 l 0.001,-1.389 0,0 z"
   id="path265"
   inkscape:connector-curvature="0" />
<path
   d="m 82.647855,256.9566 c 1.742,0 2.994,1.308 2.994,3.131 0,2.109 -1.293,3.361 -3.43,3.361 -2.232,0 -3.484,-1.605 -3.484,-4.572 0,-3.539 1.633,-5.606 4.11,-5.606 0.966,0 1.837,0.229 2.545,0.749 l -0.749,1.333 c -0.626,-0.396 -1.171,-0.612 -1.811,-0.612 -1.211,0 -2.205,1.103 -2.314,2.994 0.628,-0.521 1.322,-0.778 2.139,-0.778 z m -0.382,5.007 c 0.953,0 1.647,-0.707 1.647,-1.729 0,-1.13 -0.681,-1.824 -1.661,-1.824 -0.844,0 -1.551,0.477 -1.796,1.213 0.068,1.51 0.749,2.34 1.81,2.34 z"
   id="path267"
   inkscape:connector-curvature="0" />
<circle
   cx="115.732"
   cy="291.633"
   r="10.172"
   id="circle269"
   sodipodi:cx="115.732"
   sodipodi:cy="291.633"
   sodipodi:rx="10.172"
   sodipodi:ry="10.172"
   style="fill:#ffffff;stroke:#000000;stroke-width:1.04700005"
   transform="translate(-1.4681454,-23.8504)" />
<path
   d="m 107.98985,270.8246 h 1.538 v -6.778 c -0.612,0 -1.198,0.041 -1.715,0.109 v -1.156 c 0.898,-0.178 1.674,-0.437 2.314,-0.804 h 1.13 v 8.629 h 1.538 v 1.39 h -4.804 l -10e-4,-1.39 0,0 z"
   id="path271"
   inkscape:connector-curvature="0" />
<path
   d="m 114.65885,264.6456 c 0,-1.482 1.184,-2.45 3.212,-2.45 2.069,0 3.226,0.979 3.226,2.545 0,0.979 -0.504,1.742 -1.498,2.205 1.28,0.667 1.851,1.47 1.851,2.653 0,1.7 -1.307,2.776 -3.688,2.776 -2.218,0 -3.498,-1.062 -3.498,-2.735 0,-1.185 0.626,-2.027 1.919,-2.653 -1.062,-0.599 -1.524,-1.293 -1.524,-2.341 z m 1.402,4.927 c 0,0.79 0.667,1.349 1.742,1.349 1.198,0 1.892,-0.531 1.892,-1.36 0,-0.724 -0.64,-1.32 -1.919,-1.798 -1.13,0.38 -1.715,1.02 -1.715,1.809 z m 3.334,-4.861 c 0,-0.691 -0.544,-1.129 -1.47,-1.129 -0.98,0 -1.538,0.408 -1.538,1.062 0,0.762 0.531,1.293 1.552,1.538 0.994,-0.312 1.456,-0.762 1.456,-1.471 z"
   id="path273"
   inkscape:connector-curvature="0" />
<circle
   cx="150.60001"
   cy="263.73499"
   r="10.172"
   id="circle275"
   sodipodi:cx="150.60001"
   sodipodi:cy="263.73499"
   sodipodi:rx="10.172"
   sodipodi:ry="10.172"
   style="fill:#ffffff;stroke:#000000;stroke-width:1.04700005"
   transform="translate(-1.4681454,-23.8504)" />
<path
   d="m 142.85685,242.9266 h 1.538 v -6.777 c -0.612,0 -1.198,0.04 -1.715,0.106 v -1.155 c 0.898,-0.179 1.674,-0.437 2.314,-0.804 h 1.129 v 8.629 h 1.538 v 1.39 h -4.805 l 0.001,-1.389 0,0 z"
   id="path277"
   inkscape:connector-curvature="0" />
<path
   d="m 152.13985,240.7766 c -1.742,0 -2.995,-1.293 -2.995,-3.115 0,-2.111 1.293,-3.363 3.43,-3.363 2.191,0 3.484,1.621 3.484,4.574 0,3.539 -1.633,5.606 -4.11,5.606 -1.007,0 -1.865,-0.26 -2.532,-0.748 l 0.735,-1.334 c 0.626,0.396 1.17,0.611 1.81,0.611 1.211,0 2.205,-1.115 2.314,-3.008 -0.625,0.518 -1.32,0.777 -2.136,0.777 z m 0.381,-5.009 c -0.953,0 -1.647,0.722 -1.647,1.74 0,1.131 0.681,1.824 1.661,1.824 0.844,0 1.552,-0.49 1.797,-1.226 -0.069,-1.508 -0.75,-2.338 -1.811,-2.338 z"
   id="path279"
   inkscape:connector-curvature="0" />
<circle
   cx="105.552"
   cy="185.004"
   r="10.172"
   id="circle281"
   sodipodi:cx="105.552"
   sodipodi:cy="185.004"
   sodipodi:rx="10.172"
   sodipodi:ry="10.172"
   style="fill:#ffffff;stroke:#000000;stroke-width:1.04700005"
   transform="translate(-1.4681454,-23.8504)" />
<path
   d="m 96.733855,163.8016 c 0.613,-1.007 1.552,-1.77 2.641,-2.612 1.333995,-1.034 2.177995,-1.688 2.177995,-2.79 0,-0.816 -0.544,-1.32 -1.416,-1.32 -0.897995,0 -1.551995,0.599 -1.660995,1.538 l -1.688,-0.313 c 0.327,-1.715 1.592,-2.734 3.416995,-2.734 1.905,0 3.144,1.211 3.144,2.913 0,1.4 -0.871,2.354 -2.45,3.523 -1.183995,0.885 -2.068995,1.416 -2.367995,2.016 h 4.763995 v 1.564 h -6.560995 v -1.785 z"
   id="path283"
   inkscape:connector-curvature="0" />
<path
   d="m 107.70485,155.5676 c 2.328,0 3.552,1.729 3.552,5.091 0,3.361 -1.225,5.09 -3.552,5.09 -2.327,0 -3.552,-1.729 -3.552,-5.09 0,-3.363 1.224,-5.091 3.552,-5.091 z m 0,8.655 c 1.17,0 1.783,-1.196 1.783,-3.564 0,-2.368 -0.613,-3.58 -1.783,-3.58 -1.157,0 -1.796,1.212 -1.796,3.58 0,2.368 0.639,3.564 1.796,3.564 z"
   id="path285"
   inkscape:connector-curvature="0" />
<circle
   cx="141.67101"
   cy="131.435"
   r="10.172"
   id="circle287"
   sodipodi:cx="141.67101"
   sodipodi:cy="131.435"
   sodipodi:rx="10.172"
   sodipodi:ry="10.172"
   style="fill:#ffffff;stroke:#000000;stroke-width:1.04700005"
   transform="translate(-1.4681454,-23.8504)" />
<path
   d="m 132.85285,110.2346 c 0.613,-1.007 1.552,-1.77 2.641,-2.613 1.334,-1.034 2.178,-1.688 2.178,-2.79 0,-0.815 -0.544,-1.32 -1.416,-1.32 -0.898,0 -1.552,0.6 -1.661,1.538 l -1.688,-0.312 c 0.327,-1.715 1.592,-2.736 3.417,-2.736 1.905,0 3.144,1.211 3.144,2.913 0,1.402 -0.871,2.355 -2.45,3.525 -1.184,0.885 -2.069,1.416 -2.368,2.014 h 4.764 v 1.565 h -6.561 v -1.784 l 0,0 z"
   id="path289"
   inkscape:connector-curvature="0" />
<path
   d="m 141.49585,110.6296 h 1.538 v -6.777 c -0.612,0 -1.198,0.041 -1.715,0.108 v -1.157 c 0.898,-0.177 1.674,-0.436 2.314,-0.803 h 1.129 v 8.629 h 1.538 v 1.389 h -4.805 l 10e-4,-1.389 0,0 z"
   id="path291"
   inkscape:connector-curvature="0" />
<circle
   cx="93.571999"
   cy="412.98099"
   r="10.172"
   id="circle293"
   sodipodi:cx="93.571999"
   sodipodi:cy="412.98099"
   sodipodi:rx="10.172"
   sodipodi:ry="10.172"
   style="fill:#ffffff;stroke:#000000;stroke-width:1.04700005"
   transform="translate(-1.4681454,-23.8504)" />
<path
   d="m 85.828855,392.1746 h 1.538 v -6.777 c -0.612,0 -1.198,0.04 -1.715,0.108 v -1.157 c 0.898,-0.177 1.674,-0.437 2.314,-0.804 h 1.129 v 8.63 h 1.538 v 1.389 h -4.805 l 0.001,-1.389 0,0 z"
   id="path295"
   inkscape:connector-curvature="0" />
<path
   d="m 93.315855,390.9096 c 0.558,0.871 1.198,1.293 2.015,1.293 1.007,0 1.701,-0.667 1.701,-1.538 0,-1.074 -0.857,-1.604 -2.6,-1.604 -0.109,0 -0.218,0 -0.327,0 v -1.482 c 0.136,0.014 0.272,0.014 0.408,0.014 1.484,0 2.246,-0.504 2.246,-1.389 0,-0.708 -0.544,-1.212 -1.429,-1.212 -0.735,0 -1.361,0.327 -1.824,0.979 l -1.211,-0.953 c 0.667,-0.938 1.769,-1.47 3.13,-1.47 1.892,0 3.062,1.033 3.062,2.504 0,1.021 -0.49,1.756 -1.443,2.19 1.13,0.327 1.756,1.212 1.756,2.505 0,1.837 -1.279,2.979 -3.375,2.979 -1.62,0 -2.804,-0.652 -3.525,-1.945 l 1.416,-0.871 z"
   id="path297"
   inkscape:connector-curvature="0" />
<path
   d="m 139.81685,353.1996 c 0,5.617 -4.554,10.169 -10.172,10.169 -5.617,0 -10.172,-4.552 -10.172,-10.169 0,-5.618 4.555,-10.172 10.172,-10.172 5.618,0 10.172,4.554 10.172,10.172 z"
   id="path299"
   inkscape:connector-curvature="0"
   style="fill:#ffffff;stroke:#000000;stroke-width:1.04700005" />
<path
   d="m 123.36985,356.2426 h 1.538 v -6.778 c -0.612,0 -1.198,0.041 -1.715,0.109 v -1.156 c 0.898,-0.178 1.674,-0.437 2.314,-0.804 h 1.13 v 8.629 h 1.538 v 1.39 h -4.804 l -0.001,-1.39 0,0 z"
   id="path301"
   inkscape:connector-curvature="0" />
<path
   d="m 133.82385,355.3726 h -4.41 v -1.77 l 4.22,-5.867 h 1.837 v 6.207 h 1.416 v 1.43 h -1.416 v 2.342 h -1.647 v -2.342 z m 0.027,-1.416 v -4.287 l -3.09,4.287 h 3.09 z"
   id="path303"
   inkscape:connector-curvature="0" />
<rect
   x="299.78687"
   y="166.9456"
   width="32.445"
   height="17.791"
   id="rect305"
   style="fill:#636467" />
<rect
   x="320.87585"
   y="166.9456"
   width="11.356"
   height="17.791"
   id="rect307"
   style="fill:#bcbec0" />
<path
   d="m 301.48885,177.8206 c 0.471,-0.774 1.193,-1.361 2.031,-2.01 1.025,-0.797 1.675,-1.299 1.675,-2.146 0,-0.629 -0.419,-1.016 -1.089,-1.016 -0.691,0 -1.193,0.46 -1.277,1.183 l -1.298,-0.241 c 0.251,-1.317 1.226,-2.104 2.627,-2.104 1.466,0 2.418,0.932 2.418,2.24 0,1.077 -0.67,1.811 -1.884,2.711 -0.91,0.681 -1.592,1.089 -1.821,1.549 h 3.664 v 1.204 h -5.046 v -1.37 z"
   id="path309"
   inkscape:connector-curvature="0"
   style="fill:#ffffff" />
<path
   d="m 310.81685,174.3246 c 1.34,0 2.303,1.005 2.303,2.407 0,1.623 -0.994,2.586 -2.638,2.586 -1.717,0 -2.68,-1.235 -2.68,-3.519 0,-2.722 1.256,-4.312 3.159,-4.312 0.743,0 1.413,0.178 1.957,0.576 l -0.573,1.024 c -0.481,-0.304 -0.9,-0.471 -1.395,-0.471 -0.932,0 -1.695,0.848 -1.779,2.303 0.484,-0.396 1.018,-0.594 1.646,-0.594 z m -0.293,3.851 c 0.73,0 1.267,-0.544 1.267,-1.329 0,-0.868 -0.521,-1.401 -1.275,-1.401 -0.648,0 -1.193,0.366 -1.384,0.932 0.052,1.16 0.575,1.798 1.392,1.798 z"
   id="path311"
   inkscape:connector-curvature="0"
   style="fill:#ffffff" />
<path
   d="m 316.79485,171.4876 c 1.79,0 2.731,1.329 2.731,3.915 0,2.585 -0.941,3.915 -2.731,3.915 -1.79,0 -2.73,-1.33 -2.73,-3.915 -0.002,-2.586 0.94,-3.915 2.73,-3.915 z m 0,6.657 c 0.9,0 1.371,-0.922 1.371,-2.742 0,-1.821 -0.471,-2.753 -1.371,-2.753 -0.89,0 -1.382,0.932 -1.382,2.753 0,1.82 0.493,2.742 1.382,2.742 z"
   id="path313"
   inkscape:connector-curvature="0"
   style="fill:#ffffff" />
<path
   d="m 326.67885,174.3246 c 1.34,0 2.303,1.005 2.303,2.407 0,1.623 -0.994,2.586 -2.64,2.586 -1.717,0 -2.68,-1.235 -2.68,-3.519 0,-2.722 1.256,-4.312 3.161,-4.312 0.743,0 1.413,0.178 1.957,0.576 l -0.575,1.024 c -0.479,-0.304 -0.898,-0.471 -1.393,-0.471 -0.934,0 -1.695,0.848 -1.779,2.303 0.484,-0.396 1.018,-0.594 1.646,-0.594 z m -0.293,3.851 c 0.73,0 1.267,-0.544 1.267,-1.329 0,-0.868 -0.523,-1.401 -1.277,-1.401 -0.646,0 -1.191,0.366 -1.382,0.932 0.052,1.16 0.576,1.798 1.392,1.798 z"
   id="path315"
   inkscape:connector-curvature="0" />
<circle
   cx="267.67999"
   cy="199.375"
   r="2.9319999"
   id="circle317"
   sodipodi:cx="267.67999"
   sodipodi:cy="199.375"
   sodipodi:rx="2.9319999"
   sodipodi:ry="2.9319999"
   style="fill:#ffffff"
   transform="translate(-1.4681454,-23.8504)" />
<line
   x1="353.90286"
   y1="61.222599"
   x2="353.90286"
   y2="92.822594"
   id="line319"
   style="fill:none;stroke:#000000;stroke-width:1.04700005" />
<circle
   cx="355.371"
   cy="85.071999"
   r="2.9319999"
   id="circle321"
   sodipodi:cx="355.371"
   sodipodi:cy="85.071999"
   sodipodi:rx="2.9319999"
   sodipodi:ry="2.9319999"
   style="fill:#ffffff"
   transform="translate(-1.4681454,-23.8504)" />
<rect
   x="339.23285"
   y="87.067596"
   width="32.442001"
   height="17.792"
   id="rect323"
   style="fill:#636467" />
<rect
   x="360.31985"
   y="87.067596"
   width="11.355"
   height="17.792"
   id="rect325"
   style="fill:#bcbec0" />
<path
   d="m 341.69485,97.2746 c 0.429,0.67 0.921,0.994 1.549,0.994 0.774,0 1.309,-0.514 1.309,-1.184 0,-0.827 -0.657,-1.234 -1.997,-1.234 -0.084,0 -0.168,0 -0.253,0 v -1.142 c 0.104,0.01 0.21,0.01 0.313,0.01 1.141,0 1.727,-0.387 1.727,-1.067 0,-0.544 -0.418,-0.933 -1.099,-0.933 -0.563,0 -1.047,0.251 -1.402,0.754 l -0.932,-0.732 c 0.513,-0.722 1.36,-1.13 2.407,-1.13 1.455,0 2.354,0.795 2.354,1.926 0,0.785 -0.377,1.351 -1.107,1.686 0.868,0.251 1.35,0.933 1.35,1.927 0,1.413 -0.981,2.292 -2.596,2.292 -1.246,0 -2.156,-0.502 -2.711,-1.497 l 1.088,-0.67 z"
   id="path327"
   inkscape:connector-curvature="0"
   style="fill:#ffffff" />
<path
   d="m 349.89185,91.6116 c 1.79,0 2.729,1.33 2.729,3.915 0,2.585 -0.939,3.915 -2.729,3.915 -1.79,0 -2.732,-1.329 -2.732,-3.915 0,-2.586 0.942,-3.915 2.732,-3.915 z m 0,6.657 c 0.898,0 1.371,-0.922 1.371,-2.742 0,-1.821 -0.473,-2.753 -1.371,-2.753 -0.892,0 -1.384,0.932 -1.384,2.753 0.002,1.821 0.494,2.742 1.384,2.742 z"
   id="path329"
   inkscape:connector-curvature="0"
   style="fill:#ffffff" />
<path
   d="m 356.23685,91.6116 c 1.79,0 2.729,1.33 2.729,3.915 0,2.585 -0.939,3.915 -2.729,3.915 -1.79,0 -2.732,-1.329 -2.732,-3.915 0,-2.586 0.942,-3.915 2.732,-3.915 z m 0,6.657 c 0.898,0 1.371,-0.922 1.371,-2.742 0,-1.821 -0.472,-2.753 -1.371,-2.753 -0.89,0 -1.382,0.932 -1.382,2.753 0,1.821 0.492,2.742 1.382,2.742 z"
   id="path331"
   inkscape:connector-curvature="0"
   style="fill:#ffffff" />
<path
   d="m 366.72985,92.9726 h -3.562 v -1.245 h 5.142 v 0.837 l -3.025,6.813 h -1.486 l 2.931,-6.405 z"
   id="path333"
   inkscape:connector-curvature="0" />
<polyline
   points="397.94,43.571 414.129,39.572 414.129,14.587 "
   id="polyline335"
   style="fill:none;stroke:#000000;stroke-width:1.04700005"
   transform="translate(-1.4681454,-23.8504)" />
<circle
   cx="397.94"
   cy="43.570999"
   r="2.9319999"
   id="circle337"
   sodipodi:cx="397.94"
   sodipodi:cy="43.570999"
   sodipodi:rx="2.9319999"
   sodipodi:ry="2.9319999"
   style="fill:#ffffff"
   transform="translate(-1.4681454,-23.8504)" />
<circle
   cx="414.129"
   cy="39.573002"
   r="10.172"
   id="circle339"
   sodipodi:cx="414.129"
   sodipodi:cy="39.573002"
   sodipodi:rx="10.172"
   sodipodi:ry="10.172"
   style="fill:#ffffff;stroke:#000000;stroke-width:1.04700005"
   transform="translate(-1.4681454,-23.8504)" />
<path
   d="m 413.76385,11.9056 h -4.628 v -1.62 h 6.684 v 1.089 l -3.934,8.86 h -1.935 l 3.813,-8.329 z"
   id="path341"
   inkscape:connector-curvature="0" />
<rect
   x="397.34286"
   y="-18.159399"
   width="32.444"
   height="17.792"
   id="rect343"
   style="fill:#636467" />
<rect
   x="418.43085"
   y="-18.159399"
   width="11.354"
   height="17.792"
   id="rect345"
   style="fill:#bcbec0" />
<path
   d="m 405.80585,-12.2564 h -3.562 v -1.246 h 5.141 v 0.837 l -3.024,6.8149999 h -1.486 l 2.931,-6.4059999 z"
   id="path347"
   inkscape:connector-curvature="0"
   style="fill:#ffffff" />
<path
   d="m 411.17685,-13.6174 c 1.79,0 2.731,1.33 2.731,3.9149999 0,2.585 -0.941,3.915 -2.731,3.915 -1.788,0 -2.73,-1.329 -2.73,-3.915 0,-2.5859999 0.94,-3.9149999 2.73,-3.9149999 z m 0,6.6569999 c 0.9,0 1.371,-0.921 1.371,-2.742 0,-1.8209999 -0.471,-2.7529999 -1.371,-2.7529999 -0.89,0 -1.382,0.932 -1.382,2.7529999 0,1.821 0.492,2.742 1.382,2.742 z"
   id="path349"
   inkscape:connector-curvature="0"
   style="fill:#ffffff" />
<path
   d="m 421.24985,-7.2844001 c 0.473,-0.774 1.193,-1.36 2.031,-2.01 1.025,-0.7959999 1.675,-1.2979999 1.675,-2.1459999 0,-0.629 -0.419,-1.016 -1.089,-1.016 -0.691,0 -1.193,0.46 -1.277,1.184 l -1.298,-0.241 c 0.251,-1.319 1.227,-2.104 2.627,-2.104 1.466,0 2.418,0.933 2.418,2.24 0,1.078 -0.67,1.8119999 -1.884,2.7109999 -0.91,0.68 -1.591,1.088 -1.821,1.549 h 3.664 v 1.204 h -5.046 v -1.371 z"
   id="path351"
   inkscape:connector-curvature="0" />
<line
   x1="124.98285"
   y1="89.221596"
   x2="124.98285"
   y2="73.452599"
   id="line353"
   style="fill:none;stroke:#000000;stroke-width:1.04700005" />
<circle
   cx="126.45"
   cy="113.073"
   r="2.931"
   id="circle355"
   sodipodi:cx="126.45"
   sodipodi:cy="113.073"
   sodipodi:rx="2.931"
   sodipodi:ry="2.931"
   style="fill:#ffffff"
   transform="translate(-1.4681454,-23.8504)" />
<rect
   x="108.88385"
   y="57.227604"
   width="32.444"
   height="17.792"
   id="rect357"
   style="fill:#636467" />
<rect
   x="129.97086"
   y="57.227604"
   width="11.356"
   height="17.792"
   id="rect359"
   style="fill:#bcbec0" />
<path
   d="m 111.34485,67.4336 c 0.429,0.67 0.921,0.993 1.549,0.993 0.774,0 1.309,-0.513 1.309,-1.183 0,-0.827 -0.66,-1.235 -2,-1.235 -0.083,0 -0.167,0 -0.251,0 v -1.141 c 0.105,0.011 0.209,0.011 0.314,0.011 1.141,0 1.727,-0.387 1.727,-1.067 0,-0.544 -0.419,-0.933 -1.099,-0.933 -0.565,0 -1.047,0.251 -1.403,0.754 l -0.932,-0.732 c 0.513,-0.723 1.361,-1.13 2.408,-1.13 1.455,0 2.355,0.795 2.355,1.926 0,0.785 -0.376,1.35 -1.109,1.685 0.869,0.251 1.35,0.933 1.35,1.927 0,1.413 -0.984,2.292 -2.596,2.292 -1.246,0 -2.156,-0.503 -2.711,-1.497 l 1.089,-0.67 z"
   id="path361"
   inkscape:connector-curvature="0"
   style="fill:#ffffff" />
<path
   d="m 117.75285,68.4066 h 1.183 v -5.213 c -0.471,0 -0.921,0.032 -1.319,0.084 v -0.891 c 0.691,-0.136 1.288,-0.335 1.779,-0.617 h 0.869 v 6.636 h 1.183 v 1.068 h -3.695 v -1.067 z"
   id="path363"
   inkscape:connector-curvature="0"
   style="fill:#ffffff" />
<path
   d="m 126.25485,64.6076 c 1.34,0 2.303,1.005 2.303,2.406 0,1.623 -0.994,2.586 -2.638,2.586 -1.717,0 -2.68,-1.235 -2.68,-3.518 0,-2.721 1.256,-4.312 3.161,-4.312 0.743,0 1.413,0.178 1.958,0.575 l -0.576,1.026 c -0.481,-0.304 -0.9,-0.471 -1.392,-0.471 -0.932,0 -1.696,0.848 -1.78,2.303 0.482,-0.397 1.016,-0.595 1.644,-0.595 z m -0.293,3.852 c 0.732,0 1.267,-0.544 1.267,-1.33 0,-0.869 -0.523,-1.402 -1.277,-1.402 -0.649,0 -1.193,0.366 -1.382,0.932 0.052,1.161 0.575,1.8 1.392,1.8 z"
   id="path365"
   inkscape:connector-curvature="0"
   style="fill:#ffffff" />
<rect
   x="41.800854"
   y="56.180599"
   width="32.445"
   height="17.792"
   id="rect367"
   style="fill:#636467" />
<rect
   x="62.887856"
   y="56.180599"
   width="11.357"
   height="17.792"
   id="rect369"
   style="fill:#bcbec0" />
<path
   d="m 46.807855,62.6066 c 0,-1.142 0.911,-1.885 2.47,-1.885 1.591,0 2.481,0.754 2.481,1.958 0,0.754 -0.387,1.341 -1.151,1.696 0.984,0.513 1.423,1.13 1.423,2.041 0,1.31 -1.005,2.135 -2.836,2.135 -1.707,0 -2.69,-0.815 -2.69,-2.104 0,-0.911 0.481,-1.561 1.476,-2.041 -0.817,-0.46 -1.173,-0.994 -1.173,-1.8 z m 1.078,3.789 c 0,0.606 0.513,1.035 1.34,1.035 0.921,0 1.455,-0.407 1.455,-1.046 0,-0.555 -0.492,-1.016 -1.476,-1.382 -0.869,0.294 -1.319,0.786 -1.319,1.393 z m 2.564,-3.737 c 0,-0.534 -0.418,-0.869 -1.13,-0.869 -0.754,0 -1.183,0.314 -1.183,0.816 0,0.586 0.408,0.994 1.193,1.183 0.764,-0.24 1.12,-0.585 1.12,-1.13 z"
   id="path371"
   inkscape:connector-curvature="0"
   style="fill:#ffffff" />
<path
   d="m 53.843855,67.3586 h 1.183 v -5.213 c -0.471,0 -0.921,0.031 -1.319,0.084 v -0.89 c 0.691,-0.136 1.288,-0.335 1.779,-0.618 h 0.869 v 6.637 h 1.183 v 1.067 h -3.695 v -1.067 z"
   id="path373"
   inkscape:connector-curvature="0"
   style="fill:#ffffff" />
<rect
   x="-0.25514537"
   y="261.4006"
   width="32.445"
   height="17.791"
   id="rect375"
   style="fill:#636467" />
<rect
   x="20.831854"
   y="261.4006"
   width="11.357"
   height="17.791"
   id="rect377"
   style="fill:#bcbec0" />
<path
   d="m 2.2068546,271.6036 c 0.429,0.67 0.921,0.993 1.549,0.993 0.774,0 1.309,-0.513 1.309,-1.183 0,-0.828 -0.66,-1.236 -2,-1.236 -0.084,0 -0.167,0 -0.251,0 v -1.141 c 0.104,0.01 0.209,0.01 0.314,0.01 1.141,0 1.727,-0.387 1.727,-1.065 0,-0.544 -0.419,-0.933 -1.099,-0.933 -0.565,0 -1.047,0.25 -1.403,0.754 l -0.932,-0.731 c 0.513,-0.724 1.361,-1.131 2.408,-1.131 1.455,0 2.355,0.796 2.355,1.926 0,0.785 -0.376,1.352 -1.109,1.686 0.869,0.252 1.35,0.934 1.35,1.928 0,1.413 -0.984,2.293 -2.596,2.293 -1.246,0 -2.156,-0.503 -2.711,-1.497 l 1.089,-0.673 z"
   id="path379"
   inkscape:connector-curvature="0"
   style="fill:#ffffff" />
<path
   d="m 10.404855,265.9406 c 1.79,0 2.732,1.329 2.732,3.915 0,2.585 -0.942,3.915 -2.732,3.915 -1.7900004,0 -2.7320004,-1.33 -2.7320004,-3.915 0,-2.586 0.942,-3.915 2.7320004,-3.915 z m 0,6.657 c 0.9,0 1.371,-0.921 1.371,-2.741 0,-1.821 -0.471,-2.753 -1.371,-2.753 -0.8900004,0 -1.3820004,0.932 -1.3820004,2.753 0,1.82 0.492,2.741 1.3820004,2.741 z"
   id="path381"
   inkscape:connector-curvature="0"
   style="fill:#ffffff" />
<path
   d="m 16.749855,265.9406 c 1.79,0 2.732,1.329 2.732,3.915 0,2.585 -0.942,3.915 -2.732,3.915 -1.79,0 -2.732,-1.33 -2.732,-3.915 0,-2.586 0.942,-3.915 2.732,-3.915 z m 0,6.657 c 0.9,0 1.371,-0.921 1.371,-2.741 0,-1.821 -0.471,-2.753 -1.371,-2.753 -0.89,0 -1.382,0.932 -1.382,2.753 0,1.82 0.492,2.741 1.382,2.741 z"
   id="path383"
   inkscape:connector-curvature="0"
   style="fill:#ffffff" />
<path
   d="m 26.635855,268.7776 c 1.34,0 2.303,1.005 2.303,2.407 0,1.622 -0.994,2.586 -2.638,2.586 -1.717,0 -2.68,-1.234 -2.68,-3.519 0,-2.723 1.256,-4.312 3.161,-4.312 0.743,0 1.413,0.178 1.958,0.575 l -0.576,1.025 c -0.481,-0.305 -0.9,-0.472 -1.392,-0.472 -0.932,0 -1.696,0.849 -1.78,2.304 0.482,-0.396 1.017,-0.594 1.644,-0.594 z m -0.292,3.851 c 0.732,0 1.267,-0.543 1.267,-1.328 0,-0.869 -0.523,-1.401 -1.277,-1.401 -0.649,0 -1.193,0.364 -1.382,0.932 0.052,1.159 0.575,1.797 1.392,1.797 z"
   id="path385"
   inkscape:connector-curvature="0" />
<rect
   x="77.922852"
   y="405.1926"
   width="32.445"
   height="17.791"
   id="rect387"
   style="fill:#636467" />
<rect
   x="99.010849"
   y="405.1926"
   width="11.356"
   height="17.791"
   id="rect389"
   style="fill:#bcbec0" />
<path
   d="m 80.448855,416.3726 h 1.183 v -5.213 c -0.471,0 -0.921,0.03 -1.319,0.084 v -0.892 c 0.691,-0.136 1.288,-0.335 1.779,-0.616 h 0.869 v 6.637 h 1.183 v 1.066 h -3.695 v -1.066 z"
   id="path391"
   inkscape:connector-curvature="0"
   style="fill:#ffffff" />
<path
   d="m 85.966855,416.0686 c 0.471,-0.773 1.193,-1.361 2.031,-2.011 1.026,-0.796 1.675,-1.298 1.675,-2.146 0,-0.629 -0.418,-1.017 -1.088,-1.017 -0.691,0 -1.193,0.46 -1.277,1.184 l -1.298,-0.24 c 0.251,-1.318 1.225,-2.104 2.627,-2.104 1.465,0 2.418,0.932 2.418,2.239 0,1.078 -0.67,1.812 -1.884,2.711 -0.911,0.682 -1.591,1.09 -1.821,1.55 h 3.664 v 1.203 h -5.045 v -1.369 l -0.002,0 0,0 z"
   id="path393"
   inkscape:connector-curvature="0"
   style="fill:#ffffff" />
<path
   d="m 92.447855,411.6196 c 0,-1.142 0.911,-1.884 2.47,-1.884 1.591,0 2.481,0.754 2.481,1.957 0,0.754 -0.387,1.34 -1.151,1.695 0.984,0.514 1.423,1.13 1.423,2.041 0,1.31 -1.005,2.136 -2.836,2.136 -1.707,0 -2.69,-0.815 -2.69,-2.104 0,-0.909 0.481,-1.56 1.476,-2.041 -0.817,-0.46 -1.173,-0.994 -1.173,-1.8 z m 1.078,3.79 c 0,0.605 0.513,1.036 1.34,1.036 0.921,0 1.455,-0.408 1.455,-1.048 0,-0.555 -0.492,-1.016 -1.476,-1.382 -0.869,0.293 -1.319,0.786 -1.319,1.394 z m 2.565,-3.738 c 0,-0.534 -0.418,-0.869 -1.13,-0.869 -0.754,0 -1.183,0.313 -1.183,0.815 0,0.587 0.409,0.995 1.193,1.185 0.764,-0.242 1.12,-0.587 1.12,-1.131 z"
   id="path395"
   inkscape:connector-curvature="0"
   style="fill:#ffffff" />
<path
   d="m 103.11492,415.48284 c 0.429,0.671 0.921,0.994 1.549,0.994 0.774,0 1.309,-0.514 1.309,-1.184 0,-0.826 -0.66,-1.234 -2,-1.234 -0.084,0 -0.167,0 -0.251,0 v -1.142 c 0.104,0.011 0.209,0.011 0.314,0.011 1.141,0 1.727,-0.388 1.727,-1.066 0,-0.545 -0.419,-0.933 -1.099,-0.933 -0.565,0 -1.047,0.251 -1.403,0.754 l -0.932,-0.731 c 0.513,-0.724 1.361,-1.131 2.408,-1.131 1.455,0 2.355,0.796 2.355,1.926 0,0.785 -0.376,1.352 -1.109,1.687 0.869,0.251 1.35,0.933 1.35,1.926 0,1.413 -0.984,2.294 -2.596,2.294 -1.246,0 -2.156,-0.504 -2.711,-1.497 l 1.089,-0.674 z"
   id="path397"
   inkscape:connector-curvature="0" />
<rect
   x="143.53786"
   y="344.46359"
   width="32.444"
   height="17.791"
   id="rect399"
   style="fill:#636467" />
<rect
   x="164.62486"
   y="344.46359"
   width="11.357"
   height="17.791"
   id="rect401"
   style="fill:#bcbec0" />
<path
   d="m 146.06285,355.6436 h 1.183 v -5.214 c -0.471,0 -0.921,0.031 -1.319,0.084 v -0.891 c 0.691,-0.137 1.288,-0.336 1.779,-0.617 h 0.869 v 6.638 h 1.183 v 1.065 h -3.695 v -1.065 z"
   id="path403"
   inkscape:connector-curvature="0"
   style="fill:#ffffff" />
<path
   d="m 152.40685,355.6436 h 1.183 v -5.214 c -0.471,0 -0.921,0.031 -1.319,0.084 v -0.891 c 0.691,-0.137 1.288,-0.336 1.779,-0.617 h 0.869 v 6.638 h 1.183 v 1.065 h -3.695 v -1.065 z"
   id="path405"
   inkscape:connector-curvature="0"
   style="fill:#ffffff" />
<path
   d="m 160.54285,349.0066 c 1.79,0 2.732,1.328 2.732,3.914 0,2.586 -0.942,3.916 -2.732,3.916 -1.79,0 -2.732,-1.33 -2.732,-3.916 -10e-4,-2.583 0.942,-3.914 2.732,-3.914 z m 0,6.659 c 0.9,0 1.371,-0.922 1.371,-2.742 0,-1.82 -0.471,-2.754 -1.371,-2.754 -0.89,0 -1.382,0.934 -1.382,2.754 0,1.82 0.492,2.742 1.382,2.742 z"
   id="path407"
   inkscape:connector-curvature="0"
   style="fill:#ffffff" />
<path
   d="m 168.20985,354.6706 c 0.429,0.67 0.921,0.994 1.549,0.994 0.774,0 1.309,-0.514 1.309,-1.184 0,-0.827 -0.66,-1.234 -2,-1.234 -0.084,0 -0.167,0 -0.251,0 v -1.142 c 0.104,0.01 0.209,0.01 0.314,0.01 1.141,0 1.727,-0.387 1.727,-1.067 0,-0.543 -0.419,-0.932 -1.099,-0.932 -0.565,0 -1.047,0.251 -1.403,0.754 l -0.932,-0.731 c 0.513,-0.724 1.361,-1.132 2.408,-1.132 1.455,0 2.355,0.797 2.355,1.928 0,0.783 -0.376,1.351 -1.109,1.687 0.869,0.25 1.35,0.932 1.35,1.926 0,1.412 -0.984,2.293 -2.596,2.293 -1.246,0 -2.156,-0.504 -2.711,-1.498 l 1.089,-0.672 z"
   id="path409"
   inkscape:connector-curvature="0" />
<rect
   x="97.46785"
   y="284.4346"
   width="32.444"
   height="17.791"
   id="rect411"
   style="fill:#636467" />
<rect
   x="118.55585"
   y="284.4346"
   width="11.356"
   height="17.791"
   id="rect413"
   style="fill:#bcbec0" />
<path
   d="m 99.164855,295.3076 c 0.471,-0.774 1.192995,-1.361 2.030995,-2.011 1.026,-0.797 1.675,-1.299 1.675,-2.146 0,-0.628 -0.418,-1.017 -1.088,-1.017 -0.691,0 -1.193,0.461 -1.277,1.185 l -1.297995,-0.24 c 0.251,-1.318 1.224995,-2.104 2.626995,-2.104 1.465,0 2.418,0.932 2.418,2.238 0,1.078 -0.67,1.812 -1.884,2.711 -0.911,0.683 -1.591,1.091 -1.821,1.551 h 3.664 v 1.203 h -5.044995 v -1.37 l -0.002,0 0,0 z"
   id="path415"
   inkscape:connector-curvature="0"
   style="fill:#ffffff" />
<path
   d="m 109.09985,290.3356 h -3.559 v -1.244 h 5.14 v 0.836 l -3.025,6.814 h -1.486 l 2.93,-6.406 z"
   id="path417"
   inkscape:connector-curvature="0"
   style="fill:#ffffff" />
<path
   d="m 113.00685,294.7956 c 0.283,0.556 0.743,0.849 1.34,0.849 0.764,0 1.351,-0.628 1.351,-1.603 0,-0.815 -0.513,-1.352 -1.277,-1.352 -0.502,0 -0.911,0.24 -1.151,0.682 l -1.078,-0.252 0.314,-4.029 h 4.062 v 1.213 h -3.046 l -0.084,1.697 c 0.293,-0.283 0.702,-0.431 1.288,-0.431 1.382,0 2.355,1.005 2.355,2.533 0,1.652 -1.036,2.699 -2.711,2.699 -1.183,0 -2.052,-0.502 -2.543,-1.435 l 1.18,-0.571 z"
   id="path419"
   inkscape:connector-curvature="0"
   style="fill:#ffffff" />
<path
   d="m 124.35985,291.8116 c 1.34,0 2.303,1.005 2.303,2.405 0,1.623 -0.994,2.586 -2.638,2.586 -1.717,0 -2.68,-1.233 -2.68,-3.518 0,-2.722 1.256,-4.312 3.161,-4.312 0.743,0 1.413,0.179 1.958,0.575 l -0.576,1.025 c -0.481,-0.304 -0.9,-0.471 -1.392,-0.471 -0.932,0 -1.696,0.848 -1.78,2.303 0.482,-0.396 1.016,-0.593 1.644,-0.593 z m -0.293,3.852 c 0.732,0 1.267,-0.543 1.267,-1.328 0,-0.869 -0.523,-1.401 -1.277,-1.401 -0.649,0 -1.193,0.364 -1.382,0.932 0.052,1.158 0.575,1.797 1.392,1.797 z"
   id="path421"
   inkscape:connector-curvature="0" />
<rect
   x="134.46286"
   y="254.42059"
   width="32.445"
   height="17.791"
   id="rect423"
   style="fill:#636467" />
<rect
   x="155.55086"
   y="254.42059"
   width="11.357"
   height="17.791"
   id="rect425"
   style="fill:#bcbec0" />
<path
   d="m 136.98785,265.5976 h 1.183 v -5.214 c -0.471,0 -0.921,0.031 -1.319,0.084 v -0.891 c 0.691,-0.136 1.288,-0.335 1.779,-0.617 h 0.869 v 6.637 h 1.183 v 1.068 h -3.695 v -1.067 z"
   id="path427"
   inkscape:connector-curvature="0"
   style="fill:#ffffff" />
<path
   d="m 143.33285,265.5976 h 1.183 v -5.214 c -0.471,0 -0.921,0.031 -1.319,0.084 v -0.891 c 0.691,-0.136 1.288,-0.335 1.779,-0.617 h 0.869 v 6.637 h 1.183 v 1.068 h -3.695 v -1.067 z"
   id="path429"
   inkscape:connector-curvature="0"
   style="fill:#ffffff" />
<path
   d="m 149.61485,264.6246 c 0.429,0.67 0.921,0.994 1.549,0.994 0.774,0 1.309,-0.513 1.309,-1.183 0,-0.827 -0.66,-1.235 -2,-1.235 -0.083,0 -0.167,0 -0.251,0 v -1.141 c 0.105,0.01 0.209,0.01 0.314,0.01 1.141,0 1.727,-0.387 1.727,-1.066 0,-0.545 -0.419,-0.933 -1.099,-0.933 -0.565,0 -1.047,0.251 -1.403,0.754 l -0.932,-0.731 c 0.513,-0.723 1.361,-1.131 2.408,-1.131 1.455,0 2.355,0.795 2.355,1.926 0,0.785 -0.376,1.352 -1.109,1.687 0.869,0.251 1.35,0.932 1.35,1.926 0,1.414 -0.984,2.293 -2.596,2.293 -1.246,0 -2.156,-0.502 -2.711,-1.496 l 1.089,-0.674 z"
   id="path431"
   inkscape:connector-curvature="0"
   style="fill:#ffffff" />
<path
   d="m 159.13585,264.6246 c 0.429,0.67 0.921,0.994 1.549,0.994 0.774,0 1.309,-0.513 1.309,-1.183 0,-0.827 -0.66,-1.235 -2,-1.235 -0.083,0 -0.167,0 -0.251,0 v -1.141 c 0.105,0.01 0.209,0.01 0.314,0.01 1.141,0 1.727,-0.387 1.727,-1.066 0,-0.545 -0.419,-0.933 -1.099,-0.933 -0.565,0 -1.047,0.251 -1.403,0.754 l -0.932,-0.731 c 0.513,-0.723 1.361,-1.131 2.408,-1.131 1.455,0 2.355,0.795 2.355,1.926 0,0.785 -0.376,1.352 -1.109,1.687 0.869,0.251 1.35,0.932 1.35,1.926 0,1.414 -0.984,2.293 -2.596,2.293 -1.246,0 -2.156,-0.502 -2.711,-1.496 l 1.089,-0.674 z"
   id="path433"
   inkscape:connector-curvature="0" />
<rect
   x="4.1078548"
   y="324.57059"
   width="32.444"
   height="17.791"
   id="rect435"
   style="fill:#636467" />
<rect
   x="25.194855"
   y="324.57059"
   width="11.357"
   height="17.791"
   id="rect437"
   style="fill:#bcbec0" />
<path
   d="m 6.5698546,334.7746 c 0.429,0.67 0.921,0.994 1.549,0.994 0.774,0 1.309,-0.515 1.309,-1.185 0,-0.826 -0.66,-1.233 -2,-1.233 -0.084,0 -0.167,0 -0.251,0 v -1.142 c 0.104,0.01 0.209,0.01 0.314,0.01 1.141,0 1.727,-0.387 1.727,-1.066 0,-0.544 -0.419,-0.934 -1.099,-0.934 -0.565,0 -1.047,0.252 -1.403,0.756 l -0.932,-0.732 c 0.513,-0.723 1.361,-1.131 2.408,-1.131 1.455,0 2.3550004,0.796 2.3550004,1.927 0,0.784 -0.376,1.352 -1.1090004,1.687 0.8690004,0.251 1.3500004,0.932 1.3500004,1.926 0,1.413 -0.9840004,2.293 -2.5960004,2.293 -1.246,0 -2.156,-0.503 -2.711,-1.497 l 1.089,-0.673 z"
   id="path439"
   inkscape:connector-curvature="0"
   style="fill:#ffffff" />
<path
   d="m 12.976855,335.7496 h 1.183 v -5.214 c -0.471,0 -0.921,0.031 -1.319,0.083 v -0.89 c 0.691,-0.137 1.288,-0.335 1.779,-0.617 h 0.869 v 6.638 h 1.183 v 1.066 h -3.695 v -1.066 z"
   id="path441"
   inkscape:connector-curvature="0"
   style="fill:#ffffff" />
<path
   d="m 18.494855,335.4446 c 0.471,-0.773 1.193,-1.361 2.031,-2.01 1.026,-0.797 1.675,-1.3 1.675,-2.146 0,-0.627 -0.418,-1.015 -1.088,-1.015 -0.691,0 -1.193,0.46 -1.277,1.183 l -1.298,-0.24 c 0.251,-1.317 1.225,-2.104 2.627,-2.104 1.465,0 2.418,0.933 2.418,2.24 0,1.076 -0.67,1.812 -1.884,2.711 -0.911,0.681 -1.591,1.089 -1.821,1.549 h 3.664 v 1.204 h -5.045 v -1.371 l -0.002,-0.001 0,0 z"
   id="path443"
   inkscape:connector-curvature="0"
   style="fill:#ffffff" />
<path
   d="m 31.605855,330.4716 h -3.559 v -1.244 h 5.14 v 0.837 l -3.025,6.813 h -1.486 l 2.93,-6.406 z"
   id="path445"
   inkscape:connector-curvature="0" />
<line
   x1="304.02585"
   y1="38.440601"
   x2="304.02585"
   y2="22.670599"
   id="line447"
   style="fill:none;stroke:#000000;stroke-width:1.04700005" />
<circle
   cx="305.49399"
   cy="62.291"
   r="2.9319999"
   id="circle449"
   sodipodi:cx="305.49399"
   sodipodi:cy="62.291"
   sodipodi:rx="2.9319999"
   sodipodi:ry="2.9319999"
   style="fill:#ffffff"
   transform="translate(-1.4681454,-23.8504)" />
<rect
   x="287.92685"
   y="6.4466009"
   width="32.444"
   height="17.791"
   id="rect451"
   style="fill:#636467" />
<rect
   x="309.01587"
   y="6.4466009"
   width="11.354"
   height="17.791"
   id="rect453"
   style="fill:#bcbec0" />
<path
   d="m 289.62785,17.3216 c 0.471,-0.775 1.192,-1.361 2.03,-2.01 1.024,-0.796 1.675,-1.299 1.675,-2.146 0,-0.628 -0.419,-1.015 -1.089,-1.015 -0.69,0 -1.192,0.46 -1.276,1.183 l -1.299,-0.241 c 0.252,-1.318 1.225,-2.104 2.627,-2.104 1.467,0 2.418,0.932 2.418,2.24 0,1.077 -0.67,1.811 -1.884,2.711 -0.909,0.68 -1.591,1.088 -1.821,1.549 h 3.664 v 1.204 h -5.045 v -1.371 l 0,0 z"
   id="path455"
   inkscape:connector-curvature="0"
   style="fill:#ffffff" />
<path
   d="m 298.95485,13.8256 c 1.341,0 2.304,1.005 2.304,2.407 0,1.623 -0.994,2.585 -2.639,2.585 -1.717,0 -2.68,-1.235 -2.68,-3.518 0,-2.722 1.256,-4.312 3.16,-4.312 0.744,0 1.414,0.178 1.957,0.576 l -0.574,1.025 c -0.48,-0.304 -0.9,-0.471 -1.393,-0.471 -0.934,0 -1.695,0.848 -1.779,2.303 0.482,-0.396 1.016,-0.595 1.644,-0.595 z m -0.293,3.852 c 0.731,0 1.267,-0.544 1.267,-1.33 0,-0.868 -0.521,-1.402 -1.275,-1.402 -0.646,0 -1.193,0.367 -1.382,0.932 0.051,1.161 0.574,1.8 1.39,1.8 z"
   id="path457"
   inkscape:connector-curvature="0"
   style="fill:#ffffff" />
<path
   d="m 304.93385,10.9886 c 1.79,0 2.729,1.33 2.729,3.915 0,2.585 -0.939,3.915 -2.729,3.915 -1.791,0 -2.732,-1.329 -2.732,-3.915 0,-2.586 0.941,-3.915 2.732,-3.915 z m 0,6.657 c 0.898,0 1.371,-0.921 1.371,-2.742 0,-1.821 -0.473,-2.753 -1.371,-2.753 -0.891,0 -1.383,0.932 -1.383,2.753 0,1.821 0.493,2.742 1.383,2.742 z"
   id="path459"
   inkscape:connector-curvature="0"
   style="fill:#ffffff" />
<path
   d="m 314.81885,13.8256 c 1.34,0 2.303,1.005 2.303,2.407 0,1.623 -0.994,2.585 -2.638,2.585 -1.717,0 -2.68,-1.235 -2.68,-3.518 0,-2.722 1.256,-4.312 3.159,-4.312 0.743,0 1.413,0.178 1.957,0.576 l -0.573,1.025 c -0.481,-0.304 -0.9,-0.471 -1.395,-0.471 -0.932,0 -1.695,0.848 -1.779,2.303 0.484,-0.396 1.018,-0.595 1.646,-0.595 z m -0.293,3.852 c 0.73,0 1.267,-0.544 1.267,-1.33 0,-0.868 -0.521,-1.402 -1.275,-1.402 -0.648,0 -1.193,0.367 -1.384,0.932 0.052,1.161 0.575,1.8 1.392,1.8 z"
   id="path461"
   inkscape:connector-curvature="0" />

<path
   d="m 375.36292,64.7635 c 0.367,0.722 0.966,1.103 1.742,1.103 0.993,0 1.756,-0.815 1.756,-2.082 0,-1.062 -0.667,-1.756 -1.661,-1.756 -0.653,0 -1.184,0.313 -1.497,0.885 l -1.399,-0.326 0.406,-5.24 h 5.281 v 1.579 h -3.961 l -0.108,2.205 c 0.383,-0.368 0.911,-0.559 1.676,-0.559 1.796,0 3.062,1.308 3.062,3.294 0,2.15 -1.348,3.512 -3.523,3.512 -1.538,0 -2.668,-0.653 -3.31,-1.864 l 1.536,-0.751 z"
   id="path465"
   inkscape:connector-curvature="0" />
<path
   d="m 66.060855,67.0186 c 0.472,-0.775 1.193,-1.361 2.031,-2.011 1.025,-0.796 1.675,-1.298 1.675,-2.146 0,-0.628 -0.419,-1.016 -1.089,-1.016 -0.691,0 -1.193,0.461 -1.277,1.184 l -1.298,-0.241 c 0.251,-1.319 1.226,-2.104 2.627,-2.104 1.466,0 2.418,0.932 2.418,2.239 0,1.078 -0.67,1.812 -1.884,2.711 -0.91,0.681 -1.591,1.089 -1.821,1.55 h 3.664 v 1.203 h -5.046 v -1.369 z"
   id="path467"
   inkscape:connector-curvature="0" />
<path
   inkscape:connector-curvature="0"
   d="m 136.85286,63.016712 h -3.559 v -1.244 h 5.14 v 0.837 l -3.025,6.813 h -1.486 l 2.93,-6.406 z"
   id="path445-1" /></svg>