<?xml version="1.0" encoding="UTF-8" standalone="no"?>
<svg xmlns:svg="http://www.w3.org/2000/svg" xmlns="http://www.w3.org/2000/svg" width="1494.5" height="729.5">
  <g id="numbers">
    <g>
      <path
         d="M 156.5,301 C 156.5,310.7 151.5,319.5 143,324.5 C 134.8,329.2 124.5,329.2 116.2,324.5 C 107.9,319.5 102.8,310.7 102.8,301 C 102.8,291.5 107.9,282.7 116.2,277.9 C 124.5,273 134.8,273 143,277.9 C 151.5,282.7 156.5,291.5 156.5,301 z "
         style="fill:none;stroke:black;stroke-width:2" />
      <text x="130" y="319.7" style="font-size:56px;text-align:center;text-anchor:middle;fill:black;font-family:Times New Roman">1</text>
    </g>
    <g>
      <path
         d="M 64.5,500 C 64.5,509.5 59.3,518.5 51,523.2 C 42.7,528 32.5,528 24,523.2 C 15.8,518.5 10.7,509.5 10.7,500 C 10.7,490.5 15.8,481.5 24,476.7 C 32.5,471.9 42.7,471.9 51,476.7 C 59.3,481.5 64.5,490.5 64.5,500 z "
         style="fill:none;stroke:black;stroke-width:2" />
      <text x="37.7" y="518.5" style="font-size:56px;text-align:center;text-anchor:middle;fill:black;font-family:Times New Roman">2</text>
    </g>
    <g>
      <path
         d="M 196.5,155.5 C 196.5,165.2 191.3,174 183,178.9 C 174.7,183.7 164.5,183.7 156.2,178.9 C 147.9,174 142.8,165.2 142.8,155.5 C 142.8,146 147.9,137 156.2,132.3 C 164.5,127.5 174.7,127.5 183,132.3 C 191.3,137 196.5,146 196.5,155.5 z "
         style="fill:none;stroke:black;stroke-width:2" />
      <text x="169.7" y="174.2" style="font-size:56px;text-align:center;text-anchor:middle;fill:black;font-family:Times New Roman">3</text>
    </g>
    <g>
      <path
         d="M 256.5,253 C 256.5,262.7 251.5,271.5 243.2,276.5 C 234.9,281.2 224.7,281.2 216.5,276.5 C 208,271.5 203,262.7 203,253 C 203,243.5 208,234.5 216.5,229.8 C 224.7,225 234.9,225 243.2,229.8 C 251.5,234.5 256.5,243.5 256.5,253 z "
         style="fill:none;stroke:black;stroke-width:2" />
      <text x="229.9" y="271.7" style="font-size:56px;text-align:center;text-anchor:middle;fill:black;font-family:Times New Roman">4</text>
    </g>
    <g>
      <path
         d="M 403.2,164 C 403.2,173.5 398,182.5 389.8,187.2 C 381.5,192 371.3,192 363,187.2 C 354.7,182.5 349.5,173.5 349.5,164 C 349.5,154.5 354.7,145.5 363,140.7 C 371.3,135.9 381.5,135.9 389.8,140.7 C 398,145.5 403.2,154.5 403.2,164 z "
         style="fill:none;stroke:black;stroke-width:2" />
      <text x="376.5" y="182.5" style="font-size:56px;text-align:center;text-anchor:middle;fill:black;font-family:Times New Roman">5</text>
    </g>
    <g>
      <path
         d="M 580.5,178 C 580.5,187.5 575.3,196.5 567,201.2 C 558.7,206 548.5,206 540.2,201.2 C 531.9,196.5 526.8,187.5 526.8,178 C 526.8,168.5 531.9,159.5 540.2,154.7 C 548.5,149.9 558.7,149.9 567,154.7 C 575.3,159.5 580.5,168.5 580.5,178 z "
         style="fill:none;stroke:black;stroke-width:2" />
      <text x="553.7" y="196.5" style="font-size:56px;text-align:center;text-anchor:middle;fill:black;font-family:Times New Roman">6</text>
    </g>
    <g>
      <path
         d="M 576.8,27.7 C 576.8,37.3 571.7,46.2 563.5,51 C 555,55.8 544.9,55.8 536.5,51 C 528.3,46.2 523,37.3 523.2,27.7 C 523,18.2 528.3,9.3 536.5,4.5 C 544.9,-0.2 555,-0.2 563.5,4.5 C 571.7,9.3 576.8,18.2 576.8,27.7 z "
         style="fill:none;stroke:black;stroke-width:2" />
      <text x="550" y="46.3" style="font-size:56px;text-align:center;text-anchor:middle;fill:black;font-family:Times New Roman">7</text>
    </g>
    <g>
      <path
         d="M 1066,179.8 C 1066,189.3 1061,198.2 1052.7,203 C 1044.5,207.8 1034.2,207.8 1025.9,203 C 1017.5,198.2 1012.5,189.3 1012.5,179.8 C 1012.5,170.2 1017.5,161.3 1025.9,156.5 C 1034.2,151.7 1044.5,151.7 1052.7,156.5 C 1061,161.3 1066,170.2 1066,179.8 z "
         style="fill:none;stroke:black;stroke-width:2" />
      <text x="1039.5" y="198.5" style="font-size:56px;text-align:center;text-anchor:middle;fill:black;font-family:Times New Roman">8</text>
    </g>
    <g>
      <path
         d="M 981.5,258 C 981.7,267.5 976.5,276.5 968.2,281.3 C 959.9,286 949.7,286 941.5,281.3 C 933,276.5 928,267.5 928,258 C 928,248.5 933,239.5 941.5,234.8 C 949.7,230 959.9,230 968.2,234.8 C 976.5,239.5 981.7,248.5 981.5,258 z "
         style="fill:none;stroke:black;stroke-width:2" />
      <text x="955" y="276.5" style="font-size:56px;text-align:center;text-anchor:middle;fill:black;font-family:Times New Roman">9</text>
    </g>
    <g>
      <path
         d="M 1493.5,377.8 C 1493.5,388.5 1487.7,398.5 1478.3,404 C 1468.9,409.5 1457.5,409.5 1448,404 C 1438.7,398.5 1433,388.5 1433,377.8 C 1433,367 1438.7,357 1448,351.5 C 1457.5,346.2 1468.9,346.2 1478.3,351.5 C 1487.7,357 1493.5,367 1493.5,377.8 z "
         style="fill:none;stroke:black;stroke-width:2" />
      <text x="1463.3" y="396.5" style="font-size:56px;text-align:center;text-anchor:middle;fill:black;font-family:Times New Roman">10</text>
    </g>
    <g>
      <path
         d="M 1084.3,488.5 C 1084.5,499.3 1078.5,509.3 1069.2,514.7 C 1059.9,520 1048.5,520 1039,514.7 C 1029.7,509.3 1023.9,499.3 1023.9,488.5 C 1023.9,477.7 1029.7,467.7 1039,462.3 C 1048.5,456.9 1059.9,456.9 1069.2,462.3 C 1078.5,467.7 1084.5,477.7 1084.3,488.5 z "
         style="fill:none;stroke:black;stroke-width:2" />
      <text x="1054.3" y="507" style="font-size:56px;text-align:center;text-anchor:middle;fill:black;font-family:Times New Roman">11</text>
    </g>
    <g>
      <path
         d="M 572.7,485.2 C 572.7,496 567,506 557.5,511.5 C 548.3,516.8 536.7,516.8 527.5,511.5 C 518,506 512.3,496 512.3,485.2 C 512.3,474.5 518,464.5 527.5,459 C 536.7,453.5 548.3,453.5 557.5,459 C 567,464.5 572.7,474.5 572.7,485.2 z "
         style="fill:none;stroke:black;stroke-width:2" />
      <text x="542.5" y="503.8" style="font-size:56px;text-align:center;text-anchor:middle;fill:black;font-family:Times New Roman">12</text>
    </g>
    <g>
 	  <path
	     d="M 602.5,368.9 C 602.5,379.7 596.7,389.7 587.3,395 C 578,400.5 566.5,400.5 557,395 C 547.8,389.7 542,379.7 542,368.9 C 542,358 547.8,348 557,342.7 C 566.5,337.3 578,337.3 587.3,342.7 C 596.7,348 602.5,358 602.5,368.9 z "
	     style="fill:none;stroke:black;stroke-width:2" />
	  <text x="572.5" y="387.5" style="font-size:56px;text-align:center;text-anchor:middle;fill:black;font-family:Times New Roman">13</text>
    </g>
  </g>
  <g id="track">
    <path
	   d="M 574.8,438.8 C 567.5,438.3 556.9,436.8 550.5,437 C 536.3,437.5 521.8,439 507.8,438 C 504.2,437.7 501.2,434.5 497.8,432.8 C 489,428.9 480.2,424.2 471,421.5 C 465.9,419.9 460.5,420 455,420 C 396.5,420.5 338,422.5 279.5,423.5 C 258,423.7 236.2,424.2 214.5,423.2 C 194.5,422.3 174.5,419 154.5,417.9 C 127.5,416.5 100.3,416.5 73,415.9 C 61.5,415.5 49.7,416 39.2,418.5"
       style="fill:none;stroke:black;stroke-width:5" />
    <path
       d="M 384,409.9 C 349,410.7 313.9,410.9 278.8,411 C 259.7,411 240.5,412 221.3,410.7 C 206.5,409.7 191.8,407.8 177.5,404 C 154.7,398 132.5,389.2 110,381.5 C 100.9,378.5 92,373.9 82.9,371.9 C 79,371 74.2,371 70.8,373 C 65.5,376.3 60.5,381.9 56.8,387.5 C 52.9,393.5 52,402.5 47.8,407.5 C 44.8,411.3 39,414 34.7,414 C 30.5,413.9 25.3,410.7 21.8,407.5 C 18.3,404.2 15.3,399.3 13.7,394.5 C 12.2,390 11.5,384.5 12.2,379.7 C 13.3,372 15.8,364.3 18.9,357.2 C 27.5,337.9 41.2,332.5 51.5,314.3 C 54.8,308 59.3,302.7 63.9,297.5 C 74.3,285.9 84.7,274.2 96.2,264 C 121.2,242 147,220.5 173.5,201.5 C 175.9,199.5 179.9,199.5 182.7,200.5 C 191.2,204 198.7,212.9 207.3,215.5 C 212.8,217.2 219.8,216.3 225.3,213.7 C 249.5,202 273.8,188.5 296,173 C 309.2,163.7 318.8,148.9 331.5,138.9 C 338.9,133 347.5,128.5 356.5,125.5 C 366.9,121.9 378.5,118.5 389.5,119.5 C 416.5,121.8 443.5,129.8 470.5,135.5 C 482.9,138.2 507.5,143.3 519.8,144.7 C 524.3,145.2 529.3,143.7 533.2,141.5 C 537,139 540.9,135 542.8,130.9 C 544.7,126.5 544.5,120.7 544.5,115.5 C 544.5,110.5 545.7,104.9 547,100.2 C 549.2,92.3 553.8,83.7 559.3,77.8 C 564.5,72.3 572,68.2 579.3,66 C 590.8,62.5 590.8,61.3 602.8,60.8 C 612.7,60.5 618.5,61.8 628.5,63 C 665,67.9 701.8,72.5 738,78.9 C 755.2,82 771.9,87.5 788.7,92 C 802.5,95.5 816.5,98.3 830,103.2 C 852,111 873.9,119.8 895,130.2 C 918.7,141.7 941.2,156 964.3,168.8 C 972.5,173.5 981.5,177.2 989.2,182.5 C 992.5,184.7 996.8,187.5 998,191.2 C 999.5,195 997.2,200.2 997,204.7 C 996.7,210.5 995.7,216.5 996.5,222 C 997.5,227 999.5,232.5 1002.5,236.3 C 1007.3,242.5 1013.8,247.9 1020.3,252.3 C 1036.5,263.5 1053.2,274 1070.5,283 C 1103.3,300 1136.9,315.8 1170.8,330.3 C 1193,339.7 1215.9,347.8 1238.9,354.9 C 1250,358.2 1261.5,359.7 1273,361.5 C 1288,363.7 1303.3,366 1318.5,366.8 C 1336.7,367.7 1354.9,366.8 1373,366.3 C 1384.5,366 1396,364.5 1407.5,364.5 C 1410.7,364.5 1415,364 1416.8,366.2 C 1418.9,368.8 1418.9,374.5 1419,378.5 C 1419.2,381 1419,384.3 1417.7,386 C 1415.3,389.2 1411.5,392.3 1407.9,393.2 C 1399.3,395.3 1389.8,395.8 1380.9,395.2 C 1375,394.9 1369.5,391.2 1363.5,390.5 C 1352.9,388.9 1342,387.9 1331.5,388.5 C 1324.8,388.7 1318.3,391.2 1311.8,392.9 C 1293.2,398 1274.9,404.7 1256.2,409 C 1220.5,417.2 1182.8,420.2 1146.8,426.8 C 1123.2,431 1099.5,434.8 1075.7,438 C 1064.5,439.5 1053,440.8 1041.7,441 C 998.5,442 954.2,439.5 910.9,440 C 833.5,440.9 755.5,440.8 678,441 C 641.9,441.3 604.5,435.7 568.9,433.3 C 565.7,433 563,429.5 561.5,426.5 C 558.9,422.2 559,415.5 556.5,411.5 C 554.8,408.8 551.5,406.5 548.5,406 C 541,404.7 532.7,405.5 524.7,405.7 C 502,405.9 479.5,406.3 456.9,407 C 432.5,407.7 408.3,409.5 384,409.9 L 384,409.9 z "
       style="fill:none;stroke:black;stroke-width:15" />
    <path
       d="M 1373,366.3 C 1384.5,366 1396,364.5 1407.5,364.5 C 1410.7,364.5 1415,364 1416.8,366.2 C 1418.9,368.8 1418.9,374.5 1419,378.5 C 1419.2,381 1419,384.3 1417.7,386 C 1415.3,389.2 1411.5,392.3 1407.9,393.2 C 1399.3,395.3 1389.8,395.8 1380.9,395.2 C 1375,394.9 1369.5,391.2 1363.5,390.5 C 1352.9,388.9 1342,387.9 1331.5,388.5 C 1324.8,388.7 1318.3,391.2 1311.8,392.9 C 1293.2,398 1274.9,404.7 1256.2,409 C 1220.5,417.2 1182.8,420.2 1146.8,426.8 C 1123.2,431 1099.5,434.8 1075.7,438 C 1064.5,439.5 1053,440.8 1041.7,441 C 998.5,442 954.2,439.5 910.9,440 C 833.5,440.9 755.5,440.8 678,441 C 641.9,441.3 604.5,435.7 568.9,433.3 C 565.7,433 563,429.5 561.5,426.5 C 558.9,422.2 559,415.5 556.5,411.5 C 554.8,408.8 551.5,406.5 548.5,406 C 541,404.7 532.7,405.5 524.7,405.7 C 502,405.9 479.5,406.3 456.9,407 C 432.5,407.7 408.3,409.5 384,409.9 C 349,410.7 313.9,410.9 278.8,411"
       style="fill:none;stroke:aqua;stroke-width:5;stroke-linecap:round;stroke-dasharray:5, 10;stroke-dashoffset:0" />
    <path
       d="M 356.5,125.5 C 366.9,121.9 378.5,118.5 389.5,119.5 C 416.5,121.8 443.5,129.8 470.5,135.5 C 482.9,138.2 507.5,143.3 519.8,144.7 C 524.3,145.2 529.3,143.7 533.2,141.5 C 537,139 540.9,135 542.8,130.9 C 544.7,126.5 544.5,120.7 544.5,115.5 C 544.5,110.5 545.7,104.9 547,100.2 C 549.2,92.3 553.8,83.7 559.3,77.8 C 564.5,72.3 572,68.2 579.3,66 C 590.8,62.5 590.8,61.3 602.8,60.8 C 612.7,60.5 618.5,61.8 628.5,63 C 665,67.9 701.8,72.5 738,78.9 C 755.2,82 771.9,87.5 788.7,92 C 802.5,95.5 816.5,98.3 830,103.2 C 852,111 873.9,119.8 895,130.2 C 918.7,141.7 941.2,156 964.3,168.8 C 972.5,173.5 981.5,177.2 989.2,182.5 C 992.5,184.7 996.8,187.5 998,191.2 C 999.5,195 997.2,200.2 997,204.7 C 996.7,210.5 995.7,216.5 996.5,222 C 997.5,227 999.5,232.5 1002.5,236.3 C 1007.3,242.5 1013.8,247.9 1020.3,252.3 C 1036.5,263.5 1053.2,274 1070.5,283 C 1103.3,300 1136.9,315.8 1170.8,330.3 C 1193,339.7 1215.9,347.8 1238.9,354.9 C 1250,358.2 1261.5,359.7 1273,361.5 C 1288,363.7 1303.3,366 1318.5,366.8 C 1336.7,367.7 1354.9,366.8 1373,366.3"
       style="fill:none;stroke:red;stroke-width:5;stroke-linecap:round;stroke-dasharray:5, 10;stroke-dashoffset:0" />
    <path
       d="M 278.8,411 C 259.7,411 240.5,412 221.3,410.7 C 206.5,409.7 191.8,407.8 177.5,404 C 154.7,398 132.5,389.2 110,381.5 C 100.9,378.5 92,373.9 82.9,371.9 C 79,371 74.2,371 70.8,373 C 65.5,376.3 60.5,381.9 56.8,387.5 C 52.9,393.5 52,402.5 47.8,407.5 C 44.8,411.3 39,414 34.7,414 C 30.5,413.9 25.3,410.7 21.8,407.5 C 18.3,404.2 15.3,399.3 13.7,394.5 C 12.2,390 11.5,384.5 12.2,379.7 C 13.3,372 15.8,364.3 18.9,357.2 C 27.5,337.9 41.2,332.5 51.5,314.3 C 54.8,308 59.3,302.7 63.9,297.5 C 74.3,285.9 84.7,274.2 96.2,264 C 121.2,242 147,220.5 173.5,201.5 C 175.9,199.5 179.9,199.5 182.7,200.5 C 191.2,204 198.7,212.9 207.3,215.5 C 212.8,217.2 219.8,216.3 225.3,213.7 C 249.5,202 273.8,188.5 296,173 C 309.2,163.7 318.8,148.9 331.5,138.9 C 338.9,133 347.5,128.5 356.5,125.5"
       style="fill:none;stroke:yellow;stroke-width:5;stroke-linecap:round;stroke-dasharray:5, 10;stroke-dashoffset:0" />
  </g>
  <g id="labels">
    <path d="M 78.9,362 L 103.7,319.5 L 116.5,332.5 L 78.9,362 z " style="fill:black" />
    <path d="M 36.5,421.5 L 47.3,469.5 L 29,468.8 L 36.5,421.5 z " style="fill:black" />
    <text x="96.3" y="552.5" style="font-size:28px;text-align:end;text-anchor:end;color:black;font-family:Times New Roman">
      <tspan x="96.3" y="552.5">Virage</tspan>
      <tspan x="96.3" y="584.5">Senna</tspan>
    </text>
    <text x="1334.2" y="193.3" style="font-size:28px;text-align:center;text-anchor:middle;color:black;font-family:Times New Roman">
      <tspan x="1334.2" y="193.3">L'Epingle</tspan>
    </text>
    <path
       d="M 1358,207.8 C 1356.7,224.5 1366,238 1376,252.8 C 1385.9,266.9 1396.3,282 1400,302.5 L 1392,303.2 L 1409.5,349 L 1410,301.5 L 1404,302 C 1400.2,280.5 1389.2,264.7 1379.5,250.5 C 1369.3,235.8 1360.8,223.2 1361.9,208 L 1358,207.8 z "
       style="fill:black" />
    <text x="524.5" y="263.8" style="font-size:32px;text-align:center;text-anchor:middle;color:black;font-family:Times New Roman">
      <tspan x="524.5" y="263.8" style="font-size:28px">Wall of Champions</tspan>
      <tspan x="524.5" y="291.8" style="font-size:28px">AKA Quebec Wall</tspan>
    </text>
    <path
       d="M 503.9,304.9 C 503.5,320.9 507.5,329.5 511.5,336.8 C 515.3,343.8 519.3,349.3 520.2,359.5 L 513,359.8 L 527.5,396.3 L 531.3,359.2 L 524.2,359.5 C 523.2,348.5 519,342.5 515,335.5 C 511.2,328.5 507.5,320.5 507.9,305 L 503.9,304.9 z "
       style="fill:black;stroke-width:0.8" />
    <path d="M 462.5,640 L 363,636.2 L 387.7,620.5 L 372,594.3 L 462.5,640 z " style="fill:red;fill-opacity:1;fill-rule:nonzero" />
    <text x="260" y="643.2" style="font-size:120px;fill:black;font-family:Times New Roman">N</text>
    <text x="872.7" y="489.2" style="font-size:28px;text-align:center;text-anchor:middle;font-family:Times New Roman">
      <tspan x="872.7" y="489.2">Casino Straight</tspan>
      <tspan x="872.7" y="524.2">AKA Droit du Casino</tspan>
    </text>
    <g id="finish">
      <rect width="20" height="51.2" x="273.5" y="387" style="fill:black;stroke:white;stroke-width:3.5" />
      <rect width="5.2" height="5.2" x="275.8" y="389.5" style="fill:white" />
      <rect width="5.2" height="5.2" x="281" y="394.5" style="fill:white" />
      <rect width="5.2" height="5.2" x="286.2" y="389.5" style="fill:white" />
      <rect width="5.2" height="5.2" x="275.8" y="399.8" style="fill:white" />
      <rect width="5.2" height="5.2" x="281" y="405" style="fill:white" />
      <rect width="5.2" height="5.2" x="286.2" y="399.8" style="fill:white" />
      <rect width="5.2" height="5.2" x="275.8" y="410.2" style="fill:white" />
      <rect width="5.2" height="5.2" x="281" y="415.5" style="fill:white" />
      <rect width="5.2" height="5.2" x="286.2" y="410.2" style="fill:white" />
      <rect width="5.2" height="5.2" x="275.8" y="420.5" style="fill:white" />
      <rect width="5.2" height="5.2" x="281" y="425.8" style="fill:white" />
      <rect width="5.2" height="5.2" x="286.2" y="420.5" style="fill:white" />
      <rect width="5.2" height="5.2" x="275.8" y="431" style="fill:white" />
      <rect width="5.2" height="5.2" x="286.2" y="431" style="fill:white" />
    </g>
    <path d="M 301.3,364.2 L 301.2,380.3 L 263.2,371.7 L 301.3,364.2 L 301.3,364.2 z" style="fill:red" />
  </g>
</svg>