<?xml version="1.0" encoding="UTF-8" standalone="no"?>
<!-- Created with Inkscape (http://www.inkscape.org/) -->
<svg
   xmlns:dc="http://purl.org/dc/elements/1.1/"
   xmlns:cc="http://creativecommons.org/ns#"
   xmlns:rdf="http://www.w3.org/1999/02/22-rdf-syntax-ns#"
   xmlns:svg="http://www.w3.org/2000/svg"
   xmlns="http://www.w3.org/2000/svg"
   xmlns:sodipodi="http://sodipodi.sourceforge.net/DTD/sodipodi-0.dtd"
   xmlns:inkscape="http://www.inkscape.org/namespaces/inkscape"
   width="1164.1605"
   height="932.88116"
   id="svg2383"
   sodipodi:version="0.32"
   inkscape:version="0.46"
   version="1.0"
   sodipodi:docname="Jerez.svg"
   inkscape:output_extension="org.inkscape.output.svg.inkscape"
   inkscape:export-filename="D:\Images\Race Tracks\Jerez.png"
   inkscape:export-xdpi="90"
   inkscape:export-ydpi="90">
  <defs
     id="defs2385">
    <inkscape:perspective
       sodipodi:type="inkscape:persp3d"
       inkscape:vp_x="0 : 526.18109 : 1"
       inkscape:vp_y="0 : 1000 : 0"
       inkscape:vp_z="744.09448 : 526.18109 : 1"
       inkscape:persp3d-origin="372.04724 : 350.78739 : 1"
       id="perspective2391" />
    <inkscape:perspective
       id="perspective2400"
       inkscape:persp3d-origin="372.04724 : 350.78739 : 1"
       inkscape:vp_z="744.09448 : 526.18109 : 1"
       inkscape:vp_y="0 : 1000 : 0"
       inkscape:vp_x="0 : 526.18109 : 1"
       sodipodi:type="inkscape:persp3d" />
    <inkscape:perspective
       id="perspective3189"
       inkscape:persp3d-origin="372.04724 : 350.78739 : 1"
       inkscape:vp_z="744.09448 : 526.18109 : 1"
       inkscape:vp_y="0 : 1000 : 0"
       inkscape:vp_x="0 : 526.18109 : 1"
       sodipodi:type="inkscape:persp3d" />
  </defs>
  <sodipodi:namedview
     id="base"
     pagecolor="#ffffff"
     bordercolor="#ffffff"
     borderopacity="0.0"
     inkscape:pageopacity="0.0"
     inkscape:pageshadow="0"
     inkscape:zoom="0.88435701"
     inkscape:cx="567.38032"
     inkscape:cy="466.44058"
     inkscape:document-units="px"
     inkscape:current-layer="layer1"
     showgrid="false"
     inkscape:window-width="1677"
     inkscape:window-height="1031"
     inkscape:window-x="1276"
     inkscape:window-y="-4" />
  <metadata
     id="metadata2388">
    <rdf:RDF>
      <cc:Work
         rdf:about="">
        <dc:format>image/svg+xml</dc:format>
        <dc:type
           rdf:resource="http://purl.org/dc/dcmitype/StillImage" />
        <dc:title>Track map for Circuit Jerez in Spain</dc:title>
        <dc:date>7-18-2008</dc:date>
        <dc:creator>
          <cc:Agent>
            <dc:title>Will Pittenger</dc:title>
          </cc:Agent>
        </dc:creator>
        <dc:publisher>
          <cc:Agent>
            <dc:title>Will Pittenger</dc:title>
          </cc:Agent>
        </dc:publisher>
        <dc:subject>
          <rdf:Bag>
            <rdf:li>Jerez</rdf:li>
            <rdf:li>racing</rdf:li>
            <rdf:li>road course</rdf:li>
            <rdf:li>Formula 1</rdf:li>
            <rdf:li>Curva Expo '92</rdf:li>
            <rdf:li>Curva Michelin</rdf:li>
            <rdf:li>Curva Sito Pons</rdf:li>
            <rdf:li>Curva Dry Sac</rdf:li>
            <rdf:li>Curva Angel Nieto</rdf:li>
            <rdf:li>Curva Peluqui</rdf:li>
            <rdf:li>Curva Alex Criville</rdf:li>
            <rdf:li>Chicane Ayrton Senna</rdf:li>
            <rdf:li>Curva Ducados</rdf:li>
          </rdf:Bag>
        </dc:subject>
        <dc:description>Created in Inkscape with data from Google Earth</dc:description>
        <cc:license
           rdf:resource="http://creativecommons.org/licenses/publicdomain/" />
      </cc:Work>
      <cc:License
         rdf:about="http://creativecommons.org/licenses/publicdomain/">
        <cc:permits
           rdf:resource="http://creativecommons.org/ns#Reproduction" />
        <cc:permits
           rdf:resource="http://creativecommons.org/ns#Distribution" />
        <cc:permits
           rdf:resource="http://creativecommons.org/ns#DerivativeWorks" />
      </cc:License>
    </rdf:RDF>
  </metadata>
  <g
     inkscape:label="Layer 1"
     inkscape:groupmode="layer"
     id="layer1"
     transform="translate(-961.51251,-695.04145)">
    <path
       sodipodi:nodetypes="csssssssssssss"
       id="path3199"
       d="M 1576.3586,1077.4858 C 1576.9568,1060.1385 1576.6957,1042.5982 1574.5641,1025.444 C 1572.5084,1008.9006 1568.4064,991.89921 1563.3482,976.39309 C 1562.3248,973.25588 1558.7554,971.05927 1555.8709,969.514 C 1553.1724,968.06836 1549.4603,966.90943 1546.5991,967.42036 C 1543.8773,967.9064 1541.1211,970.27712 1539.1218,972.50491 C 1530.6529,981.94166 1520.0187,990.6419 1515.1945,1002.414 C 1460.0012,1137.0968 1409.5878,1274.886 1359.0691,1411.8695 C 1352.5612,1429.516 1349.6828,1448.3376 1344.1145,1466.304 C 1336.9216,1489.5125 1329.0536,1512.5463 1320.7855,1535.394 C 1315.9933,1548.6366 1311.1968,1562.0486 1304.9336,1574.5749 C 1301.6258,1581.1904 1297.0929,1587.4132 1292.0727,1592.8195 C 1286.7244,1598.5792 1280.3392,1603.6389 1273.8282,1608.0731 C 1268.7743,1611.515 1262.4129,1614.1795 1257.2287,1617.2701"
       style="fill:none;fill-rule:evenodd;stroke:#ffffff;stroke-width:4;stroke-linecap:round;stroke-linejoin:round;stroke-miterlimit:4;stroke-dasharray:none;stroke-opacity:1" />
    <path
       sodipodi:nodetypes="csssss"
       id="path3195"
       d="M 1784.7623,1466.135 C 1773.1974,1468.5277 1758.3311,1474.9247 1746.6909,1475.8749 C 1738.7905,1476.5198 1730.4273,1475.586 1722.7636,1473.4822 C 1710.0892,1470.0029 1697.0255,1465.6411 1685.6764,1459.1258 C 1675.491,1453.2786 1666.5228,1444.7577 1658.16,1436.3949 C 1651.7677,1430.0026 1642.1034,1411.3261 1635.356,1404.6137"
       style="fill:none;fill-rule:evenodd;stroke:#ffffff;stroke-width:12;stroke-linecap:round;stroke-linejoin:round;stroke-miterlimit:4;stroke-dasharray:none;stroke-opacity:1" />
    <path
       sodipodi:nodetypes="cssssssssssssssssssssssssssssssssssssssssssssssss"
       id="path3197"
       d="M 1360.2655,1345.4713 C 1329.7774,1425.7582 1302.2957,1507.1648 1275.7151,1589.9862 C 1273.3097,1597.4814 1266.0307,1606.5648 1259.7709,1611.064 C 1253.2695,1615.7369 1242.769,1619.2396 1235.0823,1619.0688 C 1224.8235,1618.8408 1214.6211,1616.4355 1205.9345,1609.8676 C 1149.2199,1566.9858 1097.7647,1523.956 1047.101,1475.4181 C 1040.738,1469.3221 1036.8817,1458.2062 1037.5953,1449.8812 C 1038.0781,1444.2487 1042.5082,1435.2687 1046.7747,1431.1962 C 1051.2816,1426.8942 1059.6025,1420.4244 1069.3968,1421.2337 C 1101.3612,1423.875 1115.3516,1425.0088 1150.271,1425.2579 C 1163.1732,1425.3499 1197.5639,1413.8953 1206.5436,1404.6586 C 1249.074,1360.9112 1275.7807,1326.5497 1314.1294,1277.9964 C 1325.8171,1263.1985 1334.7417,1234.1293 1335.9684,1215.5244 C 1337.1344,1197.8396 1334.9286,1181.2987 1327.9636,1164.8204 C 1318.5783,1142.6163 1304.6603,1121.0603 1288.4836,1102.6095 C 1220.5356,1025.109 1172.0154,958.29023 1107.2019,878.14989 C 1085.0054,850.70444 1088.3761,810.33815 1092.976,787.96582 C 1097.1494,767.66785 1110.5268,747.31147 1125.2996,732.12827 C 1139.2395,717.80116 1154.8489,711.17792 1173.6327,705.30797 C 1186.7519,701.20822 1202.4335,700.09736 1216.7018,701.82764 C 1335.6586,716.25322 1412.2791,729.51446 1534.456,744.67921 C 1647.1148,758.66256 1795.6078,754.27411 1907.9172,758.18724 C 1920.4575,758.62418 1938.9552,760.55767 1949.6377,773.78347 C 1957.9736,784.10397 1957.8836,800.37886 1955.9023,808.304 C 1953.4969,817.92553 1938.1723,833.63814 1929.0385,837.38651 C 1859.8151,865.79456 1795.9623,890.39893 1726.3527,917.17309 C 1713.7091,922.03625 1698.4246,929.73905 1689.2872,939.05567 C 1678.0865,950.47602 1660.7596,978.7508 1658.6821,995.04549 C 1647.9312,1079.3692 1641.0807,1124.5492 1633.8847,1209.2163 C 1632.4091,1226.5784 1641.5162,1260.9506 1653.505,1273.1239 C 1667.4374,1287.2706 1693.5163,1308.139 1713.2145,1311.277 C 1732.2879,1314.3154 1757.1797,1314.301 1776.165,1310.1242 C 1797.0585,1305.5276 1813.4295,1297.8934 1834.0255,1290.4385 C 1890.3343,1270.0571 2019.6621,1171.575 2056.5491,1230.6204 C 2063.9502,1242.4674 2068.3781,1262.1012 2070.8837,1276.8218 C 2074.7587,1299.5872 2075.8964,1320.3139 2075.6909,1343.0785 C 2075.579,1355.4774 2068.5421,1379.6133 2055.8748,1383.3416 C 1964.4875,1410.2393 1878.8217,1437.3971 1788.5636,1465.1076 C 1770.8581,1470.5434 1768.9082,1466.843 1763.875,1452.3391 C 1761.0127,1444.0909 1757.965,1435.0523 1752.3247,1429.195 C 1747.5965,1424.285 1737.2264,1421.8701 1730.0289,1421.6035 C 1704.9246,1420.6737 1683.7551,1424.2459 1659.3346,1422.0821 C 1652.2508,1421.4544 1649.8843,1420.6553 1644.9129,1415.1867 C 1617.9813,1385.562 1589.9799,1355.4101 1567.1493,1323.0667 C 1561.2672,1314.7338 1561.139,1298.7242 1561.9071,1288.4591 C 1569.9123,1181.4806 1581.751,1073.8271 1588.7709,967.42036 C 1589.328,958.97618 1579.2913,945.53717 1573.2835,939.99101 C 1560.722,928.3949 1527.3738,930.38057 1521.0567,948.14803 C 1474.3769,1079.4393 1411.7975,1209.7679 1360.2655,1345.4713 z"
       style="fill:none;fill-rule:evenodd;stroke:#ffffff;stroke-width:12;stroke-linecap:round;stroke-linejoin:round;stroke-miterlimit:4;stroke-dasharray:none;stroke-opacity:1" />
    <path
       style="fill:none;fill-rule:evenodd;stroke:#c8c8c8;stroke-width:10;stroke-linecap:round;stroke-linejoin:round;stroke-miterlimit:4;stroke-dasharray:none;stroke-opacity:1"
       d="M 1784.7623,1466.135 C 1773.1974,1468.5277 1758.3311,1474.9247 1746.6909,1475.8749 C 1738.7905,1476.5198 1730.4273,1475.586 1722.7636,1473.4822 C 1710.0892,1470.0029 1697.0255,1465.6411 1685.6764,1459.1258 C 1675.491,1453.2786 1666.5228,1444.7577 1658.16,1436.3949 C 1651.7677,1430.0026 1642.1034,1411.3261 1635.356,1404.6137"
       id="path3178"
       sodipodi:nodetypes="csssss" />
    <path
       style="fill:none;fill-rule:evenodd;stroke:#000000;stroke-width:10;stroke-linecap:round;stroke-linejoin:round;stroke-miterlimit:4;stroke-dasharray:none;stroke-opacity:1"
       d="M 1360.2655,1345.4713 C 1329.7774,1425.7582 1302.2957,1507.1648 1275.7151,1589.9862 C 1273.3097,1597.4814 1266.0307,1606.5648 1259.7709,1611.064 C 1253.2695,1615.7369 1242.769,1619.2396 1235.0823,1619.0688 C 1224.8235,1618.8408 1214.6211,1616.4355 1205.9345,1609.8676 C 1149.2199,1566.9858 1097.7647,1523.956 1047.101,1475.4181 C 1040.738,1469.3221 1036.8817,1458.2062 1037.5953,1449.8812 C 1038.0781,1444.2487 1042.5082,1435.2687 1046.7747,1431.1962 C 1051.2816,1426.8942 1059.6025,1420.4244 1069.3968,1421.2337 C 1101.3612,1423.875 1115.3516,1425.0088 1150.271,1425.2579 C 1163.1732,1425.3499 1197.5639,1413.8953 1206.5436,1404.6586 C 1249.074,1360.9112 1275.7807,1326.5497 1314.1294,1277.9964 C 1325.8171,1263.1985 1334.7417,1234.1293 1335.9684,1215.5244 C 1337.1344,1197.8396 1334.9286,1181.2987 1327.9636,1164.8204 C 1318.5783,1142.6163 1304.6603,1121.0603 1288.4836,1102.6095 C 1220.5356,1025.109 1172.0154,958.29023 1107.2019,878.14989 C 1085.0054,850.70444 1088.3761,810.33815 1092.976,787.96582 C 1097.1494,767.66785 1110.5268,747.31147 1125.2996,732.12827 C 1139.2395,717.80116 1154.8489,711.17792 1173.6327,705.30797 C 1186.7519,701.20822 1202.4335,700.09736 1216.7018,701.82764 C 1335.6586,716.25322 1412.2791,729.51446 1534.456,744.67921 C 1647.1148,758.66256 1795.6078,754.27411 1907.9172,758.18724 C 1920.4575,758.62418 1938.9552,760.55767 1949.6377,773.78347 C 1957.9736,784.10397 1957.8836,800.37886 1955.9023,808.304 C 1953.4969,817.92553 1938.1723,833.63814 1929.0385,837.38651 C 1859.8151,865.79456 1795.9623,890.39893 1726.3527,917.17309 C 1713.7091,922.03625 1698.4246,929.73905 1689.2872,939.05567 C 1678.0865,950.47602 1660.7596,978.7508 1658.6821,995.04549 C 1647.9312,1079.3692 1641.0807,1124.5492 1633.8847,1209.2163 C 1632.4091,1226.5784 1641.5162,1260.9506 1653.505,1273.1239 C 1667.4374,1287.2706 1693.5163,1308.139 1713.2145,1311.277 C 1732.2879,1314.3154 1757.1797,1314.301 1776.165,1310.1242 C 1797.0585,1305.5276 1813.4295,1297.8934 1834.0255,1290.4385 C 1890.3343,1270.0571 2019.6621,1171.575 2056.5491,1230.6204 C 2063.9502,1242.4674 2068.3781,1262.1012 2070.8837,1276.8218 C 2074.7587,1299.5872 2075.8964,1320.3139 2075.6909,1343.0785 C 2075.579,1355.4774 2068.5421,1379.6133 2055.8748,1383.3416 C 1964.4875,1410.2393 1878.8217,1437.3971 1788.5636,1465.1076 C 1770.8581,1470.5434 1768.9082,1466.843 1763.875,1452.3391 C 1761.0127,1444.0909 1757.965,1435.0523 1752.3247,1429.195 C 1747.5965,1424.285 1737.2264,1421.8701 1730.0289,1421.6035 C 1704.9246,1420.6737 1683.7551,1424.2459 1659.3346,1422.0821 C 1652.2508,1421.4544 1649.8843,1420.6553 1644.9129,1415.1867 C 1617.9813,1385.562 1589.9799,1355.4101 1567.1493,1323.0667 C 1561.2672,1314.7338 1561.139,1298.7242 1561.9071,1288.4591 C 1569.9123,1181.4806 1581.751,1073.8271 1588.7709,967.42036 C 1589.328,958.97618 1579.2913,945.53717 1573.2835,939.99101 C 1560.722,928.3949 1527.3738,930.38057 1521.0567,948.14803 C 1474.3769,1079.4393 1411.7975,1209.7679 1360.2655,1345.4713 z"
       id="path2406"
       sodipodi:nodetypes="cssssssssssssssssssssssssssssssssssssssssssssssss" />
    <path
       style="fill:none;fill-rule:evenodd;stroke:#000000;stroke-width:2;stroke-linecap:round;stroke-linejoin:round;stroke-miterlimit:4;stroke-dasharray:none;stroke-opacity:1"
       d="M 1576.3586,1077.4858 C 1576.9568,1060.1385 1576.6957,1042.5982 1574.5641,1025.444 C 1572.5084,1008.9006 1568.4064,991.89921 1563.3482,976.39309 C 1562.3248,973.25588 1558.7554,971.05927 1555.8709,969.514 C 1553.1724,968.06836 1549.4603,966.90943 1546.5991,967.42036 C 1543.8773,967.9064 1541.1211,970.27712 1539.1218,972.50491 C 1530.6529,981.94166 1520.0187,990.6419 1515.1945,1002.414 C 1460.0012,1137.0968 1409.5878,1274.886 1359.0691,1411.8695 C 1352.5612,1429.516 1349.6828,1448.3376 1344.1145,1466.304 C 1336.9216,1489.5125 1329.0536,1512.5463 1320.7855,1535.394 C 1315.9933,1548.6366 1311.1968,1562.0486 1304.9336,1574.5749 C 1301.6258,1581.1904 1297.0929,1587.4132 1292.0727,1592.8195 C 1286.7244,1598.5792 1280.3392,1603.6389 1273.8282,1608.0731 C 1268.7743,1611.515 1262.4129,1614.1795 1257.2287,1617.2701"
       id="path3180"
       sodipodi:nodetypes="csssssssssssss" />
    <g
       id="g3341"
       transform="translate(8.9991112,17.998222)">
      <path
         transform="translate(-334.31372,701.91364)"
         d="M 1584.9685,857.75641 A 23.622667,23.622667 0 1 1 1537.7232,857.75641 A 23.622667,23.622667 0 1 1 1584.9685,857.75641 z"
         sodipodi:ry="23.622667"
         sodipodi:rx="23.622667"
         sodipodi:cy="857.75641"
         sodipodi:cx="1561.3458"
         id="path3339"
         style="opacity:1;fill:#ffffff;fill-opacity:1;fill-rule:nonzero;stroke:#181818;stroke-width:1;stroke-linecap:round;stroke-linejoin:round;stroke-miterlimit:4;stroke-dasharray:none;stroke-dashoffset:0;stroke-opacity:1"
         sodipodi:type="arc" />
      <text
         id="text3201"
         y="1573.1857"
         x="1217.1298"
         style="font-size:40px;font-style:normal;font-weight:normal;fill:#000000;fill-opacity:1;stroke:none;stroke-width:1px;stroke-linecap:butt;stroke-linejoin:miter;stroke-opacity:1;font-family:Times New Roman"
         xml:space="preserve"><tspan
           y="1573.1857"
           x="1217.1298"
           id="tspan3203"
           sodipodi:role="line">1</tspan></text>
    </g>
    <g
       id="g3334">
      <path
         transform="translate(-560.71912,542.1795)"
         d="M 1584.9685,857.75641 A 23.622667,23.622667 0 1 1 1537.7232,857.75641 A 23.622667,23.622667 0 1 1 1584.9685,857.75641 z"
         sodipodi:ry="23.622667"
         sodipodi:rx="23.622667"
         sodipodi:cy="857.75641"
         sodipodi:cx="1561.3458"
         id="path3332"
         style="opacity:1;fill:#ffffff;fill-opacity:1;fill-rule:nonzero;stroke:#181818;stroke-width:1;stroke-linecap:round;stroke-linejoin:round;stroke-miterlimit:4;stroke-dasharray:none;stroke-dashoffset:0;stroke-opacity:1"
         sodipodi:type="arc" />
      <text
         id="text3205"
         y="1413.4515"
         x="991.0271"
         style="font-size:40px;font-style:normal;font-weight:normal;fill:#000000;fill-opacity:1;stroke:none;stroke-width:1px;stroke-linecap:butt;stroke-linejoin:miter;stroke-opacity:1;font-family:Times New Roman"
         xml:space="preserve"><tspan
           y="1413.4515"
           x="991.0271"
           id="tspan3207"
           sodipodi:role="line">2</tspan></text>
    </g>
    <g
       id="g3327"
       transform="translate(17.998222,15.748445)">
      <path
         transform="translate(-408.18347,506.41742)"
         d="M 1584.9685,857.75641 A 23.622667,23.622667 0 1 1 1537.7232,857.75641 A 23.622667,23.622667 0 1 1 1584.9685,857.75641 z"
         sodipodi:ry="23.622667"
         sodipodi:rx="23.622667"
         sodipodi:cy="857.75641"
         sodipodi:cx="1561.3458"
         id="path3325"
         style="opacity:1;fill:#ffffff;fill-opacity:1;fill-rule:nonzero;stroke:#181818;stroke-width:1;stroke-linecap:round;stroke-linejoin:round;stroke-miterlimit:4;stroke-dasharray:none;stroke-dashoffset:0;stroke-opacity:1"
         sodipodi:type="arc" />
      <text
         id="text3209"
         y="1377.4551"
         x="1144.012"
         style="font-size:40px;font-style:normal;font-weight:normal;fill:#000000;fill-opacity:1;stroke:none;stroke-width:1px;stroke-linecap:butt;stroke-linejoin:miter;stroke-opacity:1;font-family:Times New Roman"
         xml:space="preserve"><tspan
           y="1377.4551"
           x="1144.012"
           id="tspan3211"
           sodipodi:role="line">3</tspan></text>
    </g>
    <g
       id="g3320"
       transform="translate(15.748445,0)">
      <path
         transform="translate(-278.35254,340.8244)"
         d="M 1584.9685,857.75641 A 23.622667,23.622667 0 1 1 1537.7232,857.75641 A 23.622667,23.622667 0 1 1 1584.9685,857.75641 z"
         sodipodi:ry="23.622667"
         sodipodi:rx="23.622667"
         sodipodi:cy="857.75641"
         sodipodi:cx="1561.3458"
         id="path3318"
         style="opacity:1;fill:#ffffff;fill-opacity:1;fill-rule:nonzero;stroke:#181818;stroke-width:1;stroke-linecap:round;stroke-linejoin:round;stroke-miterlimit:4;stroke-dasharray:none;stroke-dashoffset:0;stroke-opacity:1"
         sodipodi:type="arc" />
      <text
         id="text3213"
         y="1212.0964"
         x="1273.3741"
         style="font-size:40px;font-style:normal;font-weight:normal;fill:#000000;fill-opacity:1;stroke:none;stroke-width:1px;stroke-linecap:butt;stroke-linejoin:miter;stroke-opacity:1;font-family:Times New Roman"
         xml:space="preserve"><tspan
           y="1212.0964"
           x="1273.3741"
           id="tspan3215"
           sodipodi:role="line">4</tspan></text>
    </g>
    <g
       id="g3313">
      <path
         transform="translate(-499.93604,-122.12207)"
         d="M 1584.9685,857.75641 A 23.622667,23.622667 0 1 1 1537.7232,857.75641 A 23.622667,23.622667 0 1 1 1584.9685,857.75641 z"
         sodipodi:ry="23.622667"
         sodipodi:rx="23.622667"
         sodipodi:cy="857.75641"
         sodipodi:cx="1561.3458"
         id="path3309"
         style="opacity:1;fill:#ffffff;fill-opacity:1;fill-rule:nonzero;stroke:#181818;stroke-width:1;stroke-linecap:round;stroke-linejoin:round;stroke-miterlimit:4;stroke-dasharray:none;stroke-dashoffset:0;stroke-opacity:1"
         sodipodi:type="arc" />
      <text
         id="text3217"
         y="748.64215"
         x="1051.7711"
         style="font-size:40px;font-style:normal;font-weight:normal;fill:#000000;fill-opacity:1;stroke:none;stroke-width:1px;stroke-linecap:butt;stroke-linejoin:miter;stroke-opacity:1;font-family:Times New Roman"
         xml:space="preserve"><tspan
           y="748.64215"
           x="1051.7711"
           id="tspan3219"
           sodipodi:role="line">5</tspan></text>
    </g>
    <g
       id="g3304">
      <path
         transform="translate(446.5448,-90.89856)"
         d="M 1584.9685,857.75641 A 23.622667,23.622667 0 1 1 1537.7232,857.75641 A 23.622667,23.622667 0 1 1 1584.9685,857.75641 z"
         sodipodi:ry="23.622667"
         sodipodi:rx="23.622667"
         sodipodi:cy="857.75641"
         sodipodi:cx="1561.3458"
         id="path3302"
         style="opacity:1;fill:#ffffff;fill-opacity:1;fill-rule:nonzero;stroke:#181818;stroke-width:1;stroke-linecap:round;stroke-linejoin:round;stroke-miterlimit:4;stroke-dasharray:none;stroke-dashoffset:0;stroke-opacity:1"
         sodipodi:type="arc" />
      <text
         id="text3221"
         y="780.1391"
         x="1997.8027"
         style="font-size:40px;font-style:normal;font-weight:normal;fill:#000000;fill-opacity:1;stroke:none;stroke-width:1px;stroke-linecap:butt;stroke-linejoin:miter;stroke-opacity:1;font-family:Times New Roman"
         xml:space="preserve"><tspan
           y="780.1391"
           x="1997.8027"
           id="tspan3223"
           sodipodi:role="line">6</tspan></text>
    </g>
    <g
       id="g3297"
       transform="translate(5.6244445,25.872445)">
      <path
         transform="translate(147.08984,91.645935)"
         d="M 1584.9685,857.75641 A 23.622667,23.622667 0 1 1 1537.7232,857.75641 A 23.622667,23.622667 0 1 1 1584.9685,857.75641 z"
         sodipodi:ry="23.622667"
         sodipodi:rx="23.622667"
         sodipodi:cy="857.75641"
         sodipodi:cx="1561.3458"
         id="path3295"
         style="opacity:1;fill:#ffffff;fill-opacity:1;fill-rule:nonzero;stroke:#181818;stroke-width:1;stroke-linecap:round;stroke-linejoin:round;stroke-miterlimit:4;stroke-dasharray:none;stroke-dashoffset:0;stroke-opacity:1"
         sodipodi:type="arc" />
      <text
         id="text3225"
         y="962.37109"
         x="1698.5822"
         style="font-size:40px;font-style:normal;font-weight:normal;fill:#000000;fill-opacity:1;stroke:none;stroke-width:1px;stroke-linecap:butt;stroke-linejoin:miter;stroke-opacity:1;font-family:Times New Roman"
         xml:space="preserve"><tspan
           y="962.37109"
           x="1698.5822"
           id="tspan3227"
           sodipodi:role="line">7</tspan></text>
    </g>
    <g
       id="g3290">
      <path
         transform="translate(141.67053,389.42889)"
         d="M 1584.9685,857.75641 A 23.622667,23.622667 0 1 1 1537.7232,857.75641 A 23.622667,23.622667 0 1 1 1584.9685,857.75641 z"
         sodipodi:ry="23.622667"
         sodipodi:rx="23.622667"
         sodipodi:cy="857.75641"
         sodipodi:cx="1561.3458"
         id="path3288"
         style="opacity:1;fill:#ffffff;fill-opacity:1;fill-rule:nonzero;stroke:#181818;stroke-width:1;stroke-linecap:round;stroke-linejoin:round;stroke-miterlimit:4;stroke-dasharray:none;stroke-dashoffset:0;stroke-opacity:1"
         sodipodi:type="arc" />
      <text
         id="text3229"
         y="1260.4666"
         x="1692.9578"
         style="font-size:40px;font-style:normal;font-weight:normal;fill:#000000;fill-opacity:1;stroke:none;stroke-width:1px;stroke-linecap:butt;stroke-linejoin:miter;stroke-opacity:1;font-family:Times New Roman"
         xml:space="preserve"><tspan
           y="1260.4666"
           x="1692.9578"
           id="tspan3231"
           sodipodi:role="line">8</tspan></text>
    </g>
    <g
       id="g3283"
       transform="translate(-8.9991112,16.873333)">
      <path
         transform="translate(511.63196,308.47601)"
         d="M 1584.9685,857.75641 A 23.622667,23.622667 0 1 1 1537.7232,857.75641 A 23.622667,23.622667 0 1 1 1584.9685,857.75641 z"
         sodipodi:ry="23.622667"
         sodipodi:rx="23.622667"
         sodipodi:cy="857.75641"
         sodipodi:cx="1561.3458"
         id="path3281"
         style="opacity:1;fill:#ffffff;fill-opacity:1;fill-rule:nonzero;stroke:#181818;stroke-width:1;stroke-linecap:round;stroke-linejoin:round;stroke-miterlimit:4;stroke-dasharray:none;stroke-dashoffset:0;stroke-opacity:1"
         sodipodi:type="arc" />
      <text
         id="text3233"
         y="1179.4746"
         x="2063.0461"
         style="font-size:40px;font-style:normal;font-weight:normal;fill:#000000;fill-opacity:1;stroke:none;stroke-width:1px;stroke-linecap:butt;stroke-linejoin:miter;stroke-opacity:1;font-family:Times New Roman"
         xml:space="preserve"><tspan
           y="1179.4746"
           x="2063.0461"
           id="tspan3235"
           sodipodi:role="line">9</tspan></text>
    </g>
    <g
       id="g3276"
       transform="translate(-23.622667,7.8742223)">
      <path
         transform="translate(563.82727,528.91522)"
         d="M 1584.9685,857.75641 A 23.622667,23.622667 0 1 1 1537.7232,857.75641 A 23.622667,23.622667 0 1 1 1584.9685,857.75641 z"
         sodipodi:ry="23.622667"
         sodipodi:rx="23.622667"
         sodipodi:cy="857.75641"
         sodipodi:cx="1561.3458"
         id="path3274"
         style="opacity:1;fill:#ffffff;fill-opacity:1;fill-rule:nonzero;stroke:#181818;stroke-width:1;stroke-linecap:round;stroke-linejoin:round;stroke-miterlimit:4;stroke-dasharray:none;stroke-dashoffset:0;stroke-opacity:1"
         sodipodi:type="arc" />
      <text
         id="text3237"
         y="1399.9529"
         x="2103.5422"
         style="font-size:40px;font-style:normal;font-weight:normal;fill:#000000;fill-opacity:1;stroke:none;stroke-width:1px;stroke-linecap:butt;stroke-linejoin:miter;stroke-opacity:1;font-family:Times New Roman"
         xml:space="preserve"><tspan
           y="1399.9529"
           x="2103.5422"
           id="tspan3239"
           sodipodi:role="line">10</tspan></text>
    </g>
    <g
       id="g3269"
       transform="translate(-40.102302,38.187462)">
      <path
         transform="translate(129.01648,632.17059)"
         d="M 1584.9685,857.75641 A 23.622667,23.622667 0 1 1 1537.7232,857.75641 A 23.622667,23.622667 0 1 1 1584.9685,857.75641 z"
         sodipodi:ry="23.622667"
         sodipodi:rx="23.622667"
         sodipodi:cy="857.75641"
         sodipodi:cx="1561.3458"
         id="path3267"
         style="opacity:1;fill:#ffffff;fill-opacity:1;fill-rule:nonzero;stroke:#181818;stroke-width:1;stroke-linecap:round;stroke-linejoin:round;stroke-miterlimit:4;stroke-dasharray:none;stroke-dashoffset:0;stroke-opacity:1"
         sodipodi:type="arc" />
      <text
         id="text3241"
         y="1503.4426"
         x="1670.46"
         style="font-size:40px;font-style:normal;font-weight:normal;fill:#000000;fill-opacity:1;stroke:none;stroke-width:1px;stroke-linecap:butt;stroke-linejoin:miter;stroke-opacity:1;font-family:Times New Roman"
         xml:space="preserve"><tspan
           y="1503.4426"
           x="1670.46"
           id="tspan3243"
           sodipodi:role="line">11</tspan></text>
    </g>
    <g
       id="g3262"
       transform="translate(4.4995556,1.1248889)">
      <path
         transform="translate(-39.230347,465.68707)"
         d="M 1584.9685,857.75641 A 23.622667,23.622667 0 1 1 1537.7232,857.75641 A 23.622667,23.622667 0 1 1 1584.9685,857.75641 z"
         sodipodi:ry="23.622667"
         sodipodi:rx="23.622667"
         sodipodi:cy="857.75641"
         sodipodi:cx="1561.3458"
         id="path3260"
         style="opacity:1;fill:#ffffff;fill-opacity:1;fill-rule:nonzero;stroke:#181818;stroke-width:1;stroke-linecap:round;stroke-linejoin:round;stroke-miterlimit:4;stroke-dasharray:none;stroke-dashoffset:0;stroke-opacity:1"
         sodipodi:type="arc" />
      <text
         id="text3245"
         y="1336.9591"
         x="1500.6018"
         style="font-size:40px;font-style:normal;font-weight:normal;fill:#000000;fill-opacity:1;stroke:none;stroke-width:1px;stroke-linecap:butt;stroke-linejoin:miter;stroke-opacity:1;font-family:Times New Roman"
         xml:space="preserve"><tspan
           y="1336.9591"
           x="1500.6018"
           id="tspan3247"
           sodipodi:role="line">12</tspan></text>
    </g>
    <g
       id="g3255"
       transform="translate(2.2497778,37.121334)">
      <path
         transform="translate(0.4355469,-2.0323486)"
         d="M 1584.9685,857.75641 A 23.622667,23.622667 0 1 1 1537.7232,857.75641 A 23.622667,23.622667 0 1 1 1584.9685,857.75641 z"
         sodipodi:ry="23.622667"
         sodipodi:rx="23.622667"
         sodipodi:cy="857.75641"
         sodipodi:cx="1561.3458"
         id="path3253"
         style="opacity:1;fill:#ffffff;fill-opacity:1;fill-rule:nonzero;stroke:#181818;stroke-width:1;stroke-linecap:round;stroke-linejoin:round;stroke-miterlimit:4;stroke-dasharray:none;stroke-dashoffset:0;stroke-opacity:1"
         sodipodi:type="arc" />
      <text
         id="text3249"
         y="869.00531"
         x="1541.0978"
         style="font-size:40px;font-style:normal;font-weight:normal;fill:#000000;fill-opacity:1;stroke:none;stroke-width:1px;stroke-linecap:butt;stroke-linejoin:miter;stroke-opacity:1;font-family:Times New Roman"
         xml:space="preserve"><tspan
           y="869.00531"
           x="1541.0978"
           id="tspan3251"
           sodipodi:role="line">13</tspan></text>
    </g>
    <text
       xml:space="preserve"
       style="font-size:28px;font-style:normal;font-weight:bold;fill:#000000;fill-opacity:1;stroke:#ffffff;stroke-width:0.5;stroke-linecap:butt;stroke-linejoin:miter;stroke-miterlimit:4;stroke-dasharray:none;stroke-opacity:1;font-family:Times New Roman"
       x="1055.1459"
       y="1586.6843"
       id="text3346"><tspan
         sodipodi:role="line"
         id="tspan3348"
         x="1055.1459"
         y="1586.6843">Curva</tspan><tspan
         sodipodi:role="line"
         x="1055.1459"
         y="1621.6843"
         id="tspan3416">Expo '92</tspan></text>
    <text
       xml:space="preserve"
       style="font-size:28px;font-style:normal;font-weight:bold;fill:#000000;fill-opacity:1;stroke:#ffffff;stroke-width:0.5;stroke-linecap:butt;stroke-linejoin:miter;stroke-miterlimit:4;stroke-dasharray:none;stroke-opacity:1;font-family:Times New Roman"
       x="970.77911"
       y="1324.5853"
       id="text3350"><tspan
         sodipodi:role="line"
         id="tspan3352"
         x="970.77911"
         y="1324.5853">Curva</tspan><tspan
         sodipodi:role="line"
         x="970.77911"
         y="1359.5853"
         id="tspan3418">Michelin</tspan></text>
    <text
       xml:space="preserve"
       style="font-size:28px;font-style:normal;font-weight:bold;fill:#000000;fill-opacity:1;stroke:#ffffff;stroke-width:0.5;stroke-linecap:butt;stroke-linejoin:miter;stroke-miterlimit:4;stroke-dasharray:none;stroke-opacity:1;font-family:Times New Roman"
       x="960.65509"
       y="762.14087"
       id="text3354"><tspan
         sodipodi:role="line"
         x="960.65509"
         y="762.14087"
         id="tspan3358">Curva</tspan><tspan
         sodipodi:role="line"
         x="960.65509"
         y="797.14087"
         id="tspan3362">Sito Pons</tspan></text>
    <text
       xml:space="preserve"
       style="font-size:28px;font-style:normal;font-weight:bold;text-align:end;text-anchor:end;fill:#000000;fill-opacity:1;stroke:#ffffff;stroke-width:0.5;stroke-linecap:butt;stroke-linejoin:miter;stroke-miterlimit:4;stroke-dasharray:none;stroke-opacity:1;font-family:Times New Roman"
       x="2056.2969"
       y="817.26038"
       id="text3364"><tspan
         sodipodi:role="line"
         id="tspan3366"
         x="2056.2969"
         y="817.26038">Curva</tspan><tspan
         sodipodi:role="line"
         x="2056.2969"
         y="852.26038"
         id="tspan3368">Dry Sac</tspan></text>
    <text
       xml:space="preserve"
       style="font-size:28px;font-style:normal;font-weight:bold;text-align:start;text-anchor:start;fill:#000000;fill-opacity:1;stroke:#ffffff;stroke-width:0.5;stroke-linecap:butt;stroke-linejoin:miter;stroke-miterlimit:4;stroke-dasharray:none;stroke-opacity:1;font-family:Times New Roman"
       x="1970.8053"
       y="1150.2274"
       id="text3370"><tspan
         sodipodi:role="line"
         x="1970.8053"
         y="1150.2274"
         id="tspan3374">Curva Angel</tspan><tspan
         sodipodi:role="line"
         x="1970.8053"
         y="1185.2274"
         id="tspan3378">Nieto</tspan></text>
    <text
       xml:space="preserve"
       style="font-size:28px;font-style:normal;font-weight:bold;fill:#000000;fill-opacity:1;stroke:#ffffff;stroke-width:0.5;stroke-linecap:butt;stroke-linejoin:miter;stroke-miterlimit:4;stroke-dasharray:none;stroke-opacity:1;font-family:Times New Roman"
       x="2003.4271"
       y="1438.1991"
       id="text3380"><tspan
         sodipodi:role="line"
         id="tspan3382"
         x="2003.4271"
         y="1438.1991">Curva</tspan><tspan
         sodipodi:role="line"
         x="2003.4271"
         y="1473.1991"
         id="tspan3384">Peluqui</tspan></text>
    <path
       style="font-size:28px;font-style:normal;font-weight:bold;fill:#000000;fill-opacity:1;stroke:#ffffff;stroke-width:0.5;stroke-linecap:butt;stroke-linejoin:miter;stroke-miterlimit:4;stroke-opacity:1;font-family:Times New Roman"
       d="M 1629.1199,1431.4315 L 1623.8598,1435.1223 L 1623.5535,1434.6858 C 1624.696,1433.3943 1625.3188,1432.0443 1625.4218,1430.6359 C 1625.5247,1429.2275 1625.1783,1427.9563 1624.3826,1426.8222 C 1623.7177,1425.8746 1622.8355,1425.1965 1621.7359,1424.7878 C 1620.6363,1424.3791 1619.5181,1424.3008 1618.3811,1424.5529 C 1616.9247,1424.8734 1615.5063,1425.5179 1614.126,1426.4864 C 1612.7681,1427.4392 1611.6518,1428.4785 1610.7772,1429.6044 C 1609.9025,1430.7302 1609.4364,1431.859 1609.3786,1432.9907 C 1609.3209,1434.1224 1609.7004,1435.2702 1610.5171,1436.4341 C 1611.1871,1437.3891 1612.0099,1438.1174 1612.9853,1438.6188 C 1613.9606,1439.1203 1615.2683,1439.4526 1616.9082,1439.6158 L 1615.5988,1440.5346 C 1614.1141,1440.307 1612.8489,1439.8725 1611.8032,1439.2311 C 1610.7574,1438.5897 1609.8027,1437.6535 1608.9389,1436.4224 C 1607.8029,1434.8034 1607.1183,1433.1375 1606.8853,1431.4248 C 1606.6523,1429.7122 1606.9044,1428.0878 1607.6416,1426.5518 C 1608.3787,1425.0158 1609.4337,1423.7661 1610.8066,1422.8029 C 1612.254,1421.7873 1613.8926,1421.2026 1615.7222,1421.049 C 1617.5518,1420.8954 1619.2762,1421.2108 1620.8956,1421.9953 C 1622.5149,1422.7798 1623.8324,1423.8958 1624.848,1425.3432 C 1625.5966,1426.4102 1626.1558,1427.6991 1626.5257,1429.21 C 1626.7387,1430.0849 1626.9106,1430.6156 1627.0415,1430.8021 C 1627.209,1431.0409 1627.442,1431.1864 1627.7404,1431.2387 C 1628.0387,1431.291 1628.3965,1431.2098 1628.8137,1430.995 L 1629.1199,1431.4315 z M 1632.7637,1446.1611 L 1624.8834,1452.3302 C 1624.1155,1452.9314 1623.6926,1453.3782 1623.6148,1453.6706 C 1623.537,1453.963 1623.6443,1454.3478 1623.9368,1454.8249 L 1623.5492,1455.1283 L 1620.3383,1451.0267 L 1621.684,1449.9732 C 1620.7334,1449.9419 1619.9389,1449.7883 1619.3005,1449.5125 C 1618.6621,1449.2367 1618.1097,1448.801 1617.6434,1448.2053 C 1617.1995,1447.6383 1616.9789,1446.9979 1616.9814,1446.284 C 1616.984,1445.5701 1617.1595,1444.9552 1617.508,1444.4393 C 1617.8565,1443.9234 1618.6121,1443.2104 1619.7748,1442.3002 L 1623.7688,1439.1735 C 1624.5295,1438.5779 1624.9484,1438.1372 1625.0255,1437.8511 C 1625.1025,1437.5651 1624.9956,1437.1771 1624.7046,1436.6872 L 1625.103,1436.3754 L 1628.3139,1440.477 L 1621.4348,1445.8623 C 1620.7171,1446.4241 1620.2809,1446.8206 1620.1261,1447.0517 C 1619.9714,1447.2828 1619.8977,1447.5141 1619.9053,1447.7455 C 1619.9128,1447.9769 1619.9924,1448.1895 1620.1441,1448.3833 C 1620.3464,1448.6416 1620.5971,1448.8215 1620.8965,1448.9229 C 1621.3078,1449.0639 1621.9543,1449.1134 1622.8359,1449.0715 L 1628.2186,1444.8576 C 1628.9793,1444.2621 1629.3982,1443.8213 1629.4753,1443.5353 C 1629.5523,1443.2492 1629.4454,1442.8613 1629.1545,1442.3713 L 1629.5528,1442.0595 L 1632.7637,1446.1611 z M 1637.8688,1452.1336 L 1635.686,1454.0405 C 1637.239,1453.8094 1638.3884,1453.7916 1639.1342,1453.9872 C 1639.88,1454.1829 1640.4478,1454.5038 1640.8376,1454.9499 C 1641.1734,1455.3343 1641.3234,1455.7449 1641.2875,1456.1818 C 1641.2515,1456.6186 1641.0173,1457.0259 1640.5849,1457.4037 C 1640.125,1457.8055 1639.6706,1458.0058 1639.2218,1458.0046 C 1638.7729,1458.0034 1638.4106,1457.8449 1638.1347,1457.5291 C 1637.8169,1457.1653 1637.6577,1456.7477 1637.6572,1456.2761 C 1637.6567,1455.8045 1637.6492,1455.5327 1637.6347,1455.4606 C 1637.6159,1455.356 1637.5676,1455.2591 1637.4896,1455.1699 C 1637.3157,1454.9708 1637.0753,1454.848 1636.7684,1454.8015 C 1636.2891,1454.7239 1635.7703,1454.802 1635.212,1455.0356 C 1634.3542,1455.3977 1633.5238,1455.9295 1632.7208,1456.6311 L 1630.5071,1458.565 L 1629.9395,1459.079 C 1629.5483,1459.4209 1629.3187,1459.6638 1629.2509,1459.8078 C 1629.1375,1460.052 1629.1084,1460.2923 1629.1635,1460.5286 C 1629.2186,1460.7648 1629.4038,1461.0841 1629.719,1461.4865 L 1629.3483,1461.8104 L 1624.8059,1456.6108 L 1625.1765,1456.287 C 1625.5766,1456.6757 1625.939,1456.8584 1626.2635,1456.8351 C 1626.5881,1456.8118 1627.1691,1456.4343 1628.0065,1455.7027 L 1633.3296,1451.0523 C 1633.8787,1450.5725 1634.2047,1450.2393 1634.3078,1450.0524 C 1634.44,1449.8159 1634.4938,1449.5934 1634.4691,1449.385 C 1634.4444,1449.1767 1634.3052,1448.8927 1634.0517,1448.5333 L 1634.4327,1448.2005 L 1637.8688,1452.1336 z M 1636.7254,1470.2553 L 1640.723,1460.2145 C 1641.204,1459.0045 1641.4549,1458.1836 1641.4757,1457.7519 C 1641.4961,1457.4361 1641.3909,1457.1039 1641.1601,1456.755 L 1641.519,1456.3986 L 1646.3075,1461.2195 L 1645.9486,1461.576 C 1645.6467,1461.272 1645.3861,1461.1197 1645.167,1461.119 C 1644.8706,1461.1051 1644.6254,1461.1945 1644.4314,1461.3872 C 1644.1921,1461.6248 1643.884,1462.2135 1643.507,1463.1532 L 1641.5861,1468.0288 L 1645.7102,1466.3026 C 1646.8913,1465.8103 1647.6565,1465.3907 1648.0057,1465.0439 C 1648.2062,1464.8448 1648.2972,1464.6098 1648.2788,1464.3391 C 1648.2603,1464.0683 1648.0745,1463.7422 1647.7214,1463.3608 L 1648.0803,1463.0043 L 1651.0285,1465.9725 L 1650.6696,1466.329 C 1650.3482,1466.083 1650.0102,1465.9562 1649.6558,1465.9485 C 1649.3013,1465.9409 1648.5175,1466.1799 1647.3042,1466.6657 L 1637.1783,1470.7112 L 1636.7254,1470.2553 z M 1649.4306,1478.933 C 1647.3516,1478.9699 1645.8403,1478.5864 1644.8967,1477.7826 C 1644.3417,1477.3097 1644.0354,1476.7345 1643.978,1476.057 C 1643.9206,1475.3795 1644.1254,1474.7667 1644.5924,1474.2185 C 1645.2248,1473.4762 1646.1129,1473.0802 1647.2566,1473.0308 C 1648.4002,1472.9814 1650.4637,1473.3773 1653.4469,1474.2185 L 1654.2803,1473.2402 C 1654.9069,1472.5048 1655.2615,1472.0077 1655.3443,1471.7489 C 1655.427,1471.4901 1655.418,1471.195 1655.3172,1470.8637 C 1655.2163,1470.5323 1655.0271,1470.2484 1654.7496,1470.0119 C 1654.2986,1469.6277 1653.8417,1469.4121 1653.3789,1469.3651 C 1653.0921,1469.3363 1652.8778,1469.4051 1652.7359,1469.5717 C 1652.6118,1469.7174 1652.5552,1469.9805 1652.5663,1470.3611 C 1652.5758,1470.884 1652.4623,1471.2843 1652.2259,1471.5618 C 1651.9362,1471.9018 1651.5628,1472.0836 1651.1057,1472.1072 C 1650.6485,1472.1308 1650.2153,1471.9683 1649.8059,1471.6195 C 1649.3688,1471.2472 1649.1151,1470.8035 1649.0449,1470.2887 C 1648.9746,1469.7738 1649.0902,1469.3395 1649.3916,1468.9856 C 1649.8172,1468.4861 1650.4213,1468.1775 1651.2039,1468.06 C 1651.9866,1467.9425 1652.8352,1468.0637 1653.7497,1468.4238 C 1654.6643,1468.7838 1655.5032,1469.289 1656.2664,1469.9391 C 1657.1892,1470.7253 1657.7524,1471.5434 1657.9562,1472.3935 C 1658.1599,1473.2436 1658.1465,1473.9656 1657.916,1474.5594 C 1657.7649,1474.9336 1657.2431,1475.6445 1656.3506,1476.6922 L 1653.1321,1480.47 C 1652.7538,1480.914 1652.5333,1481.2081 1652.4705,1481.3521 C 1652.4076,1481.4961 1652.3872,1481.6255 1652.4093,1481.7401 C 1652.4314,1481.8547 1652.4876,1481.9504 1652.5778,1482.0273 C 1652.7582,1482.1809 1653.0514,1482.2092 1653.4574,1482.1121 L 1653.5568,1482.6279 C 1652.7725,1482.8457 1652.0958,1482.9128 1651.5266,1482.829 C 1650.9574,1482.7452 1650.4369,1482.5023 1649.9651,1482.1004 C 1649.41,1481.6275 1649.0872,1481.128 1648.9967,1480.6019 C 1648.9061,1480.0757 1649.0507,1479.5194 1649.4306,1478.933 L 1649.4306,1478.933 z M 1650.0778,1478.1733 L 1652.8529,1474.9158 C 1651.5937,1474.6932 1650.52,1474.6885 1649.6319,1474.9018 C 1649.0422,1475.0459 1648.5847,1475.3088 1648.2596,1475.6904 C 1647.9877,1476.0095 1647.8628,1476.3881 1647.8849,1476.826 C 1647.8988,1477.1611 1648.0618,1477.4616 1648.374,1477.7276 C 1648.7209,1478.0231 1649.2889,1478.1717 1650.0778,1478.1733 L 1650.0778,1478.1733 z M 1671.0236,1489.9054 L 1665.3553,1486.6256 L 1663.777,1487.7973 C 1663.2548,1488.1902 1662.8956,1488.5562 1662.6993,1488.8954 C 1662.4391,1489.3451 1662.4288,1489.7815 1662.6685,1490.2044 C 1662.8084,1490.4539 1663.2783,1490.8522 1664.078,1491.3991 L 1663.8246,1491.837 L 1658.4877,1488.7488 L 1658.741,1488.311 C 1659.3671,1488.5575 1659.9786,1488.5927 1660.5753,1488.4167 C 1661.1721,1488.2408 1662.0964,1487.6989 1663.3483,1486.7911 L 1676.4964,1477.3081 L 1676.7213,1477.4382 L 1674.8937,1493.9455 C 1674.7246,1495.5115 1674.724,1496.5589 1674.8919,1497.0878 C 1675.0186,1497.4876 1675.3151,1497.8487 1675.7814,1498.1712 L 1675.5281,1498.609 L 1667.7652,1494.1172 L 1668.0186,1493.6793 L 1668.3381,1493.8642 C 1668.9613,1494.2248 1669.4494,1494.3914 1669.8023,1494.3639 C 1670.0488,1494.3381 1670.2406,1494.2069 1670.3776,1493.9702 C 1670.4597,1493.8282 1670.5205,1493.6685 1670.5599,1493.4913 C 1670.5852,1493.4111 1670.6381,1493.0468 1670.7185,1492.3983 L 1671.0236,1489.9054 z M 1671.128,1488.7969 L 1671.9353,1481.8875 L 1666.2762,1485.9895 L 1671.128,1488.7969 z M 1688.7595,1483.7648 L 1682.4989,1498.3659 C 1682.1433,1499.1952 1682.0125,1499.7664 1682.1064,1500.0794 C 1682.2002,1500.3924 1682.5206,1500.6859 1683.0675,1500.9601 L 1682.8736,1501.4124 L 1676.528,1498.6916 L 1676.7219,1498.2393 C 1677.2485,1498.4452 1677.6985,1498.4597 1678.0719,1498.2826 C 1678.3221,1498.1618 1678.625,1497.6867 1678.9805,1496.8574 L 1684.1959,1484.6939 C 1684.5479,1483.873 1684.6769,1483.306 1684.583,1482.993 C 1684.4891,1482.6801 1684.1729,1482.3883 1683.6344,1482.1177 L 1683.8338,1481.6528 L 1688.7595,1483.7648 z M 1696.4156,1498.7782 L 1689.7514,1496.5916 C 1689.3009,1498.228 1689.3118,1499.6417 1689.7844,1500.8328 C 1690.1461,1501.7477 1690.747,1502.3429 1691.587,1502.6185 C 1692.1066,1502.789 1692.6262,1502.7988 1693.1458,1502.648 C 1693.6653,1502.4971 1694.2912,1502.1245 1695.0234,1501.5301 L 1695.3713,1501.9608 C 1694.2727,1503.0872 1693.2333,1503.799 1692.2533,1504.0962 C 1691.2733,1504.3934 1690.2593,1504.37 1689.2114,1504.0262 C 1687.4101,1503.4352 1686.2734,1502.2948 1685.8014,1500.6051 C 1685.4232,1499.2436 1685.5054,1497.7357 1686.0481,1496.0816 C 1686.7131,1494.0551 1687.7901,1492.6218 1689.2791,1491.7818 C 1690.7682,1490.9418 1692.2489,1490.7634 1693.7212,1491.2464 C 1694.9509,1491.6499 1695.8528,1492.5046 1696.4268,1493.8105 C 1697.0007,1495.1163 1696.997,1496.7722 1696.4156,1498.7782 L 1696.4156,1498.7782 z M 1693.5055,1496.8593 C 1693.963,1495.465 1694.2012,1494.4832 1694.2201,1493.9138 C 1694.239,1493.3445 1694.1323,1492.873 1693.9,1492.4994 C 1693.7693,1492.2838 1693.5524,1492.1263 1693.2493,1492.0269 C 1692.7989,1491.8791 1692.3584,1491.9792 1691.9277,1492.3271 C 1691.1638,1492.9302 1690.5617,1493.9029 1690.1212,1495.2453 L 1689.9721,1495.6999 L 1693.5055,1496.8593 z M 1704.8245,1499.5949 L 1706.1294,1504.1703 C 1706.578,1505.7635 1706.9807,1506.7977 1707.3376,1507.2728 C 1707.5355,1507.5284 1707.8422,1507.7091 1708.2578,1507.8147 L 1708.1569,1508.2964 L 1701.185,1506.8367 L 1701.2859,1506.355 C 1701.8394,1506.4243 1702.1911,1506.4235 1702.341,1506.3524 C 1702.4909,1506.2814 1702.5836,1506.1611 1702.6191,1505.9916 C 1702.6714,1505.7418 1702.6109,1505.3194 1702.4375,1504.7243 L 1701.7794,1502.4634 L 1700.5731,1503.6216 C 1700.0249,1504.1494 1699.7119,1504.4656 1699.6341,1504.5704 C 1699.5273,1504.725 1699.4598,1504.8692 1699.4318,1505.003 C 1699.3889,1505.2082 1699.3953,1505.3888 1699.4511,1505.5448 C 1699.5069,1505.7008 1699.6014,1505.8277 1699.7346,1505.9254 C 1699.8677,1506.0231 1700.1306,1506.1131 1700.5231,1506.1953 L 1700.4223,1506.677 L 1695.5246,1505.6516 L 1695.6254,1505.1698 C 1696.2321,1505.2969 1696.8224,1505.2459 1697.3965,1505.0168 C 1697.9706,1504.7878 1698.8879,1504.065 1700.1484,1502.8482 L 1701.4982,1501.5384 L 1700.1786,1497.0996 C 1699.7465,1495.6496 1699.3874,1494.7409 1699.1011,1494.3737 C 1698.8148,1494.0064 1698.4613,1493.7602 1698.0405,1493.6348 L 1698.1442,1493.1397 L 1705.0759,1494.591 L 1704.9723,1495.0861 L 1704.6082,1495.0238 L 1703.8619,1495.119 C 1703.7774,1495.1665 1703.7203,1495.2617 1703.6904,1495.4044 C 1703.6624,1495.5382 1703.6557,1495.6812 1703.6704,1495.8332 C 1703.6841,1495.9013 1703.7586,1496.1683 1703.8938,1496.6343 L 1704.4897,1498.6587 L 1705.1495,1498.0426 C 1706.0686,1497.2107 1706.5693,1496.5985 1706.6515,1496.2059 C 1706.6907,1496.0186 1706.6458,1495.8439 1706.5168,1495.6819 C 1706.3877,1495.5198 1706.1271,1495.3745 1705.735,1495.2458 L 1705.8387,1494.7507 L 1710.268,1495.6781 L 1710.1644,1496.1732 C 1709.6164,1496.0771 1709.0729,1496.1379 1708.5338,1496.3556 C 1707.9947,1496.5733 1707.3354,1497.0755 1706.5561,1497.8622 L 1704.8245,1499.5949 z M 1734.8797,1491.0655 L 1734.6632,1497.4876 L 1734.1303,1497.4696 C 1733.786,1495.78 1733.0823,1494.4704 1732.0193,1493.5408 C 1730.9562,1492.6112 1729.7324,1492.1231 1728.3478,1492.0764 C 1727.1909,1492.0374 1726.1184,1492.3341 1725.1304,1492.9665 C 1724.1424,1493.599 1723.4071,1494.4451 1722.9245,1495.505 C 1722.3042,1496.8612 1721.9657,1498.3819 1721.9089,1500.0671 C 1721.853,1501.725 1722.0116,1503.242 1722.3847,1504.6179 C 1722.7578,1505.9939 1723.379,1507.0454 1724.2482,1507.7724 C 1725.1174,1508.4993 1726.2626,1508.8868 1727.6837,1508.9347 C 1728.8496,1508.974 1729.9263,1508.7549 1730.9137,1508.2775 C 1731.901,1507.8001 1732.9532,1506.9555 1734.0702,1505.7438 L 1734.0163,1507.3425 C 1732.9413,1508.3915 1731.833,1509.1407 1730.6916,1509.5901 C 1729.5501,1510.0395 1728.2279,1510.2389 1726.7249,1510.1882 C 1724.7481,1510.1216 1723.0056,1509.6661 1721.4974,1508.8219 C 1719.9892,1507.9776 1718.8434,1506.799 1718.0599,1505.2861 C 1717.2765,1503.7731 1716.913,1502.1786 1716.9695,1500.5025 C 1717.0291,1498.7353 1717.5479,1497.0747 1718.526,1495.5208 C 1719.504,1493.967 1720.7934,1492.7793 1722.3943,1491.9578 C 1723.9952,1491.1362 1725.6792,1490.7553 1727.4464,1490.8148 C 1728.7491,1490.8588 1730.1151,1491.1875 1731.5444,1491.8011 C 1732.3714,1492.1574 1732.8988,1492.3393 1733.1265,1492.347 C 1733.418,1492.3568 1733.6744,1492.2583 1733.8957,1492.0514 C 1734.117,1491.8446 1734.2674,1491.5099 1734.3468,1491.0475 L 1734.8797,1491.0655 z M 1741.2754,1496.7166 L 1741.4463,1499.61 C 1742.2146,1498.2407 1742.9044,1497.3212 1743.5157,1496.8513 C 1744.1271,1496.3815 1744.7285,1496.1292 1745.3199,1496.0942 C 1745.8295,1496.0641 1746.2459,1496.197 1746.5693,1496.4929 C 1746.8926,1496.7888 1747.0712,1497.2234 1747.1051,1497.7966 C 1747.1411,1498.4062 1747.0212,1498.8881 1746.7454,1499.2422 C 1746.4695,1499.5963 1746.1224,1499.7857 1745.7038,1499.8105 C 1745.2216,1499.839 1744.7939,1499.709 1744.4208,1499.4206 C 1744.0477,1499.1322 1743.8282,1498.9717 1743.7623,1498.9391 C 1743.6681,1498.8899 1743.5619,1498.8687 1743.4436,1498.8757 C 1743.1797,1498.8913 1742.9354,1499.0062 1742.7107,1499.2203 C 1742.3559,1499.5517 1742.0999,1500.0097 1741.9427,1500.5942 C 1741.7037,1501.494 1741.6156,1502.4761 1741.6785,1503.5407 L 1741.8519,1506.475 L 1741.9107,1507.2385 C 1741.9413,1507.7571 1741.9928,1508.0873 1742.0651,1508.2292 C 1742.1888,1508.4684 1742.3609,1508.6385 1742.5815,1508.7396 C 1742.802,1508.8407 1743.1678,1508.8899 1743.679,1508.8871 L 1743.708,1509.3784 L 1736.8157,1509.7856 L 1736.7867,1509.2943 C 1737.339,1509.216 1737.7053,1509.0414 1737.8856,1508.7705 C 1738.0659,1508.4997 1738.1233,1507.8092 1738.0577,1506.6992 L 1737.6409,1499.6431 C 1737.5979,1498.9152 1737.5341,1498.4533 1737.4494,1498.2575 C 1737.3434,1498.0081 1737.2005,1497.8293 1737.0206,1497.7213 C 1736.8407,1497.6132 1736.5311,1497.5493 1736.0917,1497.5296 L 1736.0618,1497.0246 L 1741.2754,1496.7166 z M 1750.1609,1489.7538 C 1750.75,1489.6908 1751.2705,1489.8437 1751.7224,1490.2125 C 1752.1743,1490.5813 1752.4312,1491.0557 1752.4932,1491.6357 C 1752.5552,1492.2157 1752.4018,1492.7317 1752.0331,1493.1836 C 1751.6643,1493.6355 1751.1899,1493.8925 1750.6099,1493.9545 C 1750.0298,1494.0165 1749.5141,1493.8653 1749.0627,1493.5011 C 1748.6113,1493.1369 1748.3545,1492.6647 1748.2926,1492.0847 C 1748.2306,1491.5047 1748.3814,1490.9867 1748.7452,1490.5307 C 1749.109,1490.0748 1749.5808,1489.8158 1750.1609,1489.7538 L 1750.1609,1489.7538 z M 1752.7223,1495.7086 L 1753.799,1505.7821 C 1753.8949,1506.6794 1754.0604,1507.2414 1754.2955,1507.4684 C 1754.5306,1507.6953 1754.9537,1507.7945 1755.5648,1507.7658 L 1755.6171,1508.2552 L 1748.7519,1508.989 L 1748.6996,1508.4996 C 1749.2595,1508.4214 1749.659,1508.2137 1749.8979,1507.8765 C 1750.0569,1507.6487 1750.0885,1507.0862 1749.9926,1506.189 L 1749.1992,1498.7664 C 1749.1033,1497.8692 1748.9378,1497.3071 1748.7027,1497.0801 C 1748.4676,1496.8532 1748.0491,1496.7535 1747.4471,1496.7812 L 1747.3933,1496.2782 L 1752.7223,1495.7086 z M 1762.6062,1507.6579 L 1756.8667,1498.5006 C 1756.1746,1497.3976 1755.6605,1496.7102 1755.3245,1496.4384 C 1755.0818,1496.2354 1754.7515,1496.124 1754.3337,1496.1042 L 1754.2581,1495.604 L 1760.9767,1494.5886 L 1761.0523,1495.0888 C 1760.6288,1495.1528 1760.3519,1495.273 1760.2219,1495.4493 C 1760.0356,1495.6803 1759.9628,1495.931 1760.0037,1496.2013 C 1760.0541,1496.5348 1760.347,1497.1312 1760.8825,1497.9905 L 1763.6814,1502.4208 L 1764.7251,1498.0735 C 1765.0257,1496.8297 1765.1392,1495.9645 1765.0657,1495.4778 C 1765.0235,1495.1984 1764.8877,1494.9862 1764.6584,1494.8411 C 1764.429,1494.696 1764.0561,1494.6533 1763.5397,1494.7129 L 1763.4641,1494.2127 L 1767.6007,1493.5875 L 1767.6763,1494.0877 C 1767.288,1494.2017 1766.986,1494.3994 1766.7704,1494.6809 C 1766.5549,1494.9624 1766.2846,1495.7361 1765.9597,1497.0019 L 1763.2416,1507.5618 L 1762.6062,1507.6579 z M 1770.1503,1486.7308 C 1770.7323,1486.6202 1771.2635,1486.7303 1771.7439,1487.0612 C 1772.2242,1487.392 1772.5189,1487.844 1772.6278,1488.4171 C 1772.7367,1488.9902 1772.6257,1489.5169 1772.2949,1489.9972 C 1771.964,1490.4776 1771.512,1490.7723 1770.939,1490.8811 C 1770.3659,1490.9901 1769.8396,1490.8813 1769.3601,1490.5549 C 1768.8806,1490.2286 1768.5864,1489.7789 1768.4775,1489.2058 C 1768.3686,1488.6327 1768.4769,1488.1042 1768.8024,1487.6202 C 1769.1279,1487.1362 1769.5772,1486.8397 1770.1503,1486.7308 L 1770.1503,1486.7308 z M 1773.1869,1492.4579 L 1775.0783,1502.4107 C 1775.2467,1503.2972 1775.4573,1503.844 1775.7101,1504.0511 C 1775.9628,1504.2582 1776.3925,1504.3226 1776.9993,1504.2445 L 1777.0912,1504.728 L 1770.3083,1506.0169 L 1770.2164,1505.5334 C 1770.7681,1505.41 1771.1494,1505.1706 1771.3602,1504.8151 C 1771.5001,1504.5751 1771.4859,1504.0118 1771.3174,1503.1254 L 1769.9238,1495.7918 C 1769.7554,1494.9053 1769.5448,1494.3585 1769.292,1494.1514 C 1769.0393,1493.9443 1768.614,1493.879 1768.0162,1493.9554 L 1767.9218,1493.4585 L 1773.1869,1492.4579 z M 1779.3025,1485.2977 L 1782.6333,1500.8313 C 1782.8224,1501.7136 1783.0458,1502.2553 1783.3033,1502.4565 C 1783.5609,1502.6576 1783.992,1502.712 1784.5967,1502.6196 L 1784.6999,1503.1008 L 1777.9491,1504.5484 L 1777.8459,1504.0671 C 1778.3946,1503.9308 1778.7702,1503.6825 1778.9726,1503.3222 C 1779.1069,1503.079 1779.0794,1502.5162 1778.8902,1501.6339 L 1776.1155,1488.6937 C 1775.9282,1487.8203 1775.7058,1487.2831 1775.4483,1487.0819 C 1775.1908,1486.8808 1774.7641,1486.8255 1774.1683,1486.916 L 1774.0622,1486.4214 L 1779.3025,1485.2977 z M 1786.4883,1483.6308 L 1790.1451,1499.091 C 1790.3528,1499.9691 1790.5875,1500.506 1790.8492,1500.7016 C 1791.1109,1500.8973 1791.5431,1500.9426 1792.1457,1500.8375 L 1792.259,1501.3165 L 1785.5401,1502.9057 L 1785.4268,1502.4267 C 1785.9726,1502.2789 1786.3428,1502.0227 1786.5376,1501.6582 C 1786.6667,1501.4123 1786.6274,1500.8502 1786.4197,1499.9721 L 1783.3735,1487.0931 C 1783.1678,1486.2239 1782.9342,1485.6914 1782.6725,1485.4957 C 1782.4108,1485.3001 1781.983,1485.2537 1781.3892,1485.3567 L 1781.2728,1484.8644 L 1786.4883,1483.6308 z M 1802.1806,1491.6662 L 1795.3962,1493.4446 C 1795.9054,1495.0637 1796.6815,1496.2454 1797.7247,1496.9896 C 1798.5248,1497.5619 1799.3525,1497.736 1800.2077,1497.5118 C 1800.7367,1497.3731 1801.1785,1497.0995 1801.5331,1496.6909 C 1801.8877,1496.2823 1802.2114,1495.6297 1802.5041,1494.7333 L 1803.03,1494.9063 C 1802.7181,1496.4486 1802.2311,1497.6103 1801.5691,1498.3916 C 1800.907,1499.1729 1800.0426,1499.7034 1798.9757,1499.9831 C 1797.1419,1500.4638 1795.5683,1500.1224 1794.2552,1498.959 C 1793.1988,1498.0204 1792.4499,1496.7091 1792.0085,1495.0251 C 1791.4677,1492.962 1791.5949,1491.1737 1792.3902,1489.6603 C 1793.1854,1488.1468 1794.3324,1487.1936 1795.8313,1486.8007 C 1797.0832,1486.4726 1798.3045,1486.7013 1799.4951,1487.4869 C 1800.6857,1488.2726 1801.5809,1489.6657 1802.1806,1491.6662 L 1802.1806,1491.6662 z M 1798.695,1491.6329 C 1798.3229,1490.2134 1797.9904,1489.2594 1797.6974,1488.7708 C 1797.4045,1488.2823 1797.0591,1487.9441 1796.6612,1487.7563 C 1796.4345,1487.6461 1796.1668,1487.6315 1795.8582,1487.7124 C 1795.3997,1487.8326 1795.084,1488.1556 1794.9109,1488.6815 C 1794.5964,1489.6026 1794.6182,1490.7464 1794.9765,1492.113 L 1795.0978,1492.5758 L 1798.695,1491.6329 z"
       id="text3394" />
    <path
       style="font-size:28px;font-style:normal;font-weight:bold;fill:#000000;fill-opacity:1;stroke:#ffffff;stroke-width:0.5;stroke-linecap:butt;stroke-linejoin:miter;stroke-miterlimit:4;stroke-opacity:1;font-family:Times New Roman"
       d="M 1660.2941,1385.1874 L 1656.2686,1390.196 L 1655.853,1389.862 C 1656.591,1388.3036 1656.8135,1386.8336 1656.5206,1385.4522 C 1656.2276,1384.0708 1655.5412,1382.9461 1654.4614,1382.0782 C 1653.5591,1381.3531 1652.523,1380.9472 1651.3531,1380.8605 C 1650.1832,1380.7739 1649.0873,1381.0099 1648.0655,1381.5684 C 1646.7557,1382.2815 1645.5726,1383.2951 1644.5163,1384.6094 C 1643.4771,1385.9024 1642.6941,1387.2113 1642.1673,1388.5361 C 1641.6404,1389.8609 1641.5067,1391.0748 1641.7662,1392.1778 C 1642.0256,1393.2809 1642.7094,1394.2778 1643.8177,1395.1685 C 1644.7271,1395.8994 1645.72,1396.37 1646.7963,1396.5802 C 1647.8727,1396.7905 1649.2212,1396.7458 1650.8418,1396.4463 L 1649.8397,1397.6931 C 1648.3503,1397.8876 1647.0142,1397.8223 1645.8313,1397.4972 C 1644.6484,1397.1721 1643.4709,1396.5385 1642.2987,1395.5964 C 1640.757,1394.3574 1639.636,1392.9477 1638.9357,1391.3675 C 1638.2353,1389.7873 1638.0255,1388.157 1638.3062,1386.4765 C 1638.5868,1384.796 1639.2525,1383.3022 1640.3031,1381.995 C 1641.4108,1380.6167 1642.822,1379.5993 1644.5366,1378.9427 C 1646.2512,1378.2861 1647.9953,1378.1092 1649.769,1378.4122 C 1651.5427,1378.7151 1653.1186,1379.4204 1654.4969,1380.5281 C 1655.5128,1381.3447 1656.4086,1382.4271 1657.1842,1383.7754 C 1657.6322,1384.5565 1657.945,1385.0184 1658.1227,1385.1612 C 1658.35,1385.3439 1658.6142,1385.4189 1658.9154,1385.3861 C 1659.2165,1385.3533 1659.5375,1385.1758 1659.8785,1384.8534 L 1660.2941,1385.1874 z M 1662.1416,1385.4049 L 1659.5841,1392.3451 C 1660.4979,1391.8951 1661.2813,1391.6277 1661.9342,1391.5428 C 1662.5871,1391.4581 1663.2086,1391.5244 1663.7988,1391.7418 C 1664.5514,1392.0192 1665.1161,1392.4702 1665.4931,1393.0947 C 1665.87,1393.7193 1666.0398,1394.3526 1666.0024,1394.9945 C 1665.965,1395.6364 1665.6941,1396.6415 1665.1899,1398.0099 L 1663.4644,1402.6923 C 1663.1271,1403.6074 1663.0023,1404.2098 1663.0898,1404.4995 C 1663.1773,1404.7891 1663.4709,1405.06 1663.9706,1405.3121 L 1663.8004,1405.774 L 1657.7197,1403.5332 L 1657.8898,1403.0713 C 1658.3395,1403.169 1658.7233,1403.1162 1659.0411,1402.9127 C 1659.277,1402.7471 1659.5541,1402.2324 1659.8724,1401.3686 L 1661.8437,1396.0191 C 1662.2093,1395.027 1662.4001,1394.3907 1662.4161,1394.11 C 1662.4321,1393.8294 1662.3742,1393.5846 1662.2423,1393.3757 C 1662.1104,1393.1668 1661.929,1393.0199 1661.6981,1392.9348 C 1661.356,1392.8087 1660.9791,1392.8034 1660.5675,1392.9188 C 1660.1558,1393.0342 1659.6531,1393.3177 1659.0593,1393.7691 L 1656.6909,1400.1962 C 1656.3757,1401.0514 1656.2429,1401.6096 1656.2924,1401.8707 C 1656.3477,1402.2214 1656.6151,1402.5239 1657.0945,1402.7782 L 1656.9243,1403.2401 L 1650.8436,1400.9993 L 1651.0137,1400.5374 C 1651.5372,1400.6721 1651.9563,1400.6419 1652.271,1400.447 C 1652.4857,1400.3125 1652.7617,1399.7876 1653.0989,1398.8725 L 1657.59,1386.6854 C 1657.924,1385.7789 1658.0487,1385.1837 1657.9638,1384.8999 C 1657.879,1384.6161 1657.5841,1384.3422 1657.079,1384.0784 L 1657.254,1383.6037 L 1662.1416,1385.4049 z M 1671.8755,1387.6337 C 1672.4595,1387.7337 1672.9186,1388.0227 1673.2528,1388.5007 C 1673.5871,1388.9787 1673.705,1389.5051 1673.6065,1390.0801 C 1673.5081,1390.6551 1673.2198,1391.1097 1672.7418,1391.4439 C 1672.2638,1391.7782 1671.7374,1391.8961 1671.1624,1391.7976 C 1670.5874,1391.6992 1670.1324,1391.4132 1669.7974,1390.9397 C 1669.4624,1390.4662 1669.3441,1389.942 1669.4426,1389.367 C 1669.541,1388.792 1669.8274,1388.3348 1670.3017,1387.9952 C 1670.7759,1387.6557 1671.3005,1387.5352 1671.8755,1387.6337 L 1671.8755,1387.6337 z M 1672.7167,1394.0612 L 1671.0066,1404.0467 C 1670.8543,1404.9361 1670.8603,1405.522 1671.0246,1405.8045 C 1671.1889,1406.0869 1671.569,1406.2976 1672.1647,1406.4367 L 1672.0817,1406.9218 L 1665.2764,1405.7564 L 1665.3595,1405.2712 C 1665.9196,1405.3486 1666.3605,1405.2577 1666.6824,1404.9984 C 1666.8974,1404.8226 1667.0811,1404.2899 1667.2334,1403.4005 L 1668.4935,1396.0428 C 1668.6458,1395.1534 1668.6398,1394.5675 1668.4755,1394.2851 C 1668.3111,1394.0026 1667.9356,1393.7927 1667.3488,1393.6552 L 1667.4342,1393.1566 L 1672.7167,1394.0612 z M 1683.8986,1404.3668 L 1684.3046,1404.7167 C 1683.6444,1405.8138 1682.8516,1406.614 1681.926,1407.1175 C 1681.0005,1407.621 1680.0326,1407.8461 1679.0223,1407.7929 C 1677.3202,1407.7033 1675.9932,1406.99 1675.0414,1405.653 C 1674.0895,1404.3159 1673.661,1402.7463 1673.7559,1400.9441 C 1673.8474,1399.2056 1674.3921,1397.701 1675.3899,1396.43 C 1676.5933,1394.8961 1678.178,1394.1809 1680.1441,1394.2844 C 1681.4638,1394.3539 1682.4954,1394.7413 1683.2386,1395.4467 C 1683.9818,1396.1521 1684.3319,1396.9144 1684.2888,1397.7336 C 1684.2615,1398.2524 1684.0827,1398.6583 1683.7524,1398.9512 C 1683.4221,1399.2442 1683.002,1399.3772 1682.4923,1399.3504 C 1681.9553,1399.3221 1681.5209,1399.1213 1681.1892,1398.7478 C 1680.8575,1398.3744 1680.6746,1397.7305 1680.6406,1396.8159 C 1680.6162,1396.2397 1680.5053,1395.8322 1680.3079,1395.5936 C 1680.1105,1395.3551 1679.8708,1395.2284 1679.5886,1395.2135 C 1679.1517,1395.1905 1678.7663,1395.403 1678.4324,1395.8509 C 1677.9222,1396.5268 1677.629,1397.5884 1677.5528,1399.0356 C 1677.4896,1400.2371 1677.6202,1401.3963 1677.9448,1402.5132 C 1678.2693,1403.6301 1678.7497,1404.4745 1679.3859,1405.0465 C 1679.8659,1405.4643 1680.4472,1405.6911 1681.1299,1405.727 C 1681.5759,1405.7505 1682.0046,1405.6681 1682.4161,1405.4798 C 1682.8276,1405.2916 1683.3218,1404.9206 1683.8986,1404.3668 L 1683.8986,1404.3668 z M 1692.673,1405.3884 C 1691.1818,1406.8375 1689.8171,1407.5915 1688.579,1407.6507 C 1687.8506,1407.6854 1687.2338,1407.4754 1686.7285,1407.0204 C 1686.2231,1406.5655 1685.9533,1405.9784 1685.9189,1405.2592 C 1685.8724,1404.2851 1686.2494,1403.3888 1687.0498,1402.5704 C 1687.8502,1401.752 1689.6261,1400.6292 1692.3776,1399.2021 L 1692.3163,1397.9184 C 1692.2702,1396.9533 1692.1889,1396.3481 1692.0722,1396.1028 C 1691.9556,1395.8574 1691.7471,1395.6484 1691.4469,1395.4756 C 1691.1466,1395.3029 1690.8144,1395.2252 1690.4502,1395.2426 C 1689.8585,1395.2709 1689.3777,1395.4262 1689.0079,1395.7084 C 1688.779,1395.8836 1688.6698,1396.0804 1688.6803,1396.2989 C 1688.6894,1396.4901 1688.8281,1396.7208 1689.0965,1396.9908 C 1689.4612,1397.3658 1689.6522,1397.7353 1689.6696,1398.0995 C 1689.6909,1398.5456 1689.5429,1398.9337 1689.2256,1399.2636 C 1688.9083,1399.5936 1688.4811,1399.7714 1687.9439,1399.797 C 1687.3703,1399.8244 1686.8818,1399.6744 1686.4784,1399.3469 C 1686.0749,1399.0194 1685.8621,1398.6235 1685.84,1398.1592 C 1685.8087,1397.5037 1686.0382,1396.8654 1686.5287,1396.2443 C 1687.0192,1395.6232 1687.7211,1395.1311 1688.6345,1394.7681 C 1689.5479,1394.4052 1690.5054,1394.1997 1691.5068,1394.1519 C 1692.7177,1394.0941 1693.6882,1394.3055 1694.4183,1394.7862 C 1695.1485,1395.2669 1695.6326,1395.8027 1695.8707,1396.3936 C 1696.0164,1396.7699 1696.1221,1397.6454 1696.1877,1399.0201 L 1696.4244,1403.9774 C 1696.4522,1404.5601 1696.4925,1404.9254 1696.5452,1405.0735 C 1696.5979,1405.2215 1696.6715,1405.3298 1696.766,1405.3983 C 1696.8605,1405.4667 1696.967,1405.4982 1697.0853,1405.4925 C 1697.322,1405.4812 1697.5553,1405.3013 1697.785,1404.9527 L 1698.2103,1405.2608 C 1697.7873,1405.9563 1697.3395,1406.4681 1696.867,1406.7964 C 1696.3945,1407.1246 1695.8487,1407.3035 1695.2296,1407.3331 C 1694.5013,1407.3679 1693.9241,1407.2244 1693.4981,1406.9025 C 1693.0721,1406.5807 1692.7971,1406.076 1692.673,1405.3884 L 1692.673,1405.3884 z M 1692.6254,1404.3915 L 1692.4213,1400.117 C 1691.3505,1400.816 1690.5642,1401.5471 1690.0623,1402.3102 C 1689.7307,1402.8188 1689.5768,1403.3234 1689.6008,1403.8241 C 1689.6208,1404.2429 1689.7886,1404.6045 1690.1042,1404.9088 C 1690.3436,1405.1437 1690.6681,1405.2514 1691.0778,1405.2319 C 1691.533,1405.2101 1692.0489,1404.93 1692.6254,1404.3915 L 1692.6254,1404.3915 z M 1703.7195,1393.575 L 1703.8721,1395.2222 C 1704.46,1394.4538 1705.0385,1393.8807 1705.6076,1393.503 C 1706.1768,1393.1254 1706.8062,1392.9046 1707.496,1392.8407 C 1708.3219,1392.7642 1709.0283,1392.9299 1709.6153,1393.3377 C 1710.2023,1393.7456 1710.6181,1394.2815 1710.8627,1394.9454 C 1711.0558,1395.4492 1711.2205,1396.4363 1711.3567,1397.9066 L 1711.8157,1402.8619 C 1711.9065,1403.8421 1712.0516,1404.4442 1712.2508,1404.6683 C 1712.4501,1404.8925 1712.834,1405.0102 1713.4026,1405.0216 L 1713.448,1405.5117 L 1707.0087,1406.1082 L 1706.9633,1405.6181 C 1707.4385,1405.51 1707.7648,1405.2784 1707.9425,1404.9233 C 1708.0667,1404.6829 1708.0872,1404.1135 1708.0039,1403.215 L 1707.4793,1397.5518 C 1707.3826,1396.5081 1707.2808,1395.8539 1707.1739,1395.5891 C 1707.067,1395.3245 1706.9091,1395.1263 1706.7001,1394.9946 C 1706.4911,1394.8629 1706.2686,1394.808 1706.0326,1394.8299 C 1705.2521,1394.9022 1704.5778,1395.5276 1704.0096,1396.7061 L 1704.6414,1403.5265 C 1704.7296,1404.4795 1704.874,1405.0748 1705.0746,1405.3125 C 1705.2751,1405.5503 1705.6188,1405.6786 1706.1057,1405.6976 L 1706.1511,1406.1877 L 1699.7119,1406.7842 L 1699.6665,1406.2941 C 1700.1969,1406.19 1700.5621,1405.9823 1700.7621,1405.6708 C 1700.8979,1405.4569 1700.9204,1404.8598 1700.8296,1403.8796 L 1700.1637,1396.6916 C 1700.0746,1395.7296 1699.9306,1395.1388 1699.7318,1394.9192 C 1699.5329,1394.6997 1699.1488,1394.5796 1698.5794,1394.5592 L 1698.5327,1394.0555 L 1703.7195,1393.575 z M 1725.5697,1397.725 L 1718.5705,1398.1752 C 1718.7611,1399.8617 1719.2974,1401.1699 1720.1792,1402.0996 C 1720.8553,1402.8142 1721.6346,1403.1431 1722.5169,1403.0863 C 1723.0626,1403.0512 1723.5485,1402.867 1723.9746,1402.5336 C 1724.4007,1402.2003 1724.843,1401.6215 1725.3015,1400.7974 L 1725.7847,1401.0677 C 1725.184,1402.5221 1724.4842,1403.5695 1723.6851,1404.21 C 1722.886,1404.8505 1721.9362,1405.2061 1720.8356,1405.2769 C 1718.9437,1405.3986 1717.4643,1404.763 1716.3975,1403.3703 C 1715.5398,1402.2472 1715.055,1400.8171 1714.9433,1399.0798 C 1714.8064,1396.9514 1715.2728,1395.2203 1716.3424,1393.8865 C 1717.412,1392.5527 1718.7199,1391.8361 1720.2662,1391.7367 C 1721.5578,1391.6536 1722.7129,1392.1114 1723.7316,1393.1099 C 1724.7503,1394.1084 1725.3629,1395.6468 1725.5697,1397.725 L 1725.5697,1397.725 z M 1722.1545,1397.0268 C 1722.0604,1395.5624 1721.9161,1394.5624 1721.7219,1394.0269 C 1721.5276,1393.4914 1721.2531,1393.0935 1720.8984,1392.8331 C 1720.6969,1392.6817 1720.4369,1392.6162 1720.1186,1392.6367 C 1719.6456,1392.6671 1719.2739,1392.9239 1719.0036,1393.4071 C 1718.519,1394.2511 1718.3221,1395.3781 1718.4128,1396.7879 L 1718.4435,1397.2655 L 1722.1545,1397.0268 z M 1746.6586,1401.6852 L 1740.405,1399.7411 L 1739.1251,1401.2331 C 1738.7028,1401.7318 1738.4335,1402.1683 1738.3171,1402.5425 C 1738.1629,1403.0387 1738.2494,1403.4664 1738.5768,1403.8259 C 1738.7685,1404.0382 1739.3148,1404.3226 1740.2157,1404.679 L 1740.0656,1405.1621 L 1734.1775,1403.3317 L 1734.3277,1402.8486 C 1734.9928,1402.9504 1735.5969,1402.8494 1736.1399,1402.5458 C 1736.6829,1402.2421 1737.4644,1401.5091 1738.4843,1400.3467 L 1749.2077,1388.189 L 1749.4557,1388.2661 L 1751.3268,1404.7686 C 1751.5085,1406.3331 1751.7397,1407.3547 1752.0205,1407.8334 C 1752.2325,1408.1952 1752.6016,1408.4817 1753.1277,1408.693 L 1752.9775,1409.176 L 1744.4131,1406.5136 L 1744.5633,1406.0305 L 1744.9158,1406.1401 C 1745.6033,1406.3539 1746.1162,1406.4083 1746.4542,1406.3034 C 1746.689,1406.2237 1746.8469,1406.0532 1746.9281,1405.7921 C 1746.9768,1405.6355 1747.0008,1405.4663 1747,1405.2847 C 1747.0069,1405.201 1746.9778,1404.834 1746.9127,1404.1838 L 1746.6586,1401.6852 z M 1746.515,1400.5811 L 1745.7732,1393.6643 L 1741.1623,1398.9171 L 1746.515,1400.5811 z M 1757.0913,1415.738 L 1762.0617,1406.6765 C 1762.8148,1405.3109 1763.2305,1404.4106 1763.3089,1403.9756 C 1763.3873,1403.5405 1763.3488,1403.1181 1763.1933,1402.7084 L 1763.5935,1402.399 L 1767.7495,1407.7747 L 1767.3493,1408.0841 C 1767.0617,1407.7419 1766.8009,1407.5461 1766.5668,1407.4967 C 1766.3327,1407.4472 1766.1291,1407.4894 1765.9561,1407.6232 C 1765.682,1407.835 1765.2806,1408.4334 1764.7517,1409.4183 L 1762.1309,1414.2095 L 1766.1034,1413.022 C 1767.5211,1412.6057 1768.4427,1412.233 1768.8682,1411.9041 C 1769.135,1411.6978 1769.2794,1411.4451 1769.3015,1411.1457 C 1769.3235,1410.8464 1769.1689,1410.4677 1768.8378,1410.0094 L 1769.238,1409.7 L 1771.8553,1413.0856 L 1771.4551,1413.395 C 1771.1626,1413.0911 1770.8255,1412.9197 1770.444,1412.8806 C 1770.0623,1412.8415 1769.0438,1413.0702 1767.3884,1413.5666 L 1757.66,1416.4735 C 1755.2221,1417.1947 1753.6502,1417.5458 1752.9444,1417.527 C 1751.954,1417.4977 1751.1689,1417.1081 1750.5892,1416.3581 C 1750.1265,1415.7596 1749.9228,1415.1423 1749.9782,1414.5061 C 1750.0337,1413.87 1750.3029,1413.3651 1750.7861,1412.9916 C 1751.2043,1412.6683 1751.6494,1412.5287 1752.1213,1412.5728 C 1752.5932,1412.617 1752.9741,1412.8265 1753.264,1413.2015 C 1753.5427,1413.5621 1753.6518,1413.9415 1753.591,1414.3398 C 1753.5303,1414.7381 1753.2612,1415.1277 1752.7836,1415.5084 C 1752.5152,1415.7274 1752.3636,1415.8965 1752.3289,1416.0155 C 1752.2941,1416.1345 1752.3186,1416.2481 1752.4022,1416.3563 C 1752.536,1416.5293 1752.7827,1416.6324 1753.1424,1416.6654 C 1753.6682,1416.7197 1754.6225,1416.5234 1756.0052,1416.0766 L 1757.0913,1415.738 z M 1774.7476,1419.229 L 1772.4243,1420.962 C 1773.9905,1420.8513 1775.1378,1420.9222 1775.8663,1421.1747 C 1776.5948,1421.4273 1777.1362,1421.791 1777.4904,1422.2659 C 1777.7956,1422.6751 1777.9134,1423.096 1777.8439,1423.5288 C 1777.7744,1423.9615 1777.5095,1424.3496 1777.0493,1424.6929 C 1776.5598,1425.058 1776.0913,1425.2227 1775.6439,1425.1869 C 1775.1964,1425.1511 1774.8474,1424.9651 1774.5967,1424.629 C 1774.3079,1424.2418 1774.1814,1423.8131 1774.2173,1423.3429 C 1774.2531,1422.8727 1774.2666,1422.6011 1774.2577,1422.5281 C 1774.247,1422.4224 1774.2063,1422.322 1774.1354,1422.227 C 1773.9774,1422.0152 1773.7472,1421.8742 1773.4448,1421.8041 C 1772.9729,1421.6899 1772.4496,1421.7277 1771.8749,1421.9176 C 1770.9918,1422.2124 1770.1229,1422.6786 1769.2681,1423.3162 L 1766.9119,1425.0737 L 1766.3064,1425.5424 C 1765.8899,1425.853 1765.6423,1426.0775 1765.5636,1426.2158 C 1765.4317,1426.4507 1765.3842,1426.688 1765.4209,1426.9278 C 1765.4576,1427.1676 1765.6176,1427.5002 1765.9009,1427.9257 L 1765.5064,1428.22 L 1761.3783,1422.6857 L 1761.7729,1422.3914 C 1762.1418,1422.8098 1762.489,1423.0199 1762.8144,1423.0217 C 1763.1398,1423.0235 1763.7481,1422.6919 1764.6395,1422.0271 L 1770.3053,1417.8009 C 1770.8897,1417.365 1771.2405,1417.0578 1771.3577,1416.8795 C 1771.5078,1416.6538 1771.5785,1416.4362 1771.57,1416.2265 C 1771.5614,1416.0169 1771.4446,1415.7231 1771.2195,1415.3451 L 1771.625,1415.0427 L 1774.7476,1419.229 z M 1783.4929,1421.1682 L 1780.7436,1424.9503 L 1783.1986,1426.735 L 1782.4028,1427.8298 L 1779.9477,1426.0451 L 1775.3093,1432.426 C 1774.8751,1433.0232 1774.6228,1433.4285 1774.5521,1433.6419 C 1774.4815,1433.8554 1774.4773,1434.0665 1774.5397,1434.2752 C 1774.6021,1434.4839 1774.6922,1434.6312 1774.8102,1434.7169 C 1775.2894,1435.0653 1776.0081,1435.0299 1776.9663,1434.6109 L 1777.1212,1435.0953 C 1775.495,1436.0768 1774.011,1436.0798 1772.6692,1435.1044 C 1772.0131,1434.6274 1771.591,1434.0416 1771.4028,1433.3471 C 1771.2147,1432.6526 1771.2214,1432.0349 1771.423,1431.494 C 1771.5315,1431.1898 1771.9877,1430.4847 1772.7916,1429.3789 L 1776.8513,1423.7942 L 1775.5021,1422.8135 L 1775.7835,1422.4264 C 1777.1894,1422.4455 1778.4812,1422.331 1779.6589,1422.0828 C 1780.8366,1421.8346 1781.9929,1421.4413 1783.128,1420.903 L 1783.4929,1421.1682 z M 1786.5704,1427.1508 C 1787.6285,1427.4927 1788.5246,1428.084 1789.2587,1428.9246 C 1789.9928,1429.7653 1790.4337,1430.7651 1790.5813,1431.9239 C 1790.7288,1433.0827 1790.6092,1434.2605 1790.2225,1435.4574 C 1789.6647,1437.1833 1788.7601,1438.4858 1787.5086,1439.365 C 1785.9965,1440.4281 1784.3081,1440.6583 1782.4434,1440.0558 C 1780.6134,1439.4644 1779.4114,1438.3672 1778.8375,1436.7641 C 1778.2635,1435.161 1778.2498,1433.5138 1778.7963,1431.8226 C 1779.3596,1430.0793 1780.356,1428.7226 1781.7854,1427.7525 C 1783.2148,1426.7824 1784.8098,1426.5818 1786.5704,1427.1508 L 1786.5704,1427.1508 z M 1786.324,1428.0912 C 1785.8816,1427.9483 1785.4483,1427.9927 1785.0238,1428.2243 C 1784.5993,1428.4559 1784.1782,1429.0478 1783.7603,1429.9999 C 1783.3425,1430.9521 1782.8505,1432.3041 1782.2844,1434.0561 C 1781.9845,1434.9841 1781.765,1435.871 1781.6258,1436.7168 C 1781.5222,1437.3634 1781.5746,1437.8976 1781.7832,1438.3194 C 1781.9917,1438.7412 1782.2955,1439.0166 1782.6944,1439.1455 C 1783.0847,1439.2716 1783.445,1439.2683 1783.7752,1439.1356 C 1784.2088,1438.95 1784.5674,1438.6109 1784.8511,1438.1183 C 1785.2908,1437.3504 1785.9156,1435.7132 1786.7256,1433.2067 C 1787.202,1431.7323 1787.4468,1430.6931 1787.46,1430.0891 C 1787.4732,1429.4851 1787.36,1429.0055 1787.1203,1428.6503 C 1786.9537,1428.3953 1786.6882,1428.209 1786.324,1428.0912 L 1786.324,1428.0912 z M 1795.9171,1429.1243 L 1795.862,1430.7777 C 1796.5415,1430.089 1797.1873,1429.593 1797.7993,1429.2896 C 1798.4113,1428.9863 1799.0635,1428.8461 1799.7558,1428.8692 C 1800.5848,1428.8968 1801.2649,1429.1498 1801.7961,1429.628 C 1802.3274,1430.1063 1802.6727,1430.69 1802.8321,1431.3793 C 1802.9606,1431.9034 1803.0002,1432.9033 1802.951,1434.3791 L 1802.7853,1439.3529 C 1802.7525,1440.3367 1802.8209,1440.9523 1802.9905,1441.1996 C 1803.1601,1441.4469 1803.5262,1441.6119 1804.0889,1441.6945 L 1804.0725,1442.1864 L 1797.6093,1441.971 L 1797.6257,1441.4791 C 1798.1106,1441.4314 1798.4634,1441.2425 1798.6842,1440.9125 C 1798.8375,1440.6896 1798.9292,1440.1272 1798.9593,1439.2254 L 1799.1487,1433.541 C 1799.1836,1432.4934 1799.1646,1431.8316 1799.0918,1431.5556 C 1799.0189,1431.2796 1798.887,1431.0632 1798.6962,1430.9063 C 1798.5053,1430.7495 1798.2915,1430.6671 1798.0546,1430.6592 C 1797.2712,1430.6331 1796.5238,1431.1691 1795.8123,1432.2671 L 1795.5842,1439.1129 C 1795.5523,1440.0694 1795.621,1440.6782 1795.7901,1440.9391 C 1795.9592,1441.2001 1796.2842,1441.3705 1796.7648,1441.4504 L 1796.7484,1441.9423 L 1790.2852,1441.7269 L 1790.3016,1441.235 C 1790.8409,1441.1983 1791.2293,1441.0379 1791.4667,1440.754 C 1791.6283,1440.5588 1791.7254,1439.9692 1791.7582,1438.9854 L 1791.9986,1431.7707 C 1792.0308,1430.8051 1791.962,1430.2009 1791.7923,1429.9581 C 1791.6225,1429.7153 1791.2565,1429.5481 1790.6941,1429.4564 L 1790.711,1428.9508 L 1795.9171,1429.1243 z M 1821.4993,1420.2838 L 1822.7375,1426.34 L 1822.1857,1426.4389 C 1821.6522,1424.9604 1820.7931,1423.8481 1819.6084,1423.102 C 1818.4237,1422.356 1817.2392,1422.089 1816.055,1422.3013 C 1815.1399,1422.4653 1814.4592,1422.8396 1814.013,1423.4242 C 1813.5669,1424.0089 1813.4009,1424.6197 1813.515,1425.2567 C 1813.5874,1425.6604 1813.7459,1426.0024 1813.9906,1426.2826 C 1814.3263,1426.6576 1814.8183,1427.0001 1815.4664,1427.3098 C 1815.9412,1427.5303 1817.0086,1427.8807 1818.6689,1428.361 C 1820.9923,1429.028 1822.6099,1429.7613 1823.5218,1430.5608 C 1824.4247,1431.362 1824.9838,1432.3637 1825.1993,1433.5659 C 1825.4726,1435.0911 1825.1134,1436.5097 1824.1217,1437.8218 C 1823.1299,1439.1339 1821.7189,1439.9539 1819.8887,1440.282 C 1819.3145,1440.3849 1818.7613,1440.4238 1818.229,1440.3989 C 1817.6967,1440.3739 1817.0159,1440.269 1816.1864,1440.0843 C 1815.7236,1439.9821 1815.3532,1439.9559 1815.075,1440.0057 C 1814.8418,1440.0475 1814.6111,1440.1815 1814.3831,1440.4075 C 1814.1551,1440.6336 1813.9933,1440.945 1813.8977,1441.3418 L 1813.3998,1441.431 L 1812.1649,1434.5408 L 1812.6628,1434.4516 C 1813.4049,1436.3187 1814.4302,1437.6605 1815.7386,1438.477 C 1817.047,1439.2935 1818.3517,1439.5852 1819.6526,1439.352 C 1820.6574,1439.1719 1821.4091,1438.7548 1821.9076,1438.1006 C 1822.4061,1437.4464 1822.5903,1436.7559 1822.46,1436.0292 C 1822.3829,1435.5986 1822.1937,1435.2019 1821.8926,1434.8392 C 1821.5914,1434.4765 1821.175,1434.1552 1820.6434,1433.8755 C 1820.1117,1433.5958 1819.2015,1433.2704 1817.9128,1432.8995 C 1816.1067,1432.3806 1814.7889,1431.8991 1813.9592,1431.4552 C 1813.1296,1431.0113 1812.4562,1430.4699 1811.9389,1429.8311 C 1811.4216,1429.1923 1811.0866,1428.4467 1810.9338,1427.5944 C 1810.6733,1426.141 1810.9852,1424.8072 1811.8696,1423.5931 C 1812.7539,1422.379 1814.008,1421.6264 1815.6318,1421.3354 C 1816.224,1421.2293 1816.811,1421.1981 1817.393,1421.242 C 1817.8339,1421.2741 1818.3833,1421.3816 1819.0412,1421.5647 C 1819.699,1421.7477 1820.1491,1421.8175 1820.3913,1421.7741 C 1820.6246,1421.7323 1820.7956,1421.6276 1820.9045,1421.4599 C 1821.0133,1421.2923 1821.077,1420.9243 1821.0956,1420.3561 L 1821.4993,1420.2838 z M 1837.0352,1428.9677 L 1830.221,1430.6286 C 1830.7022,1432.2562 1831.4578,1433.4511 1832.4879,1434.2133 C 1833.2781,1434.7993 1834.1026,1434.9877 1834.9616,1434.7783 C 1835.4929,1434.6488 1835.9394,1434.3828 1836.301,1433.9804 C 1836.6626,1433.578 1836.9975,1432.9312 1837.3056,1432.0399 L 1837.8284,1432.222 C 1837.49,1433.7586 1836.983,1434.9118 1836.3075,1435.6816 C 1835.632,1436.4513 1834.7586,1436.9668 1833.6871,1437.2279 C 1831.8452,1437.6769 1830.2778,1437.3084 1828.9849,1436.1225 C 1827.9449,1435.1658 1827.2188,1433.8417 1826.8066,1432.1503 C 1826.3015,1430.0782 1826.4596,1428.2924 1827.2809,1426.7929 C 1828.1021,1425.2934 1829.2655,1424.3602 1830.7709,1423.9932 C 1832.0283,1423.6868 1833.2455,1423.9366 1834.4223,1424.7426 C 1835.5991,1425.5488 1836.4701,1426.9571 1837.0352,1428.9677 L 1837.0352,1428.9677 z M 1833.5507,1428.8742 C 1833.2032,1427.4485 1832.8872,1426.4889 1832.6027,1425.9953 C 1832.3183,1425.5018 1831.9787,1425.1577 1831.5842,1424.963 C 1831.3594,1424.8489 1831.092,1424.8297 1830.7821,1424.9052 C 1830.3216,1425.0174 1830.0003,1425.335 1829.8181,1425.8578 C 1829.4878,1426.7733 1829.4898,1427.9173 1829.8244,1429.2899 L 1829.9377,1429.7548 L 1833.5507,1428.8742 z M 1841.7926,1421.4887 L 1842.236,1423.0825 C 1842.6777,1422.2217 1843.145,1421.5548 1843.6378,1421.0818 C 1844.1306,1420.6089 1844.7107,1420.2796 1845.3781,1420.0939 C 1846.1772,1419.8716 1846.9018,1419.9089 1847.5521,1420.2058 C 1848.2023,1420.5027 1848.7068,1420.956 1849.0657,1421.5657 C 1849.3454,1422.0272 1849.6831,1422.9692 1850.0789,1424.3917 L 1851.4126,1429.1862 C 1851.6764,1430.1346 1851.9263,1430.7013 1852.1623,1430.8863 C 1852.3983,1431.0714 1852.797,1431.1189 1853.3586,1431.029 L 1853.4905,1431.5031 L 1847.2603,1433.2363 L 1847.1283,1432.7621 C 1847.5766,1432.5712 1847.8566,1432.2852 1847.9682,1431.9041 C 1848.0476,1431.6455 1847.9664,1431.0815 1847.7246,1430.2122 L 1846.2003,1424.7327 C 1845.9193,1423.7229 1845.7027,1423.0973 1845.5504,1422.8558 C 1845.3981,1422.6144 1845.2074,1422.4475 1844.9783,1422.3551 C 1844.7492,1422.2627 1844.5205,1422.2483 1844.2922,1422.3118 C 1843.537,1422.5219 1842.9847,1423.2574 1842.6354,1424.5182 L 1844.4711,1431.1172 C 1844.7276,1432.0392 1844.9757,1432.5994 1845.2153,1432.7976 C 1845.455,1432.9958 1845.816,1433.061 1846.2985,1432.993 L 1846.4304,1433.4671 L 1840.2002,1435.2003 L 1840.0683,1434.7261 C 1840.5717,1434.5293 1840.8941,1434.2599 1841.0355,1433.9178 C 1841.131,1433.6831 1841.0469,1433.0915 1840.7831,1432.1432 L 1838.8484,1425.1885 C 1838.5894,1424.2577 1838.3426,1423.702 1838.1079,1423.5213 C 1837.8731,1423.3406 1837.4738,1423.2909 1836.9098,1423.3721 L 1836.7742,1422.8847 L 1841.7926,1421.4887 z M 1856.6055,1417.2403 L 1857.0705,1418.8279 C 1857.5005,1417.9612 1857.9586,1417.288 1858.445,1416.8084 C 1858.9314,1416.3288 1859.5069,1415.9916 1860.1717,1415.7969 C 1860.9677,1415.5638 1861.6928,1415.5913 1862.347,1415.8793 C 1863.0012,1416.1673 1863.5118,1416.6137 1863.8789,1417.2185 C 1864.1649,1417.6761 1864.5154,1418.6134 1864.9304,1420.0305 L 1866.3292,1424.8064 C 1866.6058,1425.7511 1866.8634,1426.3144 1867.1019,1426.4962 C 1867.3403,1426.6781 1867.7397,1426.7202 1868.2999,1426.6226 L 1868.4383,1427.0949 L 1862.2322,1428.9125 L 1862.0938,1428.4402 C 1862.5395,1428.2432 1862.8155,1427.9534 1862.9219,1427.5708 C 1862.9978,1427.3112 1862.909,1426.7483 1862.6554,1425.8824 L 1861.0568,1420.4241 C 1860.7622,1419.4182 1860.5371,1418.7956 1860.3815,1418.5562 C 1860.2259,1418.3169 1860.033,1418.1526 1859.8026,1418.0633 C 1859.5723,1417.9741 1859.3434,1417.9627 1859.116,1418.0293 C 1858.3637,1418.2497 1857.8215,1418.9926 1857.4893,1420.258 L 1859.4145,1426.8315 C 1859.6835,1427.75 1859.9392,1428.3067 1860.1815,1428.5016 C 1860.4238,1428.6966 1860.7857,1428.7568 1861.2672,1428.6823 L 1861.4056,1429.1546 L 1855.1995,1430.9722 L 1855.0611,1430.4999 C 1855.5618,1430.2962 1855.8805,1430.0225 1856.0172,1429.6785 C 1856.1096,1429.4425 1856.0174,1428.8522 1855.7407,1427.9075 L 1853.7118,1420.9797 C 1853.4402,1420.0525 1853.1859,1419.5002 1852.9487,1419.3227 C 1852.7115,1419.1453 1852.3115,1419.101 1851.7487,1419.1898 L 1851.6065,1418.7043 L 1856.6055,1417.2403 z M 1876.3985,1422.8064 C 1875.2817,1424.5603 1874.1277,1425.6088 1872.9366,1425.9519 C 1872.2359,1426.1537 1871.5872,1426.0916 1870.9906,1425.7655 C 1870.394,1425.4394 1869.996,1424.9304 1869.7967,1424.2384 C 1869.5267,1423.3013 1869.6868,1422.3422 1870.2769,1421.3613 C 1870.867,1420.3803 1872.3361,1418.8782 1874.6842,1416.855 L 1874.3285,1415.62 C 1874.0611,1414.6916 1873.8423,1414.1215 1873.6722,1413.9097 C 1873.5021,1413.6978 1873.2511,1413.5425 1872.9191,1413.4437 C 1872.5871,1413.3449 1872.246,1413.3459 1871.8956,1413.4468 C 1871.3263,1413.6108 1870.8943,1413.8728 1870.5996,1414.2327 C 1870.4173,1414.456 1870.3564,1414.6727 1870.417,1414.8829 C 1870.47,1415.0668 1870.6582,1415.2592 1870.9816,1415.4601 C 1871.4229,1415.7408 1871.694,1416.0564 1871.7949,1416.4067 C 1871.9185,1416.8359 1871.864,1417.2476 1871.6314,1417.6418 C 1871.3987,1418.0361 1871.024,1418.3076 1870.5073,1418.4565 C 1869.9555,1418.6154 1869.4456,1418.5821 1868.9775,1418.3565 C 1868.5094,1418.1309 1868.211,1417.7947 1868.0823,1417.348 C 1867.9007,1416.7174 1867.9768,1416.0434 1868.3108,1415.3259 C 1868.6448,1414.6084 1869.2144,1413.9678 1870.0194,1413.4039 C 1870.8245,1412.84 1871.7087,1412.4193 1872.6722,1412.1418 C 1873.8371,1411.8063 1874.8302,1411.7882 1875.6515,1412.0875 C 1876.4728,1412.3869 1877.0674,1412.7966 1877.4354,1413.3166 C 1877.664,1413.6491 1877.9687,1414.4767 1878.3497,1415.7992 L 1879.7233,1420.5682 C 1879.8848,1421.1287 1880.0082,1421.475 1880.0936,1421.6069 C 1880.179,1421.7388 1880.2756,1421.8271 1880.3834,1421.872 C 1880.4912,1421.9168 1880.602,1421.9228 1880.7159,1421.89 C 1880.9436,1421.8244 1881.129,1421.5956 1881.2721,1421.2034 L 1881.7571,1421.4052 C 1881.5058,1422.1794 1881.1882,1422.7808 1880.8041,1423.2091 C 1880.4201,1423.6375 1879.9302,1423.9375 1879.3347,1424.109 C 1878.634,1424.3108 1878.0393,1424.3043 1877.5505,1424.0894 C 1877.0618,1423.8745 1876.6778,1423.4468 1876.3985,1422.8064 L 1876.3985,1422.8064 z M 1876.1222,1421.8473 L 1874.9378,1417.7352 C 1874.0571,1418.6623 1873.4606,1419.555 1873.1482,1420.4133 C 1872.9428,1420.9847 1872.9095,1421.5112 1873.0483,1421.9929 C 1873.1643,1422.3958 1873.411,1422.7089 1873.7883,1422.9322 C 1874.0754,1423.1056 1874.416,1423.1355 1874.8102,1423.022 C 1875.2481,1422.8959 1875.6854,1422.5043 1876.1222,1421.8473 L 1876.1222,1421.8473 z"
       id="text3398" />
    <text
       xml:space="preserve"
       style="font-size:28px;font-style:normal;font-weight:bold;fill:#000000;fill-opacity:1;stroke:#ffffff;stroke-width:0.5;stroke-linecap:butt;stroke-linejoin:miter;stroke-miterlimit:4;stroke-dasharray:none;stroke-opacity:1;font-family:Times New Roman"
       x="1432.7906"
       y="884.93762"
       id="text3402"><tspan
         sodipodi:role="line"
         id="tspan3404"
         x="1432.7906"
         y="884.93762">Curva</tspan><tspan
         sodipodi:role="line"
         x="1432.7906"
         y="919.93762"
         id="tspan3420">Ducados</tspan></text>
    <path
       style="fill:none;fill-rule:evenodd;stroke:none;stroke-width:1px;stroke-linecap:butt;stroke-linejoin:miter;stroke-opacity:1"
       d="M 1634.4635,1387.5791 C 1673.8346,1432.5747 1741.3052,1381.6178 1760.4512,1420.2008 C 1780.0463,1459.689 1833.1912,1436.3222 1888.6884,1421.3257"
       id="path3406"
       sodipodi:nodetypes="czs" />
    <path
       style="fill:none;fill-rule:evenodd;stroke:none;stroke-width:1px;stroke-linecap:butt;stroke-linejoin:miter;stroke-opacity:1"
       d="M 1602.9667,1426.9502 C 1654.7116,1504.5676 1703.0818,1528.1902 1813.3209,1495.5685"
       id="path3411"
       sodipodi:nodetypes="cc" />
  </g>
</svg>
